SplineFontDB: 3.0
FontName: Vazir-Bold
FullName: Vazir Bold
FamilyName: Vazir
Weight: Bold
Copyright: Copyright (c) 2003 by Bitstream, Inc. All Rights Reserved.\nDejaVu changes are in public domain\nCopyright (c) 2015 by Saber Rastikerdar. All Rights Reserved.
Version: 2-Beta
ItalicAngle: 0
UnderlinePosition: -100
UnderlineWidth: 100
Ascent: 1536
Descent: 512
InvalidEm: 0
LayerCount: 2
Layer: 0 1 "Back" 1
Layer: 1 1 "Fore" 0
XUID: [1021 502 1027637223 6775688]
UniqueID: 4052514
UseUniqueID: 1
FSType: 0
OS2Version: 1
OS2_WeightWidthSlopeOnly: 0
OS2_UseTypoMetrics: 1
CreationTime: 1431850356
ModificationTime: 1451654124
PfmFamily: 33
TTFWeight: 700
TTFWidth: 5
LineGap: 0
VLineGap: 0
Panose: 2 11 6 3 3 8 4 2 2 4
OS2TypoAscent: 2250
OS2TypoAOffset: 0
OS2TypoDescent: -750
OS2TypoDOffset: 0
OS2TypoLinegap: 0
OS2WinAscent: 2250
OS2WinAOffset: 0
OS2WinDescent: 750
OS2WinDOffset: 0
HheadAscent: 2250
HheadAOffset: 0
HheadDescent: -750
HheadDOffset: 0
OS2SubXSize: 1331
OS2SubYSize: 1433
OS2SubXOff: 0
OS2SubYOff: 286
OS2SupXSize: 1331
OS2SupYSize: 1433
OS2SupXOff: 0
OS2SupYOff: 983
OS2StrikeYSize: 102
OS2StrikeYPos: 530
OS2Vendor: 'PfEd'
OS2CodePages: 600001ff.dfff0000
Lookup: 1 0 0 "'case' Case-Sensitive Forms in Latin lookup 0" { "'case' Case-Sensitive Forms in Latin lookup 0 subtable"  } ['case' ('DFLT' <'dflt' > 'latn' <'CAT ' 'ESP ' 'GAL ' 'dflt' > ) ]
Lookup: 6 1 0 "'ccmp' Glyph Composition/Decomposition lookup 2" { "'ccmp' Glyph Composition/Decomposition lookup 2 subtable"  } ['ccmp' ('arab' <'KUR ' 'SND ' 'URD ' 'dflt' > 'hebr' <'dflt' > 'nko ' <'dflt' > ) ]
Lookup: 6 0 0 "'ccmp' Glyph Composition/Decomposition lookup 3" { "'ccmp' Glyph Composition/Decomposition lookup 3 subtable"  } ['ccmp' ('cyrl' <'MKD ' 'SRB ' 'dflt' > 'grek' <'dflt' > 'latn' <'ISM ' 'KSM ' 'LSM ' 'MOL ' 'NSM ' 'ROM ' 'SKS ' 'SSM ' 'dflt' > ) ]

StartChar: exclam
Encoding: 33 33 1
Width: 877
VWidth: 2158
GlyphClass: 2
Flags: W
LayerCount: 2
Fore
SplineSet
296.750976562 291.890625 m 1,0,-1
 580.255859375 291.890625 l 1,1,-1
 580.255859375 0 l 1,2,-1
 296.750976562 0 l 1,3,-1
 296.750976562 291.890625 l 1,0,-1
296.750976562 1470.01171875 m 5,4,-1
 580.255859375 1470.01171875 l 5,5,-1
 580.255859375 871.572265625 l 1,6,-1
 558.169921875 477.459960938 l 1,7,-1
 319.9375 477.459960938 l 1,8,-1
 296.744140625 871.745117188 l 1,9,-1
 296.750976562 1470.01171875 l 5,4,-1
EndSplineSet
EndChar

StartChar: parenleft
Encoding: 40 40 2
Width: 856
VWidth: 2158
GlyphClass: 2
Flags: W
GlyphCompositionVertical: 3  uni239D%0,0,46,2854 uni239C%1,46,46,2884 uni239B%0,46,0,2893
LayerCount: 2
Fore
SplineSet
429.706054688 1534.5625 m 5,0,1
 127.715820312 1068.37988281 127.715820312 1068.37988281 127.715820312 632.861328125 c 132,-1,2
 127.715820312 197.34375 127.715820312 197.34375 429.747070312 -268.012695312 c 5,3,-1
 695.299804688 -268.012695312 l 5,4,-1
 656.381835938 -223.049804688 l 5,5,6
 403.28125 193.243164062 403.28125 193.243164062 403.28125 632.393554688 c 132,-1,7
 403.28125 1071.54394531 403.28125 1071.54394531 656.4375 1489.7421875 c 5,8,-1
 695.150390625 1534.5625 l 5,9,-1
 429.706054688 1534.5625 l 5,0,1
EndSplineSet
EndChar

StartChar: parenright
Encoding: 41 41 3
Width: 856
VWidth: 2158
GlyphClass: 2
Flags: W
GlyphCompositionVertical: 3  uni23A0%0,0,46,2854 uni239F%1,46,46,2884 uni239E%0,46,0,2893
LayerCount: 2
Fore
SplineSet
426.309570312 1534.5625 m 5,0,1
 728.299804688 1068.37952875 728.299804688 1068.37952875 728.299804688 632.861621101 c 132,-1,2
 728.299804688 197.343713449 728.299804688 197.343713449 426.268554688 -268.012695312 c 5,3,-1
 160.715820312 -268.012695312 l 5,4,-1
 199.633789062 -223.049804688 l 5,5,6
 452.734375 193.243402197 452.734375 193.243402197 452.734375 632.39379636 c 132,-1,7
 452.734375 1071.54419052 452.734375 1071.54419052 199.578125 1489.7421875 c 5,8,-1
 160.865234375 1534.5625 l 5,9,-1
 426.309570312 1534.5625 l 5,0,1
EndSplineSet
EndChar

StartChar: period
Encoding: 46 46 4
Width: 586
VWidth: 2158
GlyphClass: 2
Flags: W
LayerCount: 2
Fore
SplineSet
147.276367188 291.890625 m 1,0,-1
 438.723632812 291.890625 l 1,1,-1
 438.723632812 0 l 1,2,-1
 147.276367188 0 l 1,3,-1
 147.276367188 291.890625 l 1,0,-1
EndSplineSet
EndChar

StartChar: colon
Encoding: 58 58 5
Width: 747
VWidth: 2158
GlyphClass: 2
Flags: W
LayerCount: 2
Fore
SplineSet
227.776367188 291.890625 m 1,0,-1
 519.223632812 291.890625 l 1,1,-1
 519.223632812 0 l 1,2,-1
 227.776367188 0 l 1,3,-1
 227.776367188 291.890625 l 1,0,-1
227.776367188 922.005859375 m 1,4,-1
 519.223632812 922.005859375 l 1,5,-1
 519.223632812 630.115234375 l 1,6,-1
 227.776367188 630.115234375 l 1,7,-1
 227.776367188 922.005859375 l 1,4,-1
EndSplineSet
EndChar

StartChar: afii57388
Encoding: 1548 1548 7
Width: 764
VWidth: 2165
GlyphClass: 2
Flags: W
LayerCount: 2
Fore
SplineSet
365.416015625 0 m 0,0,1
 318.059570312 0 318.059570312 0 280.19140625 17.6025390625 c 128,-1,2
 242.323242188 35.2041015625 242.323242188 35.2041015625 217.189453125 68.6181640625 c 128,-1,3
 192.055664062 102.03125 192.055664062 102.03125 181.924804688 148.463867188 c 0,4,5
 168.368164062 211.3203125 168.368164062 211.3203125 191.381835938 310.994140625 c 0,6,7
 231.997070312 489.671875 231.997070312 489.671875 419.369140625 668.319335938 c 2,8,-1
 444.916015625 692.676757812 l 1,9,-1
 587.1015625 601.79296875 l 1,10,-1
 539.549804688 562.446289062 l 2,11,12
 511.969726562 539.625976562 511.969726562 539.625976562 490.208007812 514.80078125 c 128,-1,13
 468.4453125 489.975585938 468.4453125 489.975585938 452.311523438 462.900390625 c 128,-1,14
 436.177734375 435.825195312 436.177734375 435.825195312 425.47265625 406.600585938 c 128,-1,15
 414.766601562 377.376953125 414.766601562 377.376953125 409.12890625 345.317382812 c 1,16,17
 484.9296875 334.272460938 484.9296875 334.272460938 523.046875 279.807617188 c 128,-1,18
 561.165039062 225.342773438 561.165039062 225.342773438 556.297851562 143.212890625 c 0,19,20
 552.147460938 72.5400390625 552.147460938 72.5400390625 499.58203125 36.2705078125 c 128,-1,21
 447.017578125 0 447.017578125 0 365.416015625 0 c 0,0,1
EndSplineSet
EndChar

StartChar: uni0615
Encoding: 1557 1557 8
Width: -27
VWidth: 2304
GlyphClass: 4
Flags: W
AnchorPoint: "Anchor-10" 569.519 1392.15 mark 0
AnchorPoint: "Anchor-9" 569.519 1392.15 mark 0
AnchorPoint: "Anchor-1" 569.519 2126.6 basemark 0
AnchorPoint: "Anchor-1" 569.519 1392.15 mark 0
LayerCount: 2
Fore
SplineSet
573.568359375 1620.54980469 m 1,0,1
 587.7421875 1620.54980469 587.7421875 1620.54980469 601.09375 1621.1484375 c 128,-1,2
 614.4453125 1621.74707031 614.4453125 1621.74707031 624.624023438 1622.73144531 c 128,-1,3
 634.801757812 1623.71484375 634.801757812 1623.71484375 643.486328125 1624.89453125 c 128,-1,4
 652.169921875 1626.07421875 652.169921875 1626.07421875 658.16015625 1627.3203125 c 128,-1,5
 664.150390625 1628.56738281 664.150390625 1628.56738281 667.896484375 1629.6015625 c 128,-1,6
 671.642578125 1630.63574219 671.642578125 1630.63574219 673.096679688 1631.41308594 c 0,7,8
 682.977539062 1637.59277344 682.977539062 1637.59277344 690.9296875 1643.16503906 c 128,-1,9
 698.850585938 1648.71289062 698.850585938 1648.71289062 705.076171875 1653.80957031 c 0,10,11
 706.553710938 1655.01855469 706.553710938 1655.01855469 707.92578125 1656.19628906 c 128,-1,12
 709.297851562 1657.37402344 709.297851562 1657.37402344 710.510742188 1658.47070312 c 128,-1,13
 711.723632812 1659.56738281 711.723632812 1659.56738281 712.791992188 1660.58496094 c 128,-1,14
 713.860351562 1661.60351562 713.860351562 1661.60351562 714.818359375 1662.57421875 c 0,15,16
 716.766601562 1664.54785156 716.766601562 1664.54785156 717.86328125 1666.06835938 c 128,-1,17
 718.959960938 1667.58984375 718.959960938 1667.58984375 719.452148438 1668.63085938 c 2,18,-1
 719.646484375 1669.09765625 l 1,19,20
 719.482421875 1685.12402344 719.482421875 1685.12402344 706.584960938 1694.97167969 c 1,21,-1
 703.5 1693.78320312 l 2,22,23
 701.079101562 1692.82617188 701.079101562 1692.82617188 698.126953125 1691.59179688 c 128,-1,24
 695.17578125 1690.35742188 695.17578125 1690.35742188 691.565429688 1688.78710938 c 128,-1,25
 687.955078125 1687.21679688 687.955078125 1687.21679688 683.94140625 1685.41699219 c 0,26,27
 657.95703125 1673.76464844 657.95703125 1673.76464844 641.75390625 1667.37207031 c 0,28,29
 608.927734375 1654.1171875 608.927734375 1654.1171875 573.568359375 1620.54980469 c 1,0,1
600.02734375 1451.88378906 m 2,30,-1
 248.467773438 1451.88378906 l 1,31,-1
 248.467773438 1620.54980469 l 1,32,-1
 339.991210938 1620.54980469 l 1,33,-1
 339.991210938 2071.38769531 l 1,34,-1
 509.787109375 2071.38769531 l 1,35,-1
 509.787109375 1762.33984375 l 1,36,37
 556.43359375 1805.89941406 556.43359375 1805.89941406 630.912109375 1834.54394531 c 0,38,39
 671.486328125 1850.03515625 671.486328125 1850.03515625 714.569335938 1849.33984375 c 0,40,41
 735.899414062 1848.99609375 735.899414062 1848.99609375 757.33203125 1844.72851562 c 128,-1,42
 778.764648438 1840.46191406 778.764648438 1840.46191406 800.619140625 1832.34375 c 0,43,44
 845.340820312 1815.14355469 845.340820312 1815.14355469 868.520507812 1776.13964844 c 128,-1,45
 891.700195312 1737.13671875 891.700195312 1737.13671875 891.700195312 1685.93164062 c 0,46,47
 891.700195312 1667.35253906 891.700195312 1667.35253906 889.533203125 1650.03125 c 0,48,49
 888.983398438 1645.63867188 888.983398438 1645.63867188 888.29296875 1641.32128906 c 128,-1,50
 887.602539062 1637.00390625 887.602539062 1637.00390625 886.766601562 1632.73632812 c 128,-1,51
 885.930664062 1628.46777344 885.930664062 1628.46777344 884.944335938 1624.25292969 c 128,-1,52
 883.958007812 1620.03710938 883.958007812 1620.03710938 882.827148438 1615.90332031 c 0,53,54
 878.252929688 1599.1875 878.252929688 1599.1875 871.346679688 1583.87890625 c 0,55,56
 870.352539062 1581.67480469 870.352539062 1581.67480469 869.30859375 1579.49804688 c 128,-1,57
 868.264648438 1577.32128906 868.264648438 1577.32128906 867.170898438 1575.171875 c 128,-1,58
 866.076171875 1573.02148438 866.076171875 1573.02148438 864.93359375 1570.90039062 c 128,-1,59
 863.791015625 1568.77929688 863.791015625 1568.77929688 862.598632812 1566.68554688 c 128,-1,60
 861.405273438 1564.59179688 861.405273438 1564.59179688 860.165039062 1562.52929688 c 128,-1,61
 858.923828125 1560.46679688 858.923828125 1560.46679688 857.633789062 1558.43261719 c 128,-1,62
 856.342773438 1556.3984375 856.342773438 1556.3984375 855.005859375 1554.39746094 c 0,63,64
 850.336914062 1547.41308594 850.336914062 1547.41308594 845.094726562 1540.8203125 c 128,-1,65
 839.852539062 1534.2265625 839.852539062 1534.2265625 834.059570312 1528.046875 c 0,66,67
 822.59375 1515.81640625 822.59375 1515.81640625 808.892578125 1505.11230469 c 0,68,69
 799.594726562 1497.88183594 799.594726562 1497.88183594 789.248046875 1491.77246094 c 128,-1,70
 778.901367188 1485.6640625 778.901367188 1485.6640625 767.42578125 1480.52832031 c 0,71,72
 756.26953125 1475.53710938 756.26953125 1475.53710938 744.129882812 1471.4765625 c 128,-1,73
 731.990234375 1467.41601562 731.990234375 1467.41601562 718.825195312 1464.2109375 c 0,74,75
 710.171875 1462.10546875 710.171875 1462.10546875 701.030273438 1460.36328125 c 128,-1,76
 691.888671875 1458.62207031 691.888671875 1458.62207031 682.455078125 1457.26660156 c 128,-1,77
 673.021484375 1455.91015625 673.021484375 1455.91015625 663.065429688 1454.89160156 c 0,78,79
 648.284179688 1453.37792969 648.284179688 1453.37792969 632.5390625 1452.63085938 c 128,-1,80
 616.79296875 1451.88378906 616.79296875 1451.88378906 600.02734375 1451.88378906 c 2,30,-1
EndSplineSet
EndChar

StartChar: uni061B
Encoding: 1563 1563 9
Width: 753
VWidth: 2165
GlyphClass: 2
Flags: W
LayerCount: 2
Fore
SplineSet
220.990234375 291.890625 m 1,0,-1
 512.4375 291.890625 l 1,1,-1
 512.4375 0 l 1,2,-1
 220.990234375 0 l 1,3,-1
 220.990234375 291.890625 l 1,0,-1
358.8984375 457.892578125 m 0,4,5
 287.106445312 459.147460938 287.106445312 459.147460938 238.98828125 498.10546875 c 128,-1,6
 190.869140625 537.064453125 190.869140625 537.064453125 175.719726562 606.427734375 c 0,7,8
 162.350585938 669.701171875 162.350585938 669.701171875 185.19140625 768.881835938 c 0,9,10
 225.965820312 947.994140625 225.965820312 947.994140625 413.232421875 1126.26367188 c 2,11,-1
 438.456054688 1150.27636719 l 1,12,-1
 582.216796875 1060.85351562 l 1,13,-1
 534.875 1020.94238281 l 2,14,15
 426.038085938 929.188476562 426.038085938 929.188476562 403.125 803.302734375 c 1,16,17
 437.341796875 798.44140625 437.341796875 798.44140625 465.416992188 784.296875 c 128,-1,18
 493.491210938 770.15234375 493.491210938 770.15234375 512.952148438 746.259765625 c 0,19,20
 535.352539062 718.7578125 535.352539062 718.7578125 544.060546875 682.092773438 c 128,-1,21
 552.76953125 645.428710938 552.76953125 645.428710938 550.108398438 601.099609375 c 0,22,23
 549.602539062 592.317382812 549.602539062 592.317382812 548.3125 583.939453125 c 128,-1,24
 547.022460938 575.561523438 547.022460938 575.561523438 544.797851562 567.181640625 c 128,-1,25
 542.572265625 558.802734375 542.572265625 558.802734375 539.474609375 551.013671875 c 0,26,27
 529.809570312 526.713867188 529.809570312 526.713867188 511.841796875 508.17578125 c 0,28,29
 494.357421875 490.140625 494.357421875 490.140625 469.719726562 478.557617188 c 0,30,31
 447.173828125 467.958984375 447.173828125 467.958984375 418.5234375 462.797851562 c 0,32,33
 409.420898438 461.159179688 409.420898438 461.159179688 399.619140625 460.071289062 c 128,-1,34
 389.817382812 458.983398438 389.817382812 458.983398438 379.736328125 458.453125 c 128,-1,35
 369.655273438 457.922851562 369.655273438 457.922851562 358.8984375 457.892578125 c 0,4,5
EndSplineSet
EndChar

StartChar: uni061F
Encoding: 1567 1567 10
Width: 1141
VWidth: 2158
GlyphClass: 2
Flags: W
LayerCount: 2
Fore
SplineSet
760.72265625 291.890625 m 1,0,-1
 760.72265625 0 l 1,1,-1
 477.216796875 0 l 1,2,-1
 477.216796875 291.890625 l 1,3,-1
 760.72265625 291.890625 l 1,0,-1
483.172851562 475.13671875 m 1,4,-1
 483.172851562 480.206054688 l 2,5,6
 483 563 483 563 441.012695312 613.947265625 c 0,7,8
 422.264111077 636.679767523 422.264111077 636.679767523 390.296875 667.920898438 c 2,9,-1
 303.0625 753.173828125 l 1,10,11
 209 843 209 843 169.420898438 918.810546875 c 0,12,13
 130 994 130 994 129.79296875 1079.4453125 c 0,14,15
 130 1255 130 1255 253.311523438 1363.21875 c 0,16,17
 377 1471 377 1471 581.076171875 1471.14355469 c 4,18,19
 785.507786199 1471.00034481 785.507786199 1471.00034481 980.228515625 1354.48339844 c 2,20,-1
 1011.20898438 1335.9453125 l 1,21,-1
 932.934570312 1100.30859375 l 1,22,-1
 883.95703125 1132.58789062 l 2,23,24
 838 1163 838 1163 759.134765625 1194.59960938 c 0,25,26
 555 1277 555 1277 451.602539062 1169.76953125 c 0,27,28
 413 1130 413 1130 413.298828125 1080.91894531 c 0,29,30
 413 992 413 992 507.869140625 904.538085938 c 1,31,-1
 597.40234375 816 l 1,32,33
 688 729 688 729 725.231445312 648.518554688 c 0,34,35
 754.767578125 585.495929404 754.767578125 585.495929404 754.767578125 510.915039062 c 2,36,-1
 754.767578125 475.13671875 l 1,37,-1
 483.172851562 475.13671875 l 1,4,-1
EndSplineSet
EndChar

StartChar: uni0621
Encoding: 1569 1569 11
Width: 859
VWidth: 2304
GlyphClass: 2
Flags: W
AnchorPoint: "Anchor-7" 305.765 -212.44 basechar 0
AnchorPoint: "Anchor-10" 331.637 1325.62 basechar 0
LayerCount: 2
Fore
SplineSet
75.7021484375 -18.732421875 m 1,0,-1
 75.7021484375 240.815429688 l 1,1,-1
 215.09375 290.811523438 l 1,2,3
 131.43359375 331.259765625 131.43359375 331.259765625 88.498046875 404.504882812 c 128,-1,4
 45.5625 477.75 45.5625 477.75 46.0791015625 576.293945312 c 128,-1,5
 46.5966796875 674.638671875 46.5966796875 674.638671875 90.45703125 750.030273438 c 128,-1,6
 134.317382812 825.420898438 134.317382812 825.420898438 218.374023438 871.375 c 0,7,8
 393.704101562 966.3046875 393.704101562 966.3046875 627.876953125 899.515625 c 2,9,-1
 660.534179688 890.201171875 l 1,10,-1
 660.534179688 652.049804688 l 1,11,-1
 606.662109375 662.8828125 l 2,12,13
 566.135742188 671.033203125 566.135742188 671.033203125 528.890625 675.5546875 c 128,-1,14
 491.645507812 680.076171875 491.645507812 680.076171875 457.767578125 681.017578125 c 0,15,16
 436.715820312 681.610351562 436.715820312 681.610351562 417.708007812 680.029296875 c 128,-1,17
 398.700195312 678.448242188 398.700195312 678.448242188 383.408203125 675.140625 c 128,-1,18
 368.116210938 671.833984375 368.116210938 671.833984375 355.235351562 666.856445312 c 0,19,20
 317.959960938 651.586914062 317.959960938 651.586914062 302.920898438 630.462890625 c 128,-1,21
 287.881835938 609.33984375 287.881835938 609.33984375 287.534179688 574.989257812 c 0,22,23
 287.916992188 527.40625 287.916992188 527.40625 321.287109375 497.1484375 c 128,-1,24
 354.65625 466.890625 354.65625 466.890625 436.255859375 450.833007812 c 0,25,26
 586.3046875 421.370117188 586.3046875 421.370117188 700.721679688 486.267578125 c 2,27,-1
 767.922851562 524.384765625 l 1,28,-1
 767.922851562 247.935546875 l 1,29,-1
 75.7021484375 -18.732421875 l 1,0,-1
EndSplineSet
EndChar

StartChar: uni0627
Encoding: 1575 1575 17
Width: 538
VWidth: 2304
GlyphClass: 2
Flags: W
AnchorPoint: "Anchor-10" 265.512 1567.79 basechar 0
AnchorPoint: "Anchor-7" 268.68 -208.688 basechar 0
LayerCount: 2
Fore
SplineSet
145.903320312 1470.4140625 m 5,0,-1
 404.12890625 1470.4140625 l 5,1,-1
 404.12890625 0.583984375 l 5,2,-1
 145.903320312 0.583984375 l 5,3,-1
 145.903320312 1470.4140625 l 5,0,-1
EndSplineSet
Substitution2: "'fina' Terminal Forms in Arabic lookup 9 subtable" uniFE8E
EndChar

StartChar: uni062D
Encoding: 1581 1581 23
Width: 1361
VWidth: 2304
GlyphClass: 2
Flags: W
AnchorPoint: "Anchor-10" 537.008 1293.94 basechar 0
AnchorPoint: "Anchor-7" 474.007 -685 basechar 0
LayerCount: 2
Fore
SplineSet
944.977539062 504.176757812 m 0,0,1
 641.162109375 457.712890625 641.162109375 457.712890625 489.161132812 308.469726562 c 0,2,3
 364.017578125 186.083007812 364.017578125 186.083007812 364.052734375 28.77734375 c 128,-1,4
 364.088867188 -128.528320312 364.088867188 -128.528320312 475.762695312 -207.928710938 c 128,-1,5
 587.436523438 -287.329101562 587.436523438 -287.329101562 800.83984375 -287.65625 c 128,-1,6
 1014.24316406 -287.984375 1014.24316406 -287.984375 1157.12695312 -236.921875 c 2,7,-1
 1202.28320312 -220.784179688 l 1,8,-1
 1269.08300781 -453.348632812 l 1,9,-1
 1232.70117188 -469.0234375 l 2,10,11
 1070.0546875 -539.09765625 1070.0546875 -539.09765625 763.373046875 -535.963867188 c 128,-1,12
 456.690429688 -532.830078125 456.690429688 -532.830078125 284.791015625 -379.423828125 c 128,-1,13
 112.892578125 -226.016601562 112.892578125 -226.016601562 113.9765625 35.1123046875 c 128,-1,14
 115.060546875 296.241210938 115.060546875 296.241210938 340.581054688 497.012695312 c 0,15,16
 485.134765625 626 485.134765625 626 703.5703125 673.970703125 c 1,17,18
 674.83984375 692.543945312 674.83984375 692.543945312 628.223632812 727.428710938 c 0,19,20
 482.59375 836.412109375 482.59375 836.412109375 315.735351562 615.532226562 c 2,21,-1
 289.2578125 580.481445312 l 1,22,-1
 91.5703125 722.461914062 l 1,23,-1
 121.743164062 759.534179688 l 2,24,25
 208.526367188 866.159179688 208.526367188 866.159179688 233.9296875 891.657226562 c 0,26,27
 358.579101562 1013.96972656 358.579101562 1013.96972656 523.647460938 1014.23828125 c 0,28,29
 649.885742188 1013.96484375 649.885742188 1013.96484375 756.498046875 928.294921875 c 0,30,31
 995.015625 735.713867188 995.015625 735.713867188 1219.82617188 745.729492188 c 2,32,-1
 1269.26953125 747.932617188 l 1,33,-1
 1257.33398438 511.747070312 l 1,34,35
 1144.89648438 534.325195312 1144.89648438 534.325195312 944.977539062 504.176757812 c 0,0,1
EndSplineSet
Substitution2: "'fina' Terminal Forms in Arabic lookup 9 subtable" uniFEA2
Substitution2: "'medi' Medial Forms in Arabic lookup 11 subtable" uniFEA4
Substitution2: "'init' Initial Forms in Arabic lookup 13 subtable" uniFEA3
EndChar

StartChar: uni062F
Encoding: 1583 1583 25
Width: 1028
VWidth: 2304
GlyphClass: 2
Flags: W
AnchorPoint: "Anchor-10" 336.572 1221.08 basechar 0
AnchorPoint: "Anchor-7" 384.008 -220.888 basechar 0
LayerCount: 2
Fore
SplineSet
936.833007812 333.1953125 m 4,0,1
 936.833007812 194.756835938 936.833007812 194.756835938 817.392578125 98.2568359375 c 132,-1,2
 697.951171875 1.7568359375 697.951171875 1.7568359375 466.375976562 1.7568359375 c 132,-1,3
 234.80078125 1.7568359375 234.80078125 1.7568359375 128.0859375 23.18359375 c 6,4,-1
 91.9443359375 30.439453125 l 5,5,-1
 91.9443359375 301.86328125 l 5,6,-1
 144.220703125 293.297851562 l 6,7,8
 284.958007812 270.237304688 284.958007812 270.237304688 420.038085938 270.237304688 c 132,-1,9
 555.118164062 270.237304688 555.118164062 270.237304688 614.8984375 299.465820312 c 132,-1,10
 674.677734375 328.694335938 674.677734375 328.694335938 674.677734375 362.71484375 c 132,-1,11
 674.677734375 396.736328125 674.677734375 396.736328125 631.317382812 461.776367188 c 4,12,13
 535.083984375 606.127929688 535.083984375 606.127929688 323.952148438 755.022460938 c 6,14,-1
 288.291015625 780.171875 l 5,15,-1
 432.802734375 999.0859375 l 5,16,-1
 470.856445312 971.568359375 l 6,17,18
 936.833007812 634.608398438 936.833007812 634.608398438 936.833007812 333.1953125 c 4,0,1
EndSplineSet
Substitution2: "'fina' Terminal Forms in Arabic lookup 9 subtable" uniFEAA
EndChar

StartChar: uni0631
Encoding: 1585 1585 27
Width: 858
VWidth: 2304
GlyphClass: 2
Flags: W
AnchorPoint: "Anchor-10" 368.707 884.056 basechar 0
AnchorPoint: "Anchor-7" 309.188 -618.857 basechar 0
LayerCount: 2
Fore
SplineSet
433.774414062 563.870117188 m 1,0,-1
 674.107421875 657.506835938 l 1,1,2
 768 438 768 438 766.547851562 210.760742188 c 0,3,4
 764 -96 764 -96 591.06640625 -270.666992188 c 0,5,6
 418.363246702 -445.631995959 418.363246702 -445.631995959 87.5947265625 -479.88671875 c 2,7,-1
 46.0751953125 -484.186523438 l 1,8,-1
 0.310546875 -230.232421875 l 1,9,-1
 49.5078125 -226.01171875 l 2,10,11
 401 -196 401 -196 482.48828125 31.107421875 c 0,12,13
 513 116 513 116 513.157226562 206.850585938 c 4,14,15
 514 393 514 393 433.774414062 563.870117188 c 1,0,-1
EndSplineSet
PairPos2: "'kern' Horizontal Kerning lookup 15-2" uniFB90 dx=-190 dy=0 dh=-190 dv=0 dx=0 dy=0 dh=0 dv=0
PairPos2: "'kern' Horizontal Kerning lookup 15-2" uniFB8E dx=-190 dy=0 dh=-190 dv=0 dx=0 dy=0 dh=0 dv=0
PairPos2: "'kern' Horizontal Kerning lookup 15-2" uni06A9 dx=-190 dy=0 dh=-190 dv=0 dx=0 dy=0 dh=0 dv=0
PairPos2: "'kern' Horizontal Kerning lookup 15-2" uni064A dx=-50 dy=0 dh=-50 dv=0 dx=0 dy=0 dh=0 dv=0
PairPos2: "'kern' Horizontal Kerning lookup 15-2" afii57414 dx=-50 dy=0 dh=-50 dv=0 dx=0 dy=0 dh=0 dv=0
PairPos2: "'kern' Horizontal Kerning lookup 15-2" uni0649 dx=-50 dy=0 dh=-50 dv=0 dx=0 dy=0 dh=0 dv=0
PairPos2: "'kern' Horizontal Kerning lookup 15-2" uni0648 dx=-50 dy=0 dh=-50 dv=0 dx=0 dy=0 dh=0 dv=0
PairPos2: "'kern' Horizontal Kerning lookup 15-2" afii57412 dx=-50 dy=0 dh=-50 dv=0 dx=0 dy=0 dh=0 dv=0
PairPos2: "'kern' Horizontal Kerning lookup 15-2" uniFEEB dx=-150 dy=0 dh=-150 dv=0 dx=0 dy=0 dh=0 dv=0
PairPos2: "'kern' Horizontal Kerning lookup 15-2" uni0647 dx=-150 dy=0 dh=-150 dv=0 dx=0 dy=0 dh=0 dv=0
PairPos2: "'kern' Horizontal Kerning lookup 15-2" uni0646 dx=-50 dy=0 dh=-50 dv=0 dx=0 dy=0 dh=0 dv=0
PairPos2: "'kern' Horizontal Kerning lookup 15-2" uniFEE3 dx=-150 dy=0 dh=-150 dv=0 dx=0 dy=0 dh=0 dv=0
PairPos2: "'kern' Horizontal Kerning lookup 15-2" uni0645 dx=-150 dy=0 dh=-150 dv=0 dx=0 dy=0 dh=0 dv=0
PairPos2: "'kern' Horizontal Kerning lookup 15-2" uniFEFB dx=-150 dy=0 dh=-150 dv=0 dx=0 dy=0 dh=0 dv=0
PairPos2: "'kern' Horizontal Kerning lookup 15-2" uniFEDF dx=-150 dy=0 dh=-150 dv=0 dx=0 dy=0 dh=0 dv=0
PairPos2: "'kern' Horizontal Kerning lookup 15-2" uni0644 dx=-50 dy=0 dh=-50 dv=0 dx=0 dy=0 dh=0 dv=0
PairPos2: "'kern' Horizontal Kerning lookup 15-2" uniFEDB dx=-190 dy=0 dh=-190 dv=0 dx=0 dy=0 dh=0 dv=0
PairPos2: "'kern' Horizontal Kerning lookup 15-2" uni0643 dx=-150 dy=0 dh=-150 dv=0 dx=0 dy=0 dh=0 dv=0
PairPos2: "'kern' Horizontal Kerning lookup 15-2" uniFED7 dx=-150 dy=0 dh=-150 dv=0 dx=0 dy=0 dh=0 dv=0
PairPos2: "'kern' Horizontal Kerning lookup 15-2" uni0642 dx=-50 dy=0 dh=-50 dv=0 dx=0 dy=0 dh=0 dv=0
PairPos2: "'kern' Horizontal Kerning lookup 15-2" uniFED3 dx=-150 dy=0 dh=-150 dv=0 dx=0 dy=0 dh=0 dv=0
PairPos2: "'kern' Horizontal Kerning lookup 15-2" uni0641 dx=-150 dy=0 dh=-150 dv=0 dx=0 dy=0 dh=0 dv=0
PairPos2: "'kern' Horizontal Kerning lookup 15-2" uniFECF dx=-150 dy=0 dh=-150 dv=0 dx=0 dy=0 dh=0 dv=0
PairPos2: "'kern' Horizontal Kerning lookup 15-2" uniFECB dx=-150 dy=0 dh=-150 dv=0 dx=0 dy=0 dh=0 dv=0
PairPos2: "'kern' Horizontal Kerning lookup 15-2" uniFEC7 dx=-150 dy=0 dh=-150 dv=0 dx=0 dy=0 dh=0 dv=0
PairPos2: "'kern' Horizontal Kerning lookup 15-2" uni0638 dx=-150 dy=0 dh=-150 dv=0 dx=0 dy=0 dh=0 dv=0
PairPos2: "'kern' Horizontal Kerning lookup 15-2" uniFEC3 dx=-150 dy=0 dh=-150 dv=0 dx=0 dy=0 dh=0 dv=0
PairPos2: "'kern' Horizontal Kerning lookup 15-2" uni0637 dx=-150 dy=0 dh=-150 dv=0 dx=0 dy=0 dh=0 dv=0
PairPos2: "'kern' Horizontal Kerning lookup 15-2" uniFEBF dx=-150 dy=0 dh=-150 dv=0 dx=0 dy=0 dh=0 dv=0
PairPos2: "'kern' Horizontal Kerning lookup 15-2" uni0636 dx=-150 dy=0 dh=-150 dv=0 dx=0 dy=0 dh=0 dv=0
PairPos2: "'kern' Horizontal Kerning lookup 15-2" uniFEBB dx=-150 dy=0 dh=-150 dv=0 dx=0 dy=0 dh=0 dv=0
PairPos2: "'kern' Horizontal Kerning lookup 15-2" uni0635 dx=-150 dy=0 dh=-150 dv=0 dx=0 dy=0 dh=0 dv=0
PairPos2: "'kern' Horizontal Kerning lookup 15-2" uniFEB7 dx=-150 dy=0 dh=-150 dv=0 dx=0 dy=0 dh=0 dv=0
PairPos2: "'kern' Horizontal Kerning lookup 15-2" uni0634 dx=-150 dy=0 dh=-150 dv=0 dx=0 dy=0 dh=0 dv=0
PairPos2: "'kern' Horizontal Kerning lookup 15-2" uniFEB3 dx=-150 dy=0 dh=-150 dv=0 dx=0 dy=0 dh=0 dv=0
PairPos2: "'kern' Horizontal Kerning lookup 15-2" uni0633 dx=-150 dy=0 dh=-150 dv=0 dx=0 dy=0 dh=0 dv=0
PairPos2: "'kern' Horizontal Kerning lookup 15-2" uni0632 dx=-50 dy=0 dh=-50 dv=0 dx=0 dy=0 dh=0 dv=0
PairPos2: "'kern' Horizontal Kerning lookup 15-2" uni0631 dx=-50 dy=0 dh=-50 dv=0 dx=0 dy=0 dh=0 dv=0
PairPos2: "'kern' Horizontal Kerning lookup 15-2" uni0630 dx=-150 dy=0 dh=-150 dv=0 dx=0 dy=0 dh=0 dv=0
PairPos2: "'kern' Horizontal Kerning lookup 15-2" uni062F dx=-150 dy=0 dh=-150 dv=0 dx=0 dy=0 dh=0 dv=0
PairPos2: "'kern' Horizontal Kerning lookup 15-2" uniFEA7 dx=-150 dy=0 dh=-150 dv=0 dx=0 dy=0 dh=0 dv=0
PairPos2: "'kern' Horizontal Kerning lookup 15-2" uniFEA3 dx=-150 dy=0 dh=-150 dv=0 dx=0 dy=0 dh=0 dv=0
PairPos2: "'kern' Horizontal Kerning lookup 15-2" uniFE9F dx=-150 dy=0 dh=-150 dv=0 dx=0 dy=0 dh=0 dv=0
PairPos2: "'kern' Horizontal Kerning lookup 15-2" uniFE9B dx=-150 dy=0 dh=-150 dv=0 dx=0 dy=0 dh=0 dv=0
PairPos2: "'kern' Horizontal Kerning lookup 15-2" uni062B dx=-150 dy=0 dh=-150 dv=0 dx=0 dy=0 dh=0 dv=0
PairPos2: "'kern' Horizontal Kerning lookup 15-2" uniFE97 dx=-150 dy=0 dh=-150 dv=0 dx=0 dy=0 dh=0 dv=0
PairPos2: "'kern' Horizontal Kerning lookup 15-2" uni062A dx=-150 dy=0 dh=-150 dv=0 dx=0 dy=0 dh=0 dv=0
PairPos2: "'kern' Horizontal Kerning lookup 15-2" uni0629 dx=-150 dy=0 dh=-150 dv=0 dx=0 dy=0 dh=0 dv=0
PairPos2: "'kern' Horizontal Kerning lookup 15-2" uniFE91 dx=-50 dy=0 dh=-50 dv=0 dx=0 dy=0 dh=0 dv=0
PairPos2: "'kern' Horizontal Kerning lookup 15-2" uni0628 dx=-150 dy=0 dh=-150 dv=0 dx=0 dy=0 dh=0 dv=0
PairPos2: "'kern' Horizontal Kerning lookup 15-2" uni0627 dx=-190 dy=0 dh=-190 dv=0 dx=0 dy=0 dh=0 dv=0
PairPos2: "'kern' Horizontal Kerning lookup 15-2" uni0623 dx=-190 dy=0 dh=-190 dv=0 dx=0 dy=0 dh=0 dv=0
PairPos2: "'kern' Horizontal Kerning lookup 15-2" uni0622 dx=-190 dy=0 dh=-190 dv=0 dx=0 dy=0 dh=0 dv=0
PairPos2: "'kern' Horizontal Kerning lookup 15-2" uni0621 dx=-150 dy=0 dh=-150 dv=0 dx=0 dy=0 dh=0 dv=0
PairPos2: "'kern' Horizontal Kerning lookup 15-2" uniFB94 dx=-190 dy=0 dh=-190 dv=0 dx=0 dy=0 dh=0 dv=0
PairPos2: "'kern' Horizontal Kerning lookup 15-2" uniFB92 dx=-190 dy=0 dh=-190 dv=0 dx=0 dy=0 dh=0 dv=0
PairPos2: "'kern' Horizontal Kerning lookup 15-2" afii57509 dx=-190 dy=0 dh=-190 dv=0 dx=0 dy=0 dh=0 dv=0
PairPos2: "'kern' Horizontal Kerning lookup 15-2" afii57508 dx=-50 dy=0 dh=-50 dv=0 dx=0 dy=0 dh=0 dv=0
PairPos2: "'kern' Horizontal Kerning lookup 15-2" afii57506 dx=-150 dy=0 dh=-150 dv=0 dx=0 dy=0 dh=0 dv=0
PairPos2: "'kern' Horizontal Kerning lookup 15-2" afii57440 dx=-150 dy=0 dh=-150 dv=0 dx=0 dy=0 dh=0 dv=0
PairPos2: "'kern' Horizontal Kerning lookup 15-2" uniFE8B dx=-150 dy=0 dh=-150 dv=0 dx=0 dy=0 dh=0 dv=0
Substitution2: "'fina' Terminal Forms in Arabic lookup 9 subtable" uniFEAE
EndChar

StartChar: uni0633
Encoding: 1587 1587 29
Width: 2578
VWidth: 2304
GlyphClass: 2
Flags: W
AnchorPoint: "Anchor-10" 614.171 940.184 basechar 0
AnchorPoint: "Anchor-7" 444.72 -658.84 basechar 0
LayerCount: 2
Fore
SplineSet
2091.29101562 265.744140625 m 4,0,1
 2244.40136719 265.744140625 2244.40136719 265.744140625 2244.33300781 475.515625 c 4,2,3
 2244.29785156 583.016601562 2244.29785156 583.016601562 2183.20898438 693.680664062 c 6,4,-1
 2159.12988281 737.30078125 l 5,5,-1
 2379.18164062 831.040039062 l 5,6,-1
 2399.46191406 797.911132812 l 6,7,8
 2481.25585938 664.29296875 2481.25585938 664.29296875 2487.32421875 444.110351562 c 132,-1,9
 2493.39160156 223.926757812 2493.39160156 223.926757812 2343.14355469 89.5556640625 c 4,10,11
 2241.57226562 -0.064453125 2241.57226562 -0.064453125 2086.45019531 0.0068359375 c 132,-1,12
 1931.328125 0.0771484375 1931.328125 0.0771484375 1856.12597656 95.740234375 c 5,13,14
 1776.03710938 0 1776.03710938 0 1587.26367188 0 c 4,15,16
 1492.48730469 0 1492.48730469 0 1437.37792969 19.298828125 c 5,17,18
 1396.24121094 -299.381835938 1396.24121094 -299.381835938 1118.33007812 -408.180664062 c 4,19,20
 982.28125 -461.443359375 982.28125 -461.443359375 794.31640625 -461.4296875 c 4,21,22
 451.673828125 -461.451171875 451.673828125 -461.451171875 271.421875 -309.51953125 c 132,-1,23
 91.1689453125 -157.586914062 91.1689453125 -157.586914062 91.251953125 138.345703125 c 4,24,25
 91.08984375 305.368164062 91.08984375 305.368164062 168.728515625 529.5 c 6,26,-1
 181.764648438 567.130859375 l 5,27,-1
 434.348632812 512.87109375 l 5,28,-1
 417.83984375 464.891601562 l 6,29,30
 352.629882812 275.368164062 352.629882812 275.368164062 352.685546875 118.431640625 c 132,-1,31
 352.740234375 -38.5048828125 352.740234375 -38.5048828125 453.501953125 -120.1640625 c 132,-1,32
 554.262695312 -201.823242188 554.262695312 -201.823242188 776.6171875 -201.82421875 c 132,-1,33
 998.970703125 -201.82421875 998.970703125 -201.82421875 1101.03710938 -122.76171875 c 132,-1,34
 1203.10253906 -43.69921875 1203.10253906 -43.69921875 1203.0859375 122.990234375 c 132,-1,35
 1203.06933594 289.680664062 1203.06933594 289.680664062 1139.421875 535.587890625 c 6,36,-1
 1127.65917969 581.034179688 l 5,37,-1
 1374.79003906 633.963867188 l 5,38,-1
 1383.03710938 588.20703125 l 6,39,40
 1417.06933594 399.38671875 1417.06933594 399.38671875 1431.79882812 356.337890625 c 4,41,42
 1463.484375 263.727539062 1463.484375 263.727539062 1578.1015625 264.098632812 c 132,-1,43
 1692.71875 264.470703125 1692.71875 264.470703125 1722.59472656 319.58984375 c 4,44,45
 1731.85351562 336.671875 1731.85351562 336.671875 1734.81738281 363.119140625 c 6,46,-1
 1766.80371094 645.978515625 l 5,47,-1
 1962.49707031 645.978515625 l 5,48,-1
 1991.44921875 386.3984375 l 6,49,50
 1999.14257812 318.41015625 1999.14257812 318.41015625 2023.50976562 292.077148438 c 132,-1,51
 2047.87792969 265.744140625 2047.87792969 265.744140625 2091.29101562 265.744140625 c 4,0,1
EndSplineSet
Substitution2: "'fina' Terminal Forms in Arabic lookup 9 subtable" uniFEB2
Substitution2: "'medi' Medial Forms in Arabic lookup 11 subtable" uniFEB4
Substitution2: "'init' Initial Forms in Arabic lookup 13 subtable" uniFEB3
EndChar

StartChar: uni0635
Encoding: 1589 1589 31
Width: 2532
VWidth: 2304
GlyphClass: 2
Flags: W
AnchorPoint: "Anchor-10" 544.823 940.184 basechar 0
AnchorPoint: "Anchor-7" 492.023 -663.88 basechar 0
LayerCount: 2
Fore
SplineSet
1660.03417969 281.940429688 m 5,0,-1
 1765.48535156 281.940429688 l 6,1,2
 2009.74804688 282.291015625 2009.74804688 282.291015625 2067.62402344 289.404296875 c 4,3,4
 2190.74804688 305.291015625 2190.74804688 305.291015625 2190.859375 462.844726562 c 4,5,6
 2190.74804688 518.291015625 2190.74804688 518.291015625 2164.74804688 556.791015625 c 4,7,8
 2135.74804688 599.291015625 2135.74804688 599.291015625 2073.06933594 599.159179688 c 4,9,10
 1914.74804688 599.291015625 1914.74804688 599.291015625 1660.03417969 281.940429688 c 5,0,-1
1442.61328125 394.3984375 m 5,11,12
 1768.30175781 859.985351562 1768.30175781 859.985351562 2066.27246094 860.291992188 c 5,13,14
 2257.63769531 858.3828125 2257.63769531 858.3828125 2351.01757812 744.54296875 c 132,-1,15
 2444.39648438 630.704101562 2444.39648438 630.704101562 2440.38476562 425.969726562 c 4,16,17
 2435.48144531 179.493164062 2435.48144531 179.493164062 2268.02246094 89.232421875 c 132,-1,18
 2100.5625 -1.0283203125 2100.5625 -1.0283203125 1735.37011719 -0.7958984375 c 6,19,-1
 1734.19628906 -0.794921875 l 6,20,21
 1730.19628906 -0.8447265625 1730.19628906 -0.8447265625 1711.68164062 -0.70703125 c 6,22,-1
 1616.55761719 0.0009765625 l 6,23,24
 1499.52148438 0.79296875 1499.52148438 0.79296875 1435.16699219 44.7177734375 c 5,25,26
 1393.04980469 -461.2265625 1393.04980469 -461.2265625 769.111328125 -461.212890625 c 4,27,28
 452.091796875 -461.206054688 452.091796875 -461.206054688 271.87109375 -309.30078125 c 132,-1,29
 91.6513671875 -157.395507812 91.6513671875 -157.395507812 91.251953125 138.290039062 c 4,30,31
 90.98828125 305.553710938 90.98828125 305.553710938 168.73828125 529.528320312 c 6,32,-1
 181.790039062 567.125976562 l 5,33,-1
 434.272460938 512.887695312 l 5,34,-1
 417.862304688 464.956054688 l 6,35,36
 352.9921875 275.487304688 352.9921875 275.487304688 352.953125 118.59375 c 132,-1,37
 352.9140625 -38.298828125 352.9140625 -38.298828125 454.673828125 -120.149414062 c 132,-1,38
 556.432617188 -202 556.432617188 -202 779.130859375 -202 c 132,-1,39
 1001.82910156 -202 1001.82910156 -202 1102.89746094 -122.954101562 c 132,-1,40
 1203.96679688 -43.9072265625 1203.96679688 -43.9072265625 1203.00097656 126.084960938 c 132,-1,41
 1202.03613281 296.077148438 1202.03613281 296.077148438 1139.44921875 535.481445312 c 6,42,-1
 1127.546875 581.009765625 l 5,43,-1
 1376.63476562 634.359375 l 5,44,-1
 1383.16015625 586.231445312 l 6,45,46
 1403.56347656 435.779296875 1403.56347656 435.779296875 1442.61328125 394.3984375 c 5,11,12
EndSplineSet
Substitution2: "'fina' Terminal Forms in Arabic lookup 9 subtable" uniFEBA
Substitution2: "'medi' Medial Forms in Arabic lookup 11 subtable" uniFEBC
Substitution2: "'init' Initial Forms in Arabic lookup 13 subtable" uniFEBB
EndChar

StartChar: uni0637
Encoding: 1591 1591 33
Width: 1444
VWidth: 2304
GlyphClass: 2
Flags: W
AnchorPoint: "Anchor-10" 401.345 1551.01 basechar 0
AnchorPoint: "Anchor-7" 666.137 -259.96 basechar 0
LayerCount: 2
Fore
SplineSet
572.286132812 282.649414062 m 1,0,-1
 677.737304688 282.649414062 l 2,1,2
 922 283 922 283 979.875976562 290.11328125 c 0,3,4
 1103 306 1103 306 1103.11132812 463.553710938 c 0,5,6
 1103 519 1103 519 1077 557.5 c 0,7,8
 1048 600 1048 600 985.3203125 599.868164062 c 0,9,10
 827 600 827 600 572.286132812 282.649414062 c 1,0,-1
669.299804688 -0.17578125 m 1,11,-1
 630.528320312 0 l 1,12,-1
 91.095703125 0 l 1,13,-1
 91.095703125 270.86328125 l 1,14,-1
 262.15234375 271.004882812 l 1,15,16
 282 303 282 303 303.521484375 333.99609375 c 1,17,-1
 303.521484375 1470.9765625 l 1,18,-1
 561.74609375 1470.9765625 l 1,19,-1
 561.74609375 644.388671875 l 1,20,21
 783 861 783 861 982.536132812 861 c 0,22,23
 1229.16308594 861 1229.16308594 861 1314.12890625 661.362304688 c 0,24,25
 1352.77246094 570.252929688 1352.77246094 570.252929688 1352.77246094 441.768554688 c 0,26,27
 1352.77246094 182.018554688 1352.77246094 182.018554688 1182.52539062 90.9208984375 c 128,-1,28
 1012.27832031 -0.17578125 1012.27832031 -0.17578125 669.299804688 -0.17578125 c 1,11,-1
EndSplineSet
Substitution2: "'fina' Terminal Forms in Arabic lookup 9 subtable" uniFEC2
Substitution2: "'medi' Medial Forms in Arabic lookup 11 subtable" uniFEC4
Substitution2: "'init' Initial Forms in Arabic lookup 13 subtable" uniFEC3
EndChar

StartChar: uni0639
Encoding: 1593 1593 35
Width: 1305
VWidth: 2304
GlyphClass: 2
Flags: W
AnchorPoint: "Anchor-10" 502.264 1511.49 basechar 0
AnchorPoint: "Anchor-7" 396.568 -725.402 basechar 0
LayerCount: 2
Fore
SplineSet
91.3203125 35.7607421875 m 0,0,1
 91.98046875 335.11328125 91.98046875 335.11328125 376.225585938 535.763671875 c 1,2,3
 201.42578125 645.298828125 201.42578125 645.298828125 199.930664062 840.170898438 c 0,4,5
 197.764648438 1066.37695312 197.764648438 1066.37695312 370.600585938 1177.81152344 c 0,6,7
 478.15234375 1247.27148438 478.15234375 1247.27148438 620.711914062 1243.99609375 c 128,-1,8
 763.270507812 1240.72167969 763.270507812 1240.72167969 924.2578125 1159.4140625 c 2,9,-1
 957.73046875 1142.5078125 l 1,10,-1
 891.465820312 917.45703125 l 1,11,-1
 843.873046875 940.064453125 l 2,12,13
 702.04296875 1007.43652344 702.04296875 1007.43652344 615.826171875 1002.87207031 c 128,-1,14
 529.609375 998.307617188 529.609375 998.307617188 489.763671875 960.83203125 c 128,-1,15
 449.916992188 923.357421875 449.916992188 923.357421875 449.859375 844.038085938 c 0,16,17
 449.963867188 746.872070312 449.963867188 746.872070312 594.060546875 670.663085938 c 1,18,19
 799.124023438 743.060546875 799.124023438 743.060546875 1028.23925781 748.259765625 c 2,20,-1
 1072.73339844 749.26953125 l 1,21,-1
 1080.77441406 511.168945312 l 1,22,-1
 1034.3125 511.084960938 l 2,23,24
 990.322265625 511.00390625 990.322265625 511.00390625 881.801757812 495.159179688 c 128,-1,25
 773.282226562 479.313476562 773.282226562 479.313476562 659.334960938 430.629882812 c 128,-1,26
 545.387695312 381.946289062 545.387695312 381.946289062 466.987304688 306.080078125 c 0,27,28
 340.018554688 184.774414062 340.018554688 184.774414062 340.16796875 31.9091796875 c 0,29,30
 340.021484375 -171.65625 340.021484375 -171.65625 529.861328125 -248.354492188 c 0,31,32
 627.719726562 -287.981445312 627.719726562 -287.981445312 810.038085938 -287.982421875 c 128,-1,33
 992.356445312 -287.983398438 992.356445312 -287.983398438 1101.64453125 -249.51171875 c 2,34,-1
 1146.66210938 -233.665039062 l 1,35,-1
 1213.52441406 -466.44140625 l 1,36,-1
 1176.56054688 -481.883789062 l 2,37,38
 1047.04003906 -535.9921875 1047.04003906 -535.9921875 774.500976562 -536.225585938 c 0,39,40
 435.8671875 -535.98828125 435.8671875 -535.98828125 263.419921875 -382.581054688 c 128,-1,41
 90.9736328125 -229.173828125 90.9736328125 -229.173828125 91.3203125 35.7607421875 c 0,0,1
EndSplineSet
Substitution2: "'fina' Terminal Forms in Arabic lookup 9 subtable" uniFECA
Substitution2: "'medi' Medial Forms in Arabic lookup 11 subtable" uniFECC
Substitution2: "'init' Initial Forms in Arabic lookup 13 subtable" uniFECB
EndChar

StartChar: afii57440
Encoding: 1600 1600 37
Width: 695
VWidth: 2304
GlyphClass: 2
Flags: W
AnchorPoint: "Anchor-10" 329.976 1392.15 basechar 0
AnchorPoint: "Anchor-7" 329.976 -76.7441 basechar 0
LayerCount: 2
Fore
SplineSet
-58.87109375 0 m 1,0,-1
 -58.87109375 271.001953125 l 1,1,-1
 718.822265625 271.001953125 l 1,2,-1
 718.822265625 0 l 1,3,-1
 -58.87109375 0 l 1,0,-1
EndSplineSet
EndChar

StartChar: uni0643
Encoding: 1603 1603 40
Width: 1887
VWidth: 2304
GlyphClass: 2
Flags: W
AnchorPoint: "Anchor-10" 623.544 1430.17 basechar 0
AnchorPoint: "Anchor-7" 528.504 -215.08 basechar 0
LayerCount: 2
Fore
SplineSet
1140.55664062 1342.69824219 m 1,0,-1
 1140.55664062 1195.56347656 l 1,1,-1
 1098.78710938 1192.55664062 l 2,2,3
 983.319919347 1184.2415647 983.319919347 1184.2415647 933.387695312 1142.01074219 c 0,4,5
 923.612304688 1133.74316406 923.612304688 1133.74316406 923.612304688 1116.92888226 c 128,-1,6
 923.612304688 1100.11460047 923.612304688 1100.11460047 929.909179688 1096.35856976 c 0,7,8
 952.616492174 1082.81385704 952.616492174 1082.81385704 990.038714837 1077.30976055 c 0,9,10
 1150.35644531 1053.73007461 1150.35644531 1053.73007461 1150.35644531 931.522460938 c 0,11,12
 1150.35644531 803.043344989 1150.35644531 803.043344989 1028.55469844 734.164170163 c 128,-1,13
 906.752951578 665.284995336 906.752951578 665.284995336 709.961914062 698.541015625 c 2,14,-1
 672.459960938 704.87890625 l 1,15,-1
 672.459960938 858.557617188 l 1,16,-1
 723.387695312 851.7890625 l 2,17,18
 785.450198966 843.54296875 785.450198966 843.54296875 857.157942039 843.54296875 c 128,-1,19
 928.865685113 843.54296875 928.865685113 843.54296875 979.708984375 880.322265625 c 0,20,21
 1000.13964844 895.100110486 1000.13964844 895.100110486 1000.13964844 903.741949774 c 128,-1,22
 1000.13964844 912.383789062 1000.13964844 912.383789062 999.583984375 914.881835938 c 0,23,24
 995.254167907 934.346986222 995.254167907 934.346986222 961.678353484 939.752594674 c 128,-1,25
 928.102539062 945.158203125 928.102539062 945.158203125 920.53515625 946.734375 c 0,26,27
 769.805592289 978.129073187 769.805592289 978.129073187 773.030273438 1126.47949219 c 0,28,29
 775.698484906 1234.35204765 775.698484906 1234.35204765 872.261377801 1283.24635389 c 128,-1,30
 968.824270695 1332.14066013 968.824270695 1332.14066013 1092.79589844 1339.76171875 c 2,31,-1
 1140.55664062 1342.69824219 l 1,0,-1
388.030273438 383.854492188 m 0,32,33
 447 321 447 321 536.203125 299.758789062 c 0,34,35
 626 278 626 278 840.356933593 271.888183594 c 0,36,37
 1055 266 1055 266 1180.70019531 278.653320312 c 0,38,39
 1478.67365657 309.96570637 1478.67365657 309.96570637 1493.71582031 453.4921875 c 2,40,-1
 1499.60644531 509.698242188 l 1,41,-1
 1499.60644531 1471.4140625 l 5,42,-1
 1762.04492188 1471.4140625 l 5,43,-1
 1762.04492188 475.875976562 l 2,44,45
 1762 341 1762 341 1714.8334961 264.16960075 c 0,46,47
 1551 -2 1551 -2 952.677734375 2.1142578125 c 0,48,49
 587 5 587 5 454.813476562 42.2060546875 c 0,50,51
 86.6678344053 148.384214493 86.6678344053 148.384214493 47.3857421875 519.219726562 c 0,52,53
 33.0925220156 651.146022613 33.0925220156 651.146022613 86.388671875 800.262695312 c 2,54,-1
 99.4296875 836.75 l 1,55,-1
 347.759765625 787.901367188 l 1,56,-1
 337.189453125 742.529296875 l 2,57,58
 305 605 305 605 313.4765625 552 c 0,59,60
 329 446 329 446 388.030273438 383.854492188 c 0,32,33
EndSplineSet
Substitution2: "'fina' Terminal Forms in Arabic lookup 9 subtable" uniFEDA
Substitution2: "'medi' Medial Forms in Arabic lookup 11 subtable" uniFEDC
Substitution2: "'init' Initial Forms in Arabic lookup 13 subtable" uniFEDB
EndChar

StartChar: uni0644
Encoding: 1604 1604 41
Width: 1404
VWidth: 2304
GlyphClass: 2
Flags: W
AnchorPoint: "Anchor-10" 499.595 1175.67 basechar 0
AnchorPoint: "Anchor-7" 465.95 -499.267 basechar 0
LayerCount: 2
Fore
SplineSet
1018 192 m 6,0,-1
 1021.33691406 517.775390625 l 5,1,-1
 1021.33691406 1470.37597656 l 5,2,-1
 1278.50585938 1470.37597656 l 5,3,-1
 1278.50585938 517.635742188 l 6,4,5
 1279 312 1279 312 1275.95214844 242.228515625 c 4,6,7
 1267 -37 1267 -37 1121 -199.5 c 132,-1,8
 975 -362 975 -362 699.075195312 -362.018554688 c 132,-1,9
 423 -362 423 -362 257 -217 c 132,-1,10
 91 -72 91 -72 91.3095703125 208.557617188 c 4,11,12
 90.9990234375 351.416992188 90.9990234375 351.416992188 141.032226562 480.366210938 c 6,13,-1
 154.795898438 515.838867188 l 5,14,-1
 396.635742188 466.025390625 l 5,15,-1
 382.908203125 419.15625 l 6,16,17
 292 108 292 108 436.49609375 -28.119140625 c 4,18,19
 515 -102 515 -102 695.454101562 -101.743164062 c 4,20,21
 935 -102 935 -102 993.975585938 72.955078125 c 4,22,23
 1017 141 1017 141 1018 192 c 6,0,-1
EndSplineSet
Substitution2: "'fina' Terminal Forms in Arabic lookup 9 subtable" uniFEDE
Substitution2: "'medi' Medial Forms in Arabic lookup 11 subtable" uniFEE0
Substitution2: "'init' Initial Forms in Arabic lookup 13 subtable" uniFEDF
EndChar

StartChar: uni0645
Encoding: 1605 1605 42
Width: 1148
VWidth: 2304
GlyphClass: 2
Flags: W
AnchorPoint: "Anchor-10" 655.344 1126.9 basechar 0
AnchorPoint: "Anchor-7" 215.13 -612.613 basechar 0
LayerCount: 2
Fore
SplineSet
543.760742188 401.90625 m 5,0,1
 804.000976562 332.919921875 804.000976562 332.919921875 814.268554688 367.211914062 c 132,-1,2
 824.536132812 401.50390625 824.536132812 401.50390625 786.40625 486.661132812 c 4,3,4
 726.890625 617.239257812 726.890625 617.239257812 646.094726562 615.655273438 c 4,5,6
 608.125 614.952148438 608.125 614.952148438 575.94140625 575.219726562 c 132,-1,7
 543.7578125 535.487304688 543.7578125 535.487304688 543.799804688 441.487304688 c 4,8,9
 543.7734375 422.166992188 543.7734375 422.166992188 543.760742188 401.90625 c 5,0,1
91.095703125 -78.328125 m 6,10,11
 91.095703125 317.368164062 91.095703125 317.368164062 293.502929688 385.237304688 c 5,12,13
 296.756835938 668.352539062 296.756835938 668.352539062 438.659179688 791.76171875 c 4,14,15
 524.362304688 866.641601562 524.362304688 866.641601562 651.662109375 866.578125 c 132,-1,16
 778.962890625 866.515625 778.962890625 866.515625 878.836914062 760.625976562 c 132,-1,17
 978.709960938 654.736328125 978.709960938 654.736328125 1040.17773438 456.114257812 c 4,18,19
 1085.52832031 309.28515625 1085.52832031 309.28515625 1014.265625 211.934570312 c 4,20,21
 967.592773438 148.17578125 967.592773438 148.17578125 885.6484375 123.262695312 c 132,-1,22
 803.704101562 98.349609375 803.704101562 98.349609375 707.244140625 112.600585938 c 132,-1,23
 610.784179688 126.8515625 610.784179688 126.8515625 530.364257812 144.220703125 c 132,-1,24
 449.944335938 161.58984375 449.944335938 161.58984375 422.676757812 148.655273438 c 132,-1,25
 395.408203125 135.719726562 395.408203125 135.719726562 371.900390625 89.7802734375 c 132,-1,26
 348.391601562 43.841796875 348.391601562 43.841796875 348.391601562 -93.1123046875 c 6,27,-1
 348.391601562 -515.328125 l 5,28,-1
 91.095703125 -515.328125 l 5,29,-1
 91.095703125 -78.328125 l 6,10,11
EndSplineSet
Substitution2: "'init' Initial Forms in Arabic lookup 13 subtable" uniFEE3
Substitution2: "'medi' Medial Forms in Arabic lookup 11 subtable" uniFEE4
Substitution2: "'fina' Terminal Forms in Arabic lookup 9 subtable" uniFEE2
EndChar

StartChar: uni0647
Encoding: 1607 1607 44
Width: 1027
VWidth: 2304
GlyphClass: 2
Flags: W
AnchorPoint: "Anchor-10" 477.328 1260.24 basechar 0
AnchorPoint: "Anchor-7" 370.608 -213.031 basechar 0
LayerCount: 2
Fore
SplineSet
637.50390625 278.635742188 m 4,0,1
 669 306 669 306 668.416015625 371.23828125 c 4,2,3
 669 487 669 487 510.275390625 621.622070312 c 5,4,5
 358 481 358 481 358 376 c 4,6,7
 358 289 358 289 423 264 c 4,8,9
 453 252 453 252 530.200195312 251.359375 c 4,10,11
 606 251 606 251 637.50390625 278.635742188 c 4,0,1
91.310546875 360.720703125 m 4,12,13
 91.072265625 510.92578125 91.072265625 510.92578125 257.23828125 710.774414062 c 5,14,-1
 332.338867188 795.939453125 l 5,15,-1
 278.508789062 841.325195312 l 5,16,-1
 439.452148438 1024.14453125 l 5,17,-1
 472.537109375 1000.4609375 l 6,18,19
 734.696289062 812.796875 734.696289062 812.796875 870.290039062 565.47265625 c 4,20,21
 935.57421875 446.358398438 935.57421875 446.358398438 935.124023438 343.888671875 c 4,22,23
 935.590820312 166.857421875 935.590820312 166.857421875 762.745117188 61.95703125 c 4,24,25
 668.422851562 4.1845703125 668.422851562 4.1845703125 528.51171875 4.189453125 c 132,-1,26
 388.6015625 4.1943359375 388.6015625 4.1943359375 292.712890625 51.544921875 c 132,-1,27
 196.823242188 98.89453125 196.823242188 98.89453125 144.006835938 178.080078125 c 132,-1,28
 91.1904296875 257.265625 91.1904296875 257.265625 91.310546875 360.720703125 c 4,12,13
EndSplineSet
Substitution2: "'fina' Terminal Forms in Arabic lookup 9 subtable" uniFEEA
Substitution2: "'medi' Medial Forms in Arabic lookup 11 subtable" uniFEEC
Substitution2: "'init' Initial Forms in Arabic lookup 13 subtable" uniFEEB
EndChar

StartChar: uni0648
Encoding: 1608 1608 45
Width: 926
VWidth: 2304
GlyphClass: 2
Flags: W
AnchorPoint: "Anchor-10" 403.282 1136.25 basechar 0
AnchorPoint: "Anchor-7" 366.01 -603.819 basechar 0
LayerCount: 2
Fore
SplineSet
577.524414062 261.266601562 m 1,0,1
 570.34375 526.833984375 570.34375 526.833984375 469.3046875 526.463867188 c 0,2,3
 432.686523438 526.62890625 432.686523438 526.62890625 394.676757812 473.999023438 c 128,-1,4
 356.666992188 421.370117188 356.666992188 421.370117188 356.624023438 361.095703125 c 128,-1,5
 356.581054688 300.821289062 356.581054688 300.821289062 384.2578125 278.221679688 c 0,6,7
 428.081054688 242.434570312 428.081054688 242.434570312 577.524414062 261.266601562 c 1,0,1
833.490234375 193.907226562 m 0,8,9
 824.411132812 -138.98046875 824.411132812 -138.98046875 625.546875 -316.567382812 c 0,10,11
 472.708007812 -453.049804688 472.708007812 -453.049804688 156.750976562 -480.11328125 c 2,12,-1
 115.803710938 -483.620117188 l 1,13,-1
 70.9609375 -231.536132812 l 1,14,-1
 119.646484375 -226.991210938 l 2,15,16
 439.787109375 -197.107421875 439.787109375 -197.107421875 541.008789062 3.9248046875 c 1,17,18
 489.875 -0.9228515625 489.875 -0.9228515625 452.223632812 -0.7041015625 c 0,19,20
 262.8046875 1.271484375 262.8046875 1.271484375 170.3671875 126.46875 c 0,21,22
 41.2275390625 301.87890625 41.2275390625 301.87890625 157.740234375 555.171875 c 128,-1,23
 274.25390625 808.463867188 274.25390625 808.463867188 461.274414062 808.463867188 c 128,-1,24
 648.294921875 808.463867188 648.294921875 808.463867188 766.509765625 587.336914062 c 0,25,26
 832.491210938 464.390625 832.491210938 464.390625 834.177734375 293.483398438 c 0,27,28
 834.715820312 238.879882812 834.715820312 238.879882812 833.490234375 193.907226562 c 0,8,9
EndSplineSet
Substitution2: "'fina' Terminal Forms in Arabic lookup 9 subtable" uniFEEE
EndChar

StartChar: uni0649
Encoding: 1609 1609 46
Width: 1499
VWidth: 2304
GlyphClass: 2
Flags: W
AnchorPoint: "Anchor-10" 491.198 1042.79 basechar 0
AnchorPoint: "Anchor-7" 469.763 -610.706 basechar 0
LayerCount: 2
Fore
SplineSet
1001.63183594 -142.990234375 m 4,0,1
 1149.84082031 -80.884765625 1149.84082031 -80.884765625 1148.34472656 11.64453125 c 4,2,3
 1147.29882812 23.8544921875 1147.29882812 23.8544921875 1104.79589844 24.5302734375 c 4,4,5
 678.237304688 31.306640625 678.237304688 31.306640625 762.8515625 411.552734375 c 4,6,7
 803.829101562 596.743164062 803.829101562 596.743164062 954.114257812 702.827148438 c 132,-1,8
 1104.40039062 808.911132812 1104.40039062 808.911132812 1325.0546875 779.916015625 c 6,9,-1
 1367.54003906 774.333984375 l 5,10,-1
 1347.54003906 530.112304688 l 5,11,-1
 1281.55078125 530.112304688 l 6,12,13
 1083.12304688 529.874023438 1083.12304688 529.874023438 1024.62304688 401.422851562 c 4,14,15
 1010.87402344 371.235351562 1010.87402344 371.235351562 1010.88476562 338.471679688 c 132,-1,16
 1010.89648438 305.708007812 1010.89648438 305.708007812 1023.31933594 299.415039062 c 4,17,18
 1052.9140625 284.423828125 1052.9140625 284.423828125 1165.95410156 277.8828125 c 132,-1,19
 1278.99414062 271.341796875 1278.99414062 271.341796875 1343.76269531 214.814453125 c 132,-1,20
 1408.53027344 158.288085938 1408.53027344 158.288085938 1407.78320312 58.7041015625 c 4,21,22
 1406.90820312 -130.916015625 1406.90820312 -130.916015625 1247.64648438 -276.5078125 c 4,23,24
 1055.13378906 -452.291992188 1055.13378906 -452.291992188 722.149414062 -446.739257812 c 4,25,26
 272.12109375 -439.52734375 272.12109375 -439.52734375 143.532226562 -139.389648438 c 4,27,28
 92.0087890625 -18.1884765625 92.0087890625 -18.1884765625 91.8671875 132.1640625 c 4,29,30
 92.0068359375 359.302734375 92.0068359375 359.302734375 222.598632812 603.193359375 c 6,31,-1
 241.5546875 638.595703125 l 5,32,-1
 481.752929688 543.20703125 l 5,33,-1
 456.009765625 498.1875 l 6,34,35
 356.94140625 324.940429688 356.94140625 324.940429688 355.584960938 124.775390625 c 132,-1,36
 354.228515625 -75.3896484375 354.228515625 -75.3896484375 509.275390625 -144.32421875 c 4,37,38
 589.55078125 -180.016601562 589.55078125 -180.016601562 742.963867188 -183.890625 c 132,-1,39
 896.376953125 -187.765625 896.376953125 -187.765625 1001.63183594 -142.990234375 c 4,0,1
EndSplineSet
Substitution2: "'fina' Terminal Forms in Arabic lookup 9 subtable" uniFEF0
Substitution2: "'medi' Medial Forms in Arabic lookup 11 subtable" uniFBE9
Substitution2: "'init' Initial Forms in Arabic lookup 13 subtable" uniFBE8
EndChar

StartChar: uni064B
Encoding: 1611 1611 48
Width: -27
VWidth: 2304
GlyphClass: 4
Flags: W
AnchorPoint: "Anchor-10" 569.519 1095.82 mark 0
AnchorPoint: "Anchor-9" 569.519 1095.82 mark 0
AnchorPoint: "Anchor-1" 569.519 1660.78 basemark 0
AnchorPoint: "Anchor-1" 569.519 1095.82 mark 0
LayerCount: 2
Fore
SplineSet
297.015625 1050.56542969 m 1,0,-1
 297.015625 1176.10839844 l 1,1,-1
 810.6796875 1386.14941406 l 1,2,-1
 810.6796875 1260.60546875 l 1,3,-1
 297.015625 1050.56542969 l 1,0,-1
297.015625 1324.06933594 m 1,4,-1
 297.015625 1449.61230469 l 1,5,-1
 810.6796875 1659.65332031 l 1,6,-1
 810.6796875 1534.109375 l 1,7,-1
 297.015625 1324.06933594 l 1,4,-1
EndSplineSet
EndChar

StartChar: uni064C
Encoding: 1612 1612 49
Width: -27
VWidth: 2304
GlyphClass: 4
Flags: W
AnchorPoint: "Anchor-10" 576.432 1216.14 mark 0
AnchorPoint: "Anchor-9" 576.432 1216.14 mark 0
AnchorPoint: "Anchor-1" 567.983 1908.35 basemark 0
AnchorPoint: "Anchor-1" 576.432 1216.14 mark 0
LayerCount: 2
Fore
SplineSet
700.032226562 1556.78613281 m 1,0,-1
 713.090820312 1587.25292969 l 2,1,2
 724.69140625 1614.32226562 724.69140625 1614.32226562 724.69140625 1645.08105469 c 0,3,4
 724.69140625 1691.87109375 724.69140625 1691.87109375 699.024414062 1712.99609375 c 0,5,6
 674.907226562 1732.86425781 674.907226562 1732.86425781 645.94921875 1732.86425781 c 0,7,8
 630.403320312 1732.86425781 630.403320312 1732.86425781 618.047851562 1729.42675781 c 128,-1,9
 605.692382812 1725.98925781 605.692382812 1725.98925781 596.6953125 1719.01171875 c 128,-1,10
 587.638671875 1712.19433594 587.638671875 1712.19433594 581.564453125 1703.10058594 c 128,-1,11
 575.490234375 1694.00683594 575.490234375 1694.00683594 572.477539062 1682.88085938 c 128,-1,12
 569.463867188 1671.75488281 569.463867188 1671.75488281 569.463867188 1658.640625 c 0,13,14
 569.463867188 1604.83203125 569.463867188 1604.83203125 631.455078125 1580.03515625 c 0,15,16
 654.739257812 1570.72265625 654.739257812 1570.72265625 684.799804688 1561.47753906 c 2,17,-1
 700.032226562 1556.78613281 l 1,0,-1
592.768554688 1364.57714844 m 0,18,19
 636.735351562 1407.35742188 636.735351562 1407.35742188 661.806640625 1457.5 c 2,20,-1
 672.059570312 1478.00976562 l 1,21,-1
 649.625 1482.76953125 l 2,22,23
 632.247070312 1486.453125 632.247070312 1486.453125 617.672851562 1491.64648438 c 128,-1,24
 603.098632812 1496.84082031 603.098632812 1496.84082031 591.17578125 1503.58203125 c 0,25,26
 534.416015625 1533.53808594 534.416015625 1533.53808594 506.392578125 1572.21484375 c 128,-1,27
 478.369140625 1610.89160156 478.369140625 1610.89160156 478.369140625 1658.640625 c 0,28,29
 478.369140625 1671.46386719 478.369140625 1671.46386719 479.809570312 1683.51953125 c 128,-1,30
 481.25 1695.57617188 481.25 1695.57617188 484.1328125 1706.88378906 c 128,-1,31
 487.016601562 1718.19238281 487.016601562 1718.19238281 491.348632812 1728.75195312 c 128,-1,32
 495.681640625 1739.31152344 495.681640625 1739.31152344 501.459960938 1749.1328125 c 128,-1,33
 507.239257812 1758.95410156 507.239257812 1758.95410156 514.4765625 1768.04589844 c 128,-1,34
 521.712890625 1777.13769531 521.712890625 1777.13769531 530.400390625 1785.50097656 c 128,-1,35
 539.087890625 1793.86425781 539.087890625 1793.86425781 549.241210938 1801.51660156 c 0,36,37
 562.47265625 1811.43945312 562.47265625 1811.43945312 585.58203125 1816.56933594 c 128,-1,38
 608.69140625 1821.69921875 608.69140625 1821.69921875 641.4296875 1821.69921875 c 0,39,40
 716.702148438 1821.69921875 716.702148438 1821.69921875 756.689453125 1782.70605469 c 0,41,42
 813.52734375 1726.91113281 813.52734375 1726.91113281 813.52734375 1645.08105469 c 0,43,44
 813.52734375 1603.7421875 813.52734375 1603.7421875 800.791015625 1563.41113281 c 2,45,-1
 793.893554688 1541.57617188 l 1,46,-1
 816.765625 1540.37597656 l 2,47,48
 827.411132812 1539.81347656 827.411132812 1539.81347656 836.866210938 1539.52441406 c 128,-1,49
 846.26171875 1539.23730469 846.26171875 1539.23730469 854.4921875 1539.21972656 c 0,50,51
 866.70703125 1538.56542969 866.70703125 1538.56542969 880.192382812 1538.27148438 c 1,52,-1
 880.192382812 1449.32617188 l 1,53,54
 841.655273438 1449.65332031 841.655273438 1449.65332031 823.913085938 1451.43261719 c 2,55,-1
 752.243164062 1458.32324219 l 1,56,-1
 747.151367188 1446.38964844 l 2,57,58
 719.048828125 1380.45214844 719.048828125 1380.45214844 636.646484375 1294.7578125 c 0,59,60
 591.15625 1248.73339844 591.15625 1248.73339844 543.787109375 1225.83300781 c 128,-1,61
 496.41796875 1202.93164062 496.41796875 1202.93164062 447.08203125 1202.93164062 c 0,62,63
 330.686523438 1202.93164062 330.686523438 1202.93164062 271.645507812 1365.30664062 c 0,64,65
 257.052734375 1405.18261719 257.052734375 1405.18261719 255.86328125 1515.49121094 c 1,66,-1
 322.107421875 1515.49121094 l 1,67,68
 323.283203125 1416.96777344 323.283203125 1416.96777344 337.235351562 1386.73925781 c 0,69,70
 381.55859375 1291.76660156 381.55859375 1291.76660156 447.08203125 1291.76660156 c 0,71,72
 470.693359375 1291.76660156 470.693359375 1291.76660156 494.833007812 1299.94921875 c 128,-1,73
 518.971679688 1308.13085938 518.971679688 1308.13085938 543.392578125 1324.27832031 c 128,-1,74
 567.8125 1340.42578125 567.8125 1340.42578125 592.768554688 1364.57714844 c 0,18,19
854.4921875 1539.21972656 m 2,75,-1
 854.595703125 1539.21972656 l 1,76,-1
 854.388671875 1539.22558594 l 2,77,78
 854.440429688 1539.22265625 854.440429688 1539.22265625 854.4921875 1539.21972656 c 2,75,-1
EndSplineSet
EndChar

StartChar: uni064D
Encoding: 1613 1613 50
Width: -27
VWidth: 2304
GlyphClass: 4
Flags: W
AnchorPoint: "Anchor-7" 552.623 75.7275 mark 0
AnchorPoint: "Anchor-6" 552.623 75.7275 mark 0
AnchorPoint: "Anchor-0" 569.519 -468.112 basemark 0
AnchorPoint: "Anchor-0" 552.623 75.7275 mark 0
LayerCount: 2
Fore
SplineSet
302.295898438 -522.875 m 1,0,-1
 302.295898438 -397.331054688 l 1,1,-1
 815.959960938 -187.291015625 l 1,2,-1
 815.959960938 -312.833984375 l 1,3,-1
 302.295898438 -522.875 l 1,0,-1
302.295898438 -249.37109375 m 1,4,-1
 302.295898438 -123.827148438 l 1,5,-1
 815.959960938 86.212890625 l 1,6,-1
 815.959960938 -39.330078125 l 1,7,-1
 302.295898438 -249.37109375 l 1,4,-1
EndSplineSet
EndChar

StartChar: uni064E
Encoding: 1614 1614 51
Width: -27
VWidth: 2304
GlyphClass: 4
Flags: W
AnchorPoint: "Anchor-10" 537.839 1347.15 mark 0
AnchorPoint: "Anchor-9" 537.839 1347.15 mark 0
AnchorPoint: "Anchor-1" 537.839 1686.13 basemark 0
AnchorPoint: "Anchor-1" 537.839 1347.15 mark 0
LayerCount: 2
Fore
SplineSet
266.391601562 1323.01269531 m 1,0,-1
 266.391601562 1448.55664062 l 1,1,-1
 780.055664062 1658.59765625 l 1,2,-1
 780.055664062 1533.05371094 l 1,3,-1
 266.391601562 1323.01269531 l 1,0,-1
EndSplineSet
EndChar

StartChar: uni064F
Encoding: 1615 1615 52
Width: -27
VWidth: 2304
GlyphClass: 4
Flags: W
AnchorPoint: "Anchor-10" 552.623 1269.01 mark 0
AnchorPoint: "Anchor-9" 552.623 1269.01 mark 0
AnchorPoint: "Anchor-1" 569.519 1923.2 basemark 0
AnchorPoint: "Anchor-1" 552.623 1269.01 mark 0
LayerCount: 2
Fore
SplineSet
619.689453125 1506.61621094 m 2,0,1
 615.990234375 1507.4375 615.990234375 1507.4375 609.010742188 1510.47851562 c 128,-1,2
 602.03125 1513.52050781 602.03125 1513.52050781 592.368164062 1518.60644531 c 0,3,4
 535.817382812 1547.92773438 535.817382812 1547.92773438 507.861328125 1586.5703125 c 128,-1,5
 479.904296875 1625.21289062 479.904296875 1625.21289062 479.904296875 1673.48730469 c 0,6,7
 479.904296875 1718.35253906 479.904296875 1718.35253906 497.575195312 1753.96972656 c 128,-1,8
 515.245117188 1789.58789062 515.245117188 1789.58789062 550.776367188 1816.36425781 c 0,9,10
 559.560546875 1822.95214844 559.560546875 1822.95214844 572.619140625 1827.42285156 c 128,-1,11
 585.678710938 1831.89257812 585.678710938 1831.89257812 603.380859375 1834.21972656 c 128,-1,12
 621.083007812 1836.546875 621.083007812 1836.546875 642.963867188 1836.546875 c 0,13,14
 718.237304688 1836.546875 718.237304688 1836.546875 758.224609375 1797.55371094 c 0,15,16
 815.0625 1741.75878906 815.0625 1741.75878906 815.0625 1659.92871094 c 0,17,18
 815.0625 1643.28515625 815.0625 1643.28515625 811.3125 1622.82128906 c 128,-1,19
 807.561523438 1602.35742188 807.561523438 1602.35742188 800.043945312 1578.18945312 c 2,20,-1
 793.313476562 1556.56152344 l 1,21,-1
 815.931640625 1555.22460938 l 2,22,23
 835.426757812 1554.08007812 835.426757812 1554.08007812 856.026367188 1553.50878906 c 0,24,25
 859.791992188 1553.40429688 859.791992188 1553.40429688 864.375 1553.30859375 c 128,-1,26
 868.958984375 1553.21191406 868.958984375 1553.21191406 873.368164062 1553.14160156 c 128,-1,27
 877.77734375 1553.07128906 877.77734375 1553.07128906 881.727539062 1553.02832031 c 2,28,-1
 881.727539062 1464.22460938 l 1,29,30
 852.024414062 1464.63085938 852.024414062 1464.63085938 824.930664062 1466.32128906 c 0,31,32
 791.372070312 1468.56445312 791.372070312 1468.56445312 760.102539062 1471.91503906 c 2,33,-1
 749.735351562 1473.01953125 l 1,34,-1
 743.7265625 1464.49707031 l 2,35,36
 720.490234375 1431.53125 720.490234375 1431.53125 690.17578125 1403.671875 c 128,-1,37
 659.860351562 1375.8125 659.860351562 1375.8125 622.377929688 1352.99902344 c 0,38,39
 413.525390625 1224.5703125 413.525390625 1224.5703125 257.310546875 1217.0625 c 1,40,-1
 257.310546875 1305.80371094 l 1,41,42
 426.13671875 1312.29785156 426.13671875 1312.29785156 579.314453125 1432.41015625 c 0,43,44
 606.327148438 1453.55273438 606.327148438 1453.55273438 628.69921875 1477.09472656 c 2,45,-1
 650.280273438 1499.82519531 l 1,46,-1
 619.689453125 1506.61621094 l 2,0,1
701.567382812 1571.63476562 m 1,47,-1
 714.625976562 1602.09960938 l 2,48,49
 718.4921875 1611.12207031 718.4921875 1611.12207031 721.071289062 1620.56738281 c 128,-1,50
 723.651367188 1630.01367188 723.651367188 1630.01367188 724.939453125 1639.85449219 c 128,-1,51
 726.227539062 1649.69433594 726.227539062 1649.69433594 726.227539062 1659.92871094 c 0,52,53
 726.227539062 1683.08398438 726.227539062 1683.08398438 719.858398438 1700.14355469 c 128,-1,54
 713.489257812 1717.203125 713.489257812 1717.203125 700.560546875 1727.84375 c 0,55,56
 688.5703125 1737.72167969 688.5703125 1737.72167969 675.252929688 1742.71679688 c 128,-1,57
 661.935546875 1747.71191406 661.935546875 1747.71191406 647.483398438 1747.71191406 c 0,58,59
 616.09375 1747.71191406 616.09375 1747.71191406 598.23046875 1733.859375 c 0,60,61
 571 1713.36230469 571 1713.36230469 571 1673.48730469 c 0,62,63
 571 1619.6796875 571 1619.6796875 632.990234375 1594.88183594 c 0,64,65
 656.2734375 1585.5703125 656.2734375 1585.5703125 686.336914062 1576.32421875 c 2,66,-1
 701.567382812 1571.63476562 l 1,47,-1
EndSplineSet
EndChar

StartChar: uni0650
Encoding: 1616 1616 53
Width: -27
VWidth: 2304
GlyphClass: 4
Flags: W
AnchorPoint: "Anchor-7" 529.391 -17.2002 mark 0
AnchorPoint: "Anchor-6" 529.391 -17.2002 mark 0
AnchorPoint: "Anchor-0" 579.023 -332.944 basemark 0
AnchorPoint: "Anchor-0" 529.391 -17.2002 mark 0
LayerCount: 2
Fore
SplineSet
312.856445312 -360.250976562 m 1,0,-1
 312.856445312 -234.70703125 l 1,1,-1
 826.51953125 -24.6669921875 l 1,2,-1
 826.51953125 -150.2109375 l 1,3,-1
 312.856445312 -360.250976562 l 1,0,-1
EndSplineSet
EndChar

StartChar: uni0651
Encoding: 1617 1617 54
Width: -27
VWidth: 2304
GlyphClass: 4
Flags: W
AnchorPoint: "Anchor-10" 569.519 1386.22 mark 0
AnchorPoint: "Anchor-9" 569.519 1386.22 mark 0
AnchorPoint: "Anchor-1" 556.847 1916.34 basemark 0
AnchorPoint: "Anchor-1" 569.519 1386.22 mark 0
LayerCount: 2
Fore
SplineSet
524.23828125 1412.6796875 m 0,0,1
 511.267578125 1397.52539062 511.267578125 1397.52539062 492.297851562 1387.37402344 c 128,-1,2
 473.327148438 1377.22265625 473.327148438 1377.22265625 447.943359375 1372.04980469 c 128,-1,3
 422.559570312 1366.87597656 422.559570312 1366.87597656 390.991210938 1366.87597656 c 0,4,5
 350.9765625 1366.87597656 350.9765625 1366.87597656 320.918945312 1382.61230469 c 128,-1,6
 290.860351562 1398.34765625 290.860351562 1398.34765625 270.239257812 1430.02929688 c 0,7,8
 258.418945312 1448.10839844 258.418945312 1448.10839844 250.532226562 1469.109375 c 128,-1,9
 242.645507812 1490.11132812 242.645507812 1490.11132812 238.678710938 1514.17480469 c 128,-1,10
 234.711914062 1538.23828125 234.711914062 1538.23828125 234.711914062 1565.29003906 c 0,11,12
 234.711914062 1607.76367188 234.711914062 1607.76367188 250.220703125 1709.64746094 c 1,13,-1
 325.333984375 1709.64746094 l 1,14,15
 314.5078125 1582.54101562 314.5078125 1582.54101562 314.5078125 1537.64355469 c 0,16,17
 314.5078125 1501.47753906 314.5078125 1501.47753906 339.356445312 1482.76855469 c 128,-1,18
 364.205078125 1464.05957031 364.205078125 1464.05957031 412.096679688 1463.10449219 c 0,19,20
 465.709960938 1462.05175781 465.709960938 1462.05175781 495.20703125 1496.50097656 c 128,-1,21
 524.704101562 1530.95117188 524.704101562 1530.95117188 529.606445312 1599.29003906 c 0,22,23
 529.890625 1603.21875 529.890625 1603.21875 530.140625 1609.52539062 c 128,-1,24
 530.390625 1615.83105469 530.390625 1615.83105469 530.60546875 1624.45214844 c 128,-1,25
 530.819335938 1633.07226562 530.819335938 1633.07226562 530.999023438 1643.99121094 c 128,-1,26
 531.178710938 1654.90917969 531.178710938 1654.90917969 531.322265625 1668.08398438 c 128,-1,27
 531.465820312 1681.25976562 531.465820312 1681.25976562 531.57421875 1696.65136719 c 128,-1,28
 531.682617188 1712.04394531 531.682617188 1712.04394531 531.754882812 1729.63574219 c 128,-1,29
 531.827148438 1747.22753906 531.827148438 1747.22753906 531.86328125 1766.95605469 c 1,30,-1
 606.123046875 1766.95605469 l 1,31,32
 608.287109375 1730.99804688 608.287109375 1730.99804688 608.287109375 1682.99121094 c 0,33,34
 608.287109375 1525.40722656 608.287109375 1525.40722656 731.086914062 1525.40722656 c 0,35,36
 824.530273438 1525.40722656 824.530273438 1525.40722656 824.530273438 1684.60742188 c 0,37,38
 824.530273438 1796.18164062 824.530273438 1796.18164062 813.649414062 1861.22558594 c 1,39,-1
 893.26953125 1861.22558594 l 1,40,41
 904.326171875 1782.49414062 904.326171875 1782.49414062 904.326171875 1665.3984375 c 0,42,43
 904.326171875 1593.28808594 904.326171875 1593.28808594 875.723632812 1536.0234375 c 0,44,45
 867.88671875 1520.48339844 867.88671875 1520.48339844 859.268554688 1507.33203125 c 128,-1,46
 850.649414062 1494.18164062 850.649414062 1494.18164062 841.266601562 1483.44433594 c 128,-1,47
 831.883789062 1472.70703125 831.883789062 1472.70703125 821.736328125 1464.32617188 c 128,-1,48
 811.588867188 1455.9453125 811.588867188 1455.9453125 800.654296875 1449.91699219 c 128,-1,49
 789.720703125 1443.88867188 789.720703125 1443.88867188 778.041992188 1440.18457031 c 128,-1,50
 766.364257812 1436.48046875 766.364257812 1436.48046875 753.87890625 1435.06933594 c 0,51,52
 719.969726562 1431.31640625 719.969726562 1431.31640625 692.541992188 1436.55078125 c 128,-1,53
 665.11328125 1441.78613281 665.11328125 1441.78613281 643.969726562 1455.91210938 c 0,54,55
 582.505859375 1496.41210938 582.505859375 1496.41210938 580.870117188 1507.79980469 c 2,56,-1
 577.407226562 1531.921875 l 1,57,-1
 572.977539062 1507.95898438 l 2,58,59
 570.723632812 1495.765625 570.723632812 1495.765625 566.565429688 1483.73242188 c 128,-1,60
 562.407226562 1471.69921875 562.407226562 1471.69921875 556.327148438 1459.79003906 c 128,-1,61
 550.247070312 1447.88183594 550.247070312 1447.88183594 542.22265625 1436.09863281 c 128,-1,62
 534.198242188 1424.31640625 534.198242188 1424.31640625 524.23828125 1412.6796875 c 0,0,1
EndSplineSet
EndChar

StartChar: uni0652
Encoding: 1618 1618 55
Width: -27
VWidth: 2304
GlyphClass: 4
Flags: W
AnchorPoint: "Anchor-10" 588.527 1187.7 mark 0
AnchorPoint: "Anchor-9" 588.527 1187.7 mark 0
AnchorPoint: "Anchor-1" 573.743 1793.31 basemark 0
AnchorPoint: "Anchor-1" 588.527 1187.7 mark 0
LayerCount: 2
Fore
SplineSet
707.344726562 1457.10253906 m 0,0,1
 707.344726562 1505.78320312 707.344726562 1505.78320312 673.299804688 1539.828125 c 128,-1,2
 639.258789062 1573.87304688 639.258789062 1573.87304688 589.884765625 1573.87304688 c 0,3,4
 539.819335938 1573.87304688 539.819335938 1573.87304688 506.124023438 1540.17675781 c 128,-1,5
 472.427734375 1506.48046875 472.427734375 1506.48046875 472.427734375 1457.10253906 c 0,6,7
 472.427734375 1407.03808594 472.427734375 1407.03808594 506.124023438 1373.34277344 c 128,-1,8
 539.819335938 1339.64648438 539.819335938 1339.64648438 589.884765625 1339.64648438 c 0,9,10
 639.260742188 1339.64648438 639.260742188 1339.64648438 673.299804688 1373.69140625 c 128,-1,11
 707.344726562 1407.73535156 707.344726562 1407.73535156 707.344726562 1457.10253906 c 0,0,1
779.41796875 1457.21875 m 128,-1,13
 779.41796875 1377.71484375 779.41796875 1377.71484375 724.528320312 1322.47265625 c 128,-1,14
 669.673828125 1267.2734375 669.673828125 1267.2734375 590.212890625 1267.2734375 c 0,15,16
 563.655273438 1267.2734375 563.655273438 1267.2734375 539.920898438 1273.39550781 c 128,-1,17
 516.186523438 1279.51757812 516.186523438 1279.51757812 495.203125 1291.77636719 c 128,-1,18
 474.220703125 1304.03515625 474.220703125 1304.03515625 455.8984375 1322.47265625 c 0,19,20
 428.400390625 1350.14648438 428.400390625 1350.14648438 414.704101562 1383.76074219 c 128,-1,21
 401.006835938 1417.375 401.006835938 1417.375 401.006835938 1457.21875 c 0,22,23
 401.006835938 1536.6953125 401.006835938 1536.6953125 455.8671875 1591.56542969 c 128,-1,24
 510.7265625 1646.42480469 510.7265625 1646.42480469 590.212890625 1646.42480469 c 128,-1,25
 669.698242188 1646.42480469 669.698242188 1646.42480469 724.556640625 1591.56542969 c 128,-1,12
 779.41796875 1536.6953125 779.41796875 1536.6953125 779.41796875 1457.21875 c 128,-1,13
EndSplineSet
EndChar

StartChar: uni0653
Encoding: 1619 1619 56
Width: -27
VWidth: 2304
GlyphClass: 4
Flags: W
AnchorPoint: "Anchor-10" 396.335 1331.33 mark 0
AnchorPoint: "Anchor-9" 396.335 1331.33 mark 0
AnchorPoint: "Anchor-1" 396.335 1686.13 basemark 0
AnchorPoint: "Anchor-1" 396.335 1331.33 mark 0
LayerCount: 2
Fore
SplineSet
326.030273438 1392.10058594 m 6,0,1
 227.744814209 1405.67477409 227.744814209 1405.67477409 137.327148438 1290.44042969 c 5,2,-1
 63.8740234375 1411.43652344 l 1,3,4
 160.989762738 1556.98465733 160.989762738 1556.98465733 313.749023438 1537.59472656 c 2,5,-1
 476 1517 l 2,6,7
 590 1503 590 1503 666.477539062 1576.17285156 c 1,8,-1
 716.08203125 1450.40039062 l 5,9,10
 630.09151671 1350.10673904 630.09151671 1350.10673904 481.22265625 1370.66699219 c 6,11,-1
 326.030273438 1392.10058594 l 6,0,1
EndSplineSet
EndChar

StartChar: uni0657
Encoding: 1623 1623 59
Width: -27
VWidth: 2304
GlyphClass: 4
Flags: W
AnchorPoint: "Anchor-10" 569.519 1347.15 mark 0
AnchorPoint: "Anchor-9" 569.519 1347.15 mark 0
AnchorPoint: "Anchor-1" 569.519 2081.6 basemark 0
AnchorPoint: "Anchor-1" 569.519 1347.15 mark 0
LayerCount: 2
Fore
SplineSet
519.344726562 1761.47558594 m 2,0,1
 527.203125 1759.73339844 527.203125 1759.73339844 546.668945312 1749.48535156 c 0,2,3
 603.219726562 1720.1640625 603.219726562 1720.1640625 631.176757812 1681.52148438 c 128,-1,4
 659.133789062 1642.87890625 659.133789062 1642.87890625 659.133789062 1594.60449219 c 0,5,6
 659.133789062 1564.68457031 659.133789062 1564.68457031 651.282226562 1538.8984375 c 128,-1,7
 643.4296875 1513.11230469 643.4296875 1513.11230469 627.692382812 1491.34863281 c 128,-1,8
 611.954101562 1469.58398438 611.954101562 1469.58398438 588.259765625 1451.72851562 c 0,9,10
 575.029296875 1441.80566406 575.029296875 1441.80566406 551.920898438 1436.67480469 c 128,-1,11
 528.811523438 1431.54492188 528.811523438 1431.54492188 496.07421875 1431.54492188 c 0,12,13
 420.80078125 1431.54492188 420.80078125 1431.54492188 380.8125 1470.53808594 c 0,14,15
 323.975585938 1526.33398438 323.975585938 1526.33398438 323.975585938 1608.16308594 c 0,16,17
 323.975585938 1641.6328125 323.975585938 1641.6328125 338.994140625 1689.90234375 c 2,18,-1
 345.723632812 1711.53125 l 1,19,-1
 323.10546875 1712.8671875 l 2,20,21
 303.612304688 1714.01171875 303.612304688 1714.01171875 283.01171875 1714.58300781 c 0,22,23
 277.388671875 1714.73925781 277.388671875 1714.73925781 270.385742188 1714.86816406 c 128,-1,24
 263.383789062 1714.99707031 263.383789062 1714.99707031 257.310546875 1715.06347656 c 1,25,-1
 257.310546875 1803.8671875 l 1,26,27
 286.994140625 1803.4609375 286.994140625 1803.4609375 314.108398438 1801.77148438 c 0,28,29
 347.66796875 1799.52734375 347.66796875 1799.52734375 378.9375 1796.17773438 c 2,30,-1
 389.303710938 1795.07324219 l 1,31,-1
 395.311523438 1803.59472656 l 2,32,33
 418.547851562 1836.56054688 418.547851562 1836.56054688 448.86328125 1864.41992188 c 128,-1,34
 479.178710938 1892.28027344 479.178710938 1892.28027344 516.661132812 1915.09375 c 0,35,36
 725.513671875 2043.52148438 725.513671875 2043.52148438 881.727539062 2051.03027344 c 1,37,-1
 881.727539062 1962.2890625 l 1,38,39
 712.901367188 1955.79394531 712.901367188 1955.79394531 559.72265625 1835.68164062 c 0,40,41
 532.712890625 1814.5390625 532.712890625 1814.5390625 510.338867188 1790.99804688 c 2,42,-1
 488.760742188 1768.28125 l 1,43,-1
 519.344726562 1761.47558594 l 2,0,1
437.471679688 1696.45898438 m 1,44,-1
 424.413085938 1665.99316406 l 2,45,46
 412.810546875 1638.92285156 412.810546875 1638.92285156 412.810546875 1608.16308594 c 0,47,48
 412.810546875 1561.38574219 412.810546875 1561.38574219 438.4765625 1540.24804688 c 0,49,50
 462.595703125 1520.38085938 462.595703125 1520.38085938 491.5546875 1520.38085938 c 0,51,52
 497.739257812 1520.38085938 497.739257812 1520.38085938 503.407226562 1520.91992188 c 128,-1,53
 509.07421875 1521.45898438 509.07421875 1521.45898438 514.283203125 1522.55566406 c 128,-1,54
 519.493164062 1523.65332031 519.493164062 1523.65332031 524.163085938 1525.30371094 c 128,-1,55
 528.833007812 1526.95410156 528.833007812 1526.95410156 533.01171875 1529.19042969 c 128,-1,56
 537.19140625 1531.42773438 537.19140625 1531.42773438 540.80859375 1534.23242188 c 0,57,58
 554.383789062 1544.45214844 554.383789062 1544.45214844 561.2109375 1559.67089844 c 128,-1,59
 568.038085938 1574.88964844 568.038085938 1574.88964844 568.038085938 1594.60449219 c 0,60,61
 568.038085938 1621.453125 568.038085938 1621.453125 552.34765625 1641.20898438 c 128,-1,62
 536.658203125 1660.96484375 536.658203125 1660.96484375 506.048828125 1673.20996094 c 0,63,64
 494.40625 1677.86914062 494.40625 1677.86914062 481.071289062 1682.5078125 c 128,-1,65
 467.735351562 1687.14648438 467.735351562 1687.14648438 452.703125 1691.76757812 c 2,66,-1
 437.471679688 1696.45898438 l 1,44,-1
EndSplineSet
EndChar

StartChar: uni065A
Encoding: 1626 1626 60
Width: 1129
VWidth: 2304
GlyphClass: 4
Flags: W
AnchorPoint: "Anchor-10" 569.519 1347.15 mark 0
AnchorPoint: "Anchor-9" 569.519 1347.15 mark 0
AnchorPoint: "Anchor-1" 567.259 1855.62 basemark 0
AnchorPoint: "Anchor-1" 569.519 1347.15 mark 0
LayerCount: 2
Fore
SplineSet
495.958007812 1434.93457031 m 1,0,-1
 296.83203125 1767.83300781 l 1,1,-1
 413.142578125 1767.83300781 l 1,2,-1
 569.518554688 1533.26269531 l 1,3,-1
 725.89453125 1767.83300781 l 1,4,-1
 842.206054688 1767.83300781 l 1,5,-1
 643.077148438 1434.93457031 l 1,6,-1
 495.958007812 1434.93457031 l 1,0,-1
EndSplineSet
EndChar

StartChar: afii57392
Encoding: 1632 1632 61
Width: 1215
VWidth: 2304
GlyphClass: 2
Flags: W
LayerCount: 2
Fore
SplineSet
528.020507812 553.577148438 m 132,-1,1
 535.065429688 536.512695312 535.065429688 536.512695312 548.736328125 522.762695312 c 132,-1,2
 562.405273438 509.013671875 562.405273438 509.013671875 579.391601562 501.91796875 c 132,-1,3
 596.377929688 494.822265625 596.377929688 494.822265625 620.693359375 494.822265625 c 132,-1,4
 645.009765625 494.822265625 645.009765625 494.822265625 668.077148438 510.624023438 c 4,5,6
 710.354492188 539.584960938 710.354492188 539.584960938 710.354492188 590.012695312 c 4,7,8
 710.354492188 629.340820312 710.354492188 629.340820312 682.594726562 657.264648438 c 132,-1,9
 654.817382812 685.205078125 654.817382812 685.205078125 615.665039062 685.205078125 c 4,10,11
 596.169921875 685.205078125 596.169921875 685.205078125 579.352539062 678.180664062 c 4,12,13
 547.219726562 664.7578125 547.219726562 664.7578125 531.088867188 633.107421875 c 4,14,15
 520.975585938 613.266601562 520.975585938 613.266601562 520.975585938 591.953125 c 132,-1,0
 520.975585938 570.640625 520.975585938 570.640625 528.020507812 553.577148438 c 132,-1,1
325.50390625 474.814453125 m 128,-1,17
 302.837890625 529.717773438 302.837890625 529.717773438 302.837890625 598.291919439 c 128,-1,18
 302.837890625 666.866065439 302.837890625 666.866065439 335.376953125 730.70703125 c 0,19,20
 387.27835895 832.541054916 387.27835895 832.541054916 490.663085938 875.729492188 c 0,21,22
 544.7734375 898.331054688 544.7734375 898.331054688 607.500976562 898.331054688 c 0,23,24
 733.471679688 898.331054688 733.471679688 898.331054688 822.846679688 808.4296875 c 128,-1,25
 912.162109375 718.587890625 912.162109375 718.587890625 912.162109375 592.048828125 c 0,26,27
 912.162109375 429.795072969 912.162109375 429.795072969 776.133789062 336.61328125 c 0,28,29
 701.915601009 285.770507812 701.915601009 285.770507812 623.679968474 285.770507812 c 128,-1,30
 545.444335938 285.770507812 545.444335938 285.770507812 490.791015625 308.6015625 c 128,-1,31
 436.137695312 331.431640625 436.137695312 331.431640625 392.157226562 375.669921875 c 128,-1,16
 348.168945312 419.912109375 348.168945312 419.912109375 325.50390625 474.814453125 c 128,-1,17
EndSplineSet
EndChar

StartChar: afii57393
Encoding: 1633 1633 62
Width: 1215
VWidth: 2304
GlyphClass: 2
Flags: W
LayerCount: 2
Fore
SplineSet
833.483398438 3.9755859375 m 1,0,-1
 575.603515625 3.9755859375 l 1,1,-1
 575.524414062 48.896484375 l 2,2,3
 575 343 575 343 532.511466724 735.394733449 c 132,-1,4
 490.022933448 1127.7894669 490.022933448 1127.7894669 387.022460938 1316.86230469 c 6,5,-1
 361.662109375 1363.41503906 l 5,6,-1
 599.264648438 1446.30566406 l 5,7,-1
 617.895507812 1414.07324219 l 6,8,9
 735.550919294 1212.30588203 735.550919294 1212.30588203 797.325195312 671.9453125 c 4,10,11
 833.308134488 355.288355774 833.308134488 355.288355774 833.4609375 48.998046875 c 2,12,-1
 833.483398438 3.9755859375 l 1,0,-1
EndSplineSet
EndChar

StartChar: afii57394
Encoding: 1634 1634 63
Width: 1215
VWidth: 2304
GlyphClass: 2
Flags: W
LayerCount: 2
Fore
SplineSet
344.827148438 1448.15625 m 5,0,-1
 432.330078125 1173.38378906 l 6,1,2
 459 1090 459 1090 520.653320312 1053.36035156 c 4,3,4
 582 1016 582 1016 691.454101562 1022.58300781 c 4,5,6
 747 1026 747 1026 781.080078125 1056.13476562 c 4,7,8
 815 1086 815 1086 834.139648438 1150.66699219 c 4,9,10
 852.876203992 1214.57772953 852.876203992 1214.57772953 849.35546875 1391.5078125 c 6,11,-1
 848.439453125 1437.54101562 l 5,12,-1
 1106.74511719 1436.76953125 l 5,13,-1
 1108.09472656 1393.29589844 l 6,14,15
 1129 720 1129 720 618.083984375 769.389648438 c 4,16,17
 577 773 577 773 542.254882812 782.098632812 c 5,18,19
 598 523 598 523 607.702148438 227.42578125 c 0,20,21
 611.053293751 114.199343504 611.053293751 114.199343504 606.090820312 45.72265625 c 2,22,-1
 603.065429688 3.9755859375 l 1,23,-1
 348.451171875 3.9755859375 l 1,24,-1
 348.272460938 48.796875 l 2,25,26
 347 274 347 274 300.118164062 636.861328125 c 4,27,28
 252.958637591 997.316145662 252.958637591 997.316145662 109.923828125 1320.28417969 c 6,29,-1
 89.6708984375 1366.01464844 l 5,30,-1
 344.827148438 1448.15625 l 5,0,-1
EndSplineSet
EndChar

StartChar: afii57395
Encoding: 1635 1635 64
Width: 1212
VWidth: 2304
GlyphClass: 2
Flags: W
LayerCount: 2
Fore
SplineSet
677.345703125 829.737304688 m 5,0,1
 598 761 598 761 474.491210938 765.90234375 c 5,2,3
 491 694 491 694 515.079101562 535.807617188 c 4,4,5
 539.222089832 374.516291227 539.222089832 374.516291227 540.032226562 49.087890625 c 2,6,-1
 540.14453125 3.9755859375 l 1,7,-1
 282.12109375 3.9755859375 l 1,8,-1
 282.10546875 48.9599609375 l 2,9,10
 282 254 282 254 241.524414062 605.825195312 c 132,-1,11
 200.942643339 957.497039001 200.942643339 957.497039001 44.029296875 1320.31054688 c 6,12,-1
 24.5224609375 1365.4140625 l 5,13,-1
 276.729492188 1449.07324219 l 5,14,-1
 359.44921875 1148.984375 l 6,15,16
 393 1027 393 1027 473.4453125 1026.31933594 c 4,17,18
 549.690570251 1026.00129074 549.690570251 1026.00129074 549.865234375 1162.70507812 c 6,19,-1
 550.15234375 1387.41601562 l 5,20,-1
 781.39453125 1387.41601562 l 5,21,-1
 781.48046875 1162.50195312 l 6,22,23
 782 1030 782 1030 852.892578125 1029.86816406 c 4,24,25
 930.045402399 1030.00007763 930.045402399 1030.00007763 929.549804688 1163.42382812 c 6,26,-1
 928.532226562 1437.37402344 l 5,27,-1
 1171.88769531 1437.61621094 l 5,28,-1
 1171.66699219 1392.35253906 l 6,29,30
 1170 1043 1170 1043 1106.61523438 908.623046875 c 4,31,32
 1038 764 1038 764 880.932617188 765.55859375 c 4,33,34
 754 767 754 767 677.345703125 829.737304688 c 5,0,1
EndSplineSet
EndChar

StartChar: afii57396
Encoding: 1636 1636 65
Width: 1215
VWidth: 2304
GlyphClass: 2
Flags: W
LayerCount: 2
Fore
SplineSet
428.206054688 723.297851562 m 1,0,1
 243 785 243 785 243.370117188 1009.59765625 c 0,2,3
 243 1192 243 1192 378.873046875 1292.73828125 c 0,4,5
 516.772772997 1393.56502057 516.772772997 1393.56502057 766.146484375 1411.49609375 c 2,6,-1
 814.374023438 1414.96386719 l 1,7,-1
 814.374023438 1152.04296875 l 1,8,-1
 771.938476562 1149.62011719 l 2,9,10
 507 1134 507 1134 507.17578125 1000.60253906 c 0,11,12
 507 959 507 959 536.018554688 940.04296875 c 0,13,14
 615.028380299 888.981658797 615.028380299 888.981658797 794.643554688 914.520507812 c 2,15,-1
 845.399414062 921.737304688 l 1,16,-1
 848.330078125 660.888671875 l 1,17,18
 709 637 709 637 581 557 c 0,19,20
 420 457 420 457 420 384 c 0,21,22
 420 284 420 284 547.422851562 263.673828125 c 0,23,24
 606.348062405 254.796918362 606.348062405 254.796918362 665.846679688 255 c 2,25,-1
 1003.45898438 256.15234375 l 1,26,-1
 1006.54589844 -0.0498046875 l 1,27,-1
 628.134765625 0.3642578125 l 2,28,29
 410 1 410 1 289.806640625 88.39453125 c 0,30,31
 170 176 170 176 170 348 c 0,32,33
 170 517 170 517 428.206054688 723.297851562 c 1,0,1
EndSplineSet
EndChar

StartChar: afii57397
Encoding: 1637 1637 66
Width: 1215
VWidth: 2304
GlyphClass: 2
Flags: W
LayerCount: 2
Fore
SplineSet
592.755859375 904.193359375 m 1,0,1
 414.418945312 745.59375 414.418945312 745.59375 370.486328125 607.1171875 c 0,2,3
 353 552 353 552 352.90234375 509.227539062 c 0,4,5
 353 394 353 394 418.685546875 339.658203125 c 0,6,7
 484 286 484 286 634.49609375 285.817382812 c 0,8,9
 807 286 807 286 858.205078125 404.780273438 c 0,10,11
 873 439 873 439 873.024414062 472.989257812 c 0,12,13
 873 648 873 648 683.69921875 831.201171875 c 0,14,15
 638 875 638 875 592.755859375 904.193359375 c 1,0,1
342.260742188 1083.68457031 m 1,16,-1
 484.098632812 1298.59179688 l 5,17,-1
 519.829101562 1280.64453125 l 2,18,19
 637 1222 637 1222 773.78515625 1101.53710938 c 0,20,21
 1128 792 1128 792 1128.04296875 496.827148438 c 0,22,23
 1128 288 1128 288 1024.73242188 180.103515625 c 0,24,25
 886 34 886 34 611.586914062 34.865234375 c 0,26,27
 248 35 248 35 127.803710938 300.313476562 c 0,28,29
 90 384 90 384 90.21875 487.901367188 c 0,30,31
 92 747 92 747 381.640625 1059.27148438 c 1,32,-1
 342.260742188 1083.68457031 l 1,16,-1
EndSplineSet
EndChar

StartChar: afii57398
Encoding: 1638 1638 67
Width: 1215
VWidth: 2304
GlyphClass: 2
Flags: W
LayerCount: 2
Fore
SplineSet
720.024414062 1116.234375 m 5,0,1
 605 1091 605 1091 442.125 1091.02148438 c 4,2,3
 279.632255665 1090.99995127 279.632255665 1090.99995127 92.6962890625 1145.1328125 c 6,4,-1
 60.2138671875 1154.5390625 l 5,5,-1
 60.2138671875 1426.35253906 l 5,6,-1
 116.663085938 1411.50195312 l 6,7,8
 305 1362 305 1362 502.352539062 1361.99804688 c 132,-1,9
 699.884276869 1361.99999886 699.884276869 1361.99999886 919.577148438 1412.58496094 c 6,10,-1
 974.446289062 1425.21875 l 5,11,-1
 974.674804688 1368.91503906 l 6,12,13
 977 891 977 891 1061.35058594 449.834960938 c 0,14,15
 1096.3588056 269.148107622 1096.3588056 269.148107622 1148.390625 65.09375 c 2,16,-1
 1162.70019531 8.9755859375 l 1,17,-1
 885.056640625 8.9755859375 l 1,18,-1
 876.330078125 42.703125 l 2,19,20
 783 405 783 405 754.112792969 676.40234375 c 0,21,22
 726 948 726 948 720.024414062 1116.234375 c 5,0,1
EndSplineSet
EndChar

StartChar: afii57399
Encoding: 1639 1639 68
Width: 1215
VWidth: 2304
GlyphClass: 2
Flags: W
LayerCount: 2
Fore
SplineSet
476.901367188 50.37890625 m 2,0,1
 464.976818385 199.074522609 464.976818385 199.074522609 349.315429688 570.89453125 c 4,2,3
 179.686121496 1113.00310631 179.686121496 1113.00310631 70.63671875 1322.57226562 c 6,4,-1
 46.5654296875 1368.83203125 l 5,5,-1
 287.029296875 1451.97460938 l 5,6,-1
 304.594726562 1416.4140625 l 6,7,8
 491 1039 491 1039 606.986328125 607.907226562 c 5,9,10
 723.052936971 1039.19670738 723.052936971 1039.19670738 909.380859375 1416.41992188 c 6,11,-1
 926.91015625 1451.90820312 l 5,12,-1
 1168.77441406 1368.82714844 l 5,13,-1
 1144.2421875 1322.34082031 l 6,14,15
 1005.5012478 1058.65435634 1005.5012478 1058.65435634 864.794921875 571.344726562 c 4,16,17
 755.653924233 192.799669476 755.653924233 192.799669476 737.64453125 48.40625 c 2,18,-1
 732.7265625 8.9755859375 l 1,19,-1
 480.221679688 8.9755859375 l 1,20,-1
 476.901367188 50.37890625 l 2,0,1
EndSplineSet
EndChar

StartChar: afii57400
Encoding: 1640 1640 69
Width: 1215
VWidth: 2304
GlyphClass: 2
Flags: W
LayerCount: 2
Fore
SplineSet
480.274414062 1442.41601562 m 5,0,-1
 732.774414062 1442.41601562 l 5,1,-1
 737.696289062 1402.99023438 l 6,2,3
 772 1128 772 1128 883.191894531 767.759277344 c 0,4,5
 993.77256443 408.738412195 993.77256443 408.738412195 1148.31640625 116.387695312 c 2,6,-1
 1174.98046875 65.947265625 l 1,7,-1
 925.72265625 1.9951171875 l 1,8,-1
 909.5546875 34.7265625 l 2,9,10
 721 417 721 417 606.994140625 843.31640625 c 1,11,12
 490.537792463 411.285297126 490.537792463 411.285297126 304.5625 34.802734375 c 2,13,-1
 287.971679688 1.216796875 l 1,14,-1
 41.53515625 71.1298828125 l 1,15,-1
 66.3642578125 119.901367188 l 2,16,17
 185 352 185 352 349.365234375 880.48828125 c 0,18,19
 465.113690124 1253.36624715 465.113690124 1253.36624715 476.954101562 1401.01269531 c 6,20,-1
 480.274414062 1442.41601562 l 5,0,-1
EndSplineSet
EndChar

StartChar: afii57401
Encoding: 1641 1641 70
Width: 1215
VWidth: 2304
GlyphClass: 2
Flags: W
LayerCount: 2
Fore
SplineSet
873.01171875 44.3056640625 m 2,0,1
 756.810631794 572.436684653 756.810631794 572.436684653 753.181640625 593.608398438 c 5,2,3
 558 595 558 595 466.677734375 615.267578125 c 4,4,5
 265 660 265 660 166.591796875 768.478515625 c 4,6,7
 69 876 69 876 68.6796875 1014.02246094 c 4,8,9
 69 1193 69 1193 181.916015625 1306.61523438 c 4,10,11
 332 1458 332 1458 526.38671875 1457.40625 c 4,12,13
 721 1457 721 1457 822.197265625 1359.01269531 c 4,14,15
 960 1225 960 1225 976.239257812 1010.38769531 c 4,16,17
 987 859 987 859 1017.80957031 606.525390625 c 4,18,19
 1028.38450743 521.923866879 1028.38450743 521.923866879 1144.92382812 65.0986328125 c 2,20,-1
 1159.24121094 8.9755859375 l 1,21,-1
 880.78515625 8.9755859375 l 1,22,-1
 873.01171875 44.3056640625 l 2,0,1
722.904296875 852.719726562 m 5,23,-1
 722.904296875 923.694335938 l 6,24,25
 723 1053 723 1053 680.838867188 1114.296875 c 4,26,27
 625 1196 625 1196 516.2734375 1195.78515625 c 4,28,29
 438 1196 438 1196 382.379882812 1142.52441406 c 4,30,31
 327 1089 327 1089 327.04296875 1026.63769531 c 4,32,33
 327 912 327 912 495.559570312 871.608398438 c 4,34,35
 569 854 569 854 722.904296875 852.719726562 c 5,23,-1
EndSplineSet
EndChar

StartChar: afii57381
Encoding: 1642 1642 71
Width: 1215
VWidth: 2304
GlyphClass: 2
Flags: W
LayerCount: 2
Fore
SplineSet
820.814453125 103.60546875 m 0,0,1
 768.259765625 156.024414062 768.259765625 156.024414062 767.895507812 230.529296875 c 0,2,3
 768.259765625 304.395507812 768.259765625 304.395507812 820.614257812 357.250976562 c 0,4,5
 846.177734375 383.215820312 846.177734375 383.215820312 878.85546875 396.811523438 c 128,-1,6
 911.534179688 410.40625 911.534179688 410.40625 947.736328125 410.374023438 c 0,7,8
 1022.31347656 410.440429688 1022.31347656 410.440429688 1074.86425781 357.245117188 c 0,9,10
 1127.03222656 304.396484375 1127.03222656 304.396484375 1127.57910156 230.530273438 c 0,11,12
 1127.40039062 206.174804688 1127.40039062 206.174804688 1121.3046875 183.549804688 c 128,-1,13
 1115.20898438 160.924804688 1115.20898438 160.924804688 1103.46191406 140.80078125 c 128,-1,14
 1091.71386719 120.67578125 1091.71386719 120.67578125 1074.65917969 103.606445312 c 0,15,16
 1021.13574219 51.2646484375 1021.13574219 51.2646484375 947.736328125 50.6884765625 c 0,17,18
 873.461914062 50.8232421875 873.461914062 50.8232421875 820.814453125 103.60546875 c 0,0,1
150.645507812 1192.81640625 m 0,19,20
 98.0908203125 1245.23535156 98.0908203125 1245.23535156 97.7265625 1319.74023438 c 0,21,22
 98.0908203125 1393.60644531 98.0908203125 1393.60644531 150.4453125 1446.46191406 c 0,23,24
 202.811523438 1499.65136719 202.811523438 1499.65136719 277.567382812 1499.58496094 c 0,25,26
 302.403320312 1499.60742188 302.403320312 1499.60742188 325.119140625 1493.50683594 c 128,-1,27
 347.8359375 1487.40625 347.8359375 1487.40625 367.694335938 1475.60742188 c 128,-1,28
 387.552734375 1463.80859375 387.552734375 1463.80859375 404.6953125 1446.45605469 c 0,29,30
 430.181640625 1420.63671875 430.181640625 1420.63671875 443.661132812 1388.35644531 c 128,-1,31
 457.141601562 1356.07617188 457.141601562 1356.07617188 457.41015625 1319.74121094 c 0,32,33
 457.141601562 1283.1484375 457.141601562 1283.1484375 443.640625 1250.81835938 c 128,-1,34
 430.138671875 1218.48828125 430.138671875 1218.48828125 404.490234375 1192.81738281 c 0,35,36
 351.662109375 1140.03417969 351.662109375 1140.03417969 277.567382812 1139.89941406 c 0,37,38
 203.29296875 1140.03417969 203.29296875 1140.03417969 150.645507812 1192.81640625 c 0,19,20
897.068359375 1553.52636719 m 1,39,-1
 1100.51367188 1445.89453125 l 1,40,-1
 347.328125 -4.779296875 l 1,41,-1
 143.03515625 97.1220703125 l 1,42,-1
 897.068359375 1553.52636719 l 1,39,-1
EndSplineSet
EndChar

StartChar: uni066B
Encoding: 1643 1643 72
Width: 751
VWidth: 2304
GlyphClass: 2
Flags: W
LayerCount: 2
Fore
SplineSet
441.881835938 610.181640625 m 1,0,-1
 671.678710938 608.545898438 l 1,1,-1
 640.241210938 544.282226562 l 2,2,3
 453.553710938 162.662109375 453.553710938 162.662109375 266.51171875 -217.971679688 c 2,4,-1
 253.969726562 -243.495117188 l 1,5,-1
 21.056640625 -240.44140625 l 1,6,-1
 52.7412109375 -176.420898438 l 2,7,8
 241.311523438 204.586914062 241.311523438 204.586914062 429.393554688 584.9296875 c 2,9,-1
 441.881835938 610.181640625 l 1,0,-1
EndSplineSet
EndChar

StartChar: uni066C
Encoding: 1644 1644 73
Width: 707
VWidth: 2304
GlyphClass: 2
Flags: W
LayerCount: 2
Fore
SplineSet
257.506835938 1750.49023438 m 1,0,-1
 550.463867188 1750.49023438 l 1,1,-1
 550.463867188 1544.875 l 1,2,-1
 354.530273438 1163.75390625 l 1,3,-1
 156.958007812 1163.75390625 l 1,4,-1
 257.506835938 1554.92480469 l 1,5,-1
 257.506835938 1750.49023438 l 1,0,-1
EndSplineSet
EndChar

StartChar: afii63167
Encoding: 1645 1645 74
Width: 1233
VWidth: 2304
GlyphClass: 2
Flags: W
LayerCount: 2
Fore
SplineSet
5.7861328125 921.12890625 m 1,0,-1
 475.196289062 921.12890625 l 1,1,-1
 621.49609375 1366.55859375 l 1,2,-1
 767.794921875 921.12890625 l 1,3,-1
 1237.20703125 921.12890625 l 1,4,-1
 858.061523438 643.961914062 l 1,5,-1
 1003.25488281 197.916992188 l 1,6,-1
 621.49609375 473.77734375 l 1,7,-1
 239.737304688 197.916992188 l 1,8,-1
 384.928710938 643.961914062 l 1,9,-1
 5.7861328125 921.12890625 l 1,0,-1
EndSplineSet
EndChar

StartChar: uni066E
Encoding: 1646 1646 75
Width: 1898
VWidth: 2304
GlyphClass: 2
Flags: W
AnchorPoint: "Anchor-10" 843.96 1156.66 basechar 0
AnchorPoint: "Anchor-7" 843.96 -142.744 basechar 0
LayerCount: 2
Fore
SplineSet
1516.16796875 434.2421875 m 128,-1,1
 1541.32714844 485.705078125 1541.32714844 485.705078125 1541.32714844 550.491210938 c 128,-1,2
 1541.32714844 615.276367188 1541.32714844 615.276367188 1518.01757812 739.205078125 c 2,3,-1
 1509.87402344 782.502929688 l 1,4,-1
 1755.14941406 834.0390625 l 1,5,-1
 1767.57128906 795.458007812 l 2,6,7
 1806.47949219 674.622070312 1806.47949219 674.622070312 1806.47949219 551.150390625 c 0,8,9
 1806.47949219 356.08203125 1806.47949219 356.08203125 1703.45019531 226.340820312 c 128,-1,10
 1600.42089844 96.5986328125 1600.42089844 96.5986328125 1402.46777344 40.3935546875 c 0,11,12
 1256.41992188 -0.0009765625 1256.41992188 -0.0009765625 1035.71679688 -0.0009765625 c 0,13,14
 654.0703125 -0.0009765625 654.0703125 -0.0009765625 474.444335938 51.98046875 c 128,-1,15
 294.818359375 103.962890625 294.818359375 103.962890625 193.100585938 236.516601562 c 128,-1,16
 91.3828125 369.0703125 91.3828125 369.0703125 91.3828125 568.297851562 c 0,17,18
 91.3828125 673.140625 91.3828125 673.140625 128.791992188 802.409179688 c 2,19,-1
 140.506835938 842.889648438 l 1,20,-1
 389.899414062 788.142578125 l 1,21,-1
 382.033203125 745.373046875 l 2,22,23
 357.729492188 613.245117188 357.729492188 613.245117188 357.729492188 586.224609375 c 0,24,25
 357.729492188 465.655273438 357.729492188 465.655273438 416.517578125 396.203125 c 128,-1,26
 475.306640625 326.750976562 475.306640625 326.750976562 601.58203125 299.420898438 c 128,-1,27
 727.856445312 272.090820312 727.856445312 272.090820312 975.961914062 272.090820312 c 128,-1,28
 1224.06738281 272.090820312 1224.06738281 272.090820312 1303.11425781 291.184570312 c 128,-1,29
 1382.16015625 310.278320312 1382.16015625 310.278320312 1436.58398438 346.528320312 c 128,-1,0
 1491.00878906 382.779296875 1491.00878906 382.779296875 1516.16796875 434.2421875 c 128,-1,1
EndSplineSet
Substitution2: "'init' Initial Forms in Arabic lookup 13 subtable" uni066E.init
Substitution2: "'medi' Medial Forms in Arabic lookup 11 subtable" uni066E.medi
Substitution2: "'fina' Terminal Forms in Arabic lookup 9 subtable" uni066E.fina
EndChar

StartChar: uni066F
Encoding: 1647 1647 76
Width: 1616
VWidth: 2304
GlyphClass: 2
Flags: W
AnchorPoint: "Anchor-10" 369.64 1150.33 basechar 0
AnchorPoint: "Anchor-7" 535.432 -523.96 basechar 0
LayerCount: 2
Fore
SplineSet
1086.36523438 488.077148438 m 4,0,1
 1095.11328125 484.147460938 1095.11328125 484.147460938 1104.90039062 481.16796875 c 132,-1,2
 1114.6875 478.1875 1114.6875 478.1875 1125.91992188 476.079101562 c 132,-1,3
 1137.15234375 473.969726562 1137.15234375 473.969726562 1149.98046875 472.890625 c 132,-1,4
 1162.80859375 471.810546875 1162.80859375 471.810546875 1176.97558594 471.810546875 c 4,5,6
 1198.38964844 471.810546875 1198.38964844 471.810546875 1221.50390625 473.362304688 c 132,-1,7
 1244.61816406 474.9140625 1244.61816406 474.9140625 1268.47949219 477.931640625 c 5,8,9
 1267.55957031 511.517578125 1267.55957031 511.517578125 1264.99023438 542.051757812 c 132,-1,10
 1262.42089844 572.586914062 1262.42089844 572.586914062 1258.38867188 598.732421875 c 132,-1,11
 1254.35742188 624.877929688 1254.35742188 624.877929688 1249.06542969 647.041992188 c 132,-1,12
 1243.77441406 669.205078125 1243.77441406 669.205078125 1237.24023438 687.420898438 c 4,13,14
 1228.85449219 708.84765625 1228.85449219 708.84765625 1218.64355469 720.890625 c 132,-1,15
 1208.43261719 732.932617188 1208.43261719 732.932617188 1194.62792969 738.059570312 c 132,-1,16
 1180.82324219 743.185546875 1180.82324219 743.185546875 1160 743.185546875 c 4,17,18
 1123.39550781 743.336914062 1123.39550781 743.336914062 1087.91210938 694.204101562 c 4,19,20
 1047.40625 638.1171875 1047.40625 638.1171875 1047.40625 564.114257812 c 4,21,22
 1047.40625 530.3359375 1047.40625 530.3359375 1056.890625 513.560546875 c 132,-1,23
 1066.37597656 496.784179688 1066.37597656 496.784179688 1086.36523438 488.077148438 c 4,0,1
1253.40039062 224.564453125 m 5,24,25
 1152.3828125 215.999023438 1152.3828125 215.999023438 1144.06152344 216.01953125 c 4,26,27
 945.481445312 215.997070312 945.481445312 215.997070312 864.809570312 332.024414062 c 4,28,29
 800.994140625 423.916015625 800.994140625 423.916015625 801.044921875 540.734375 c 4,30,31
 800.99609375 661.684570312 800.99609375 661.684570312 848.774414062 767.4453125 c 4,32,33
 966.022460938 1026.06640625 966.022460938 1026.06640625 1158.38671875 1025.625 c 4,34,35
 1222.20800781 1025.77148438 1222.20800781 1025.77148438 1277.37597656 1000.96679688 c 132,-1,36
 1332.54394531 976.162109375 1332.54394531 976.162109375 1375.89453125 929.693359375 c 132,-1,37
 1419.24414062 883.223632812 1419.24414062 883.223632812 1451.6328125 816.216796875 c 4,38,39
 1524.99609375 663.239257812 1524.99609375 663.239257812 1525.07714844 422.615234375 c 4,40,41
 1524.99902344 343.6875 1524.99902344 343.6875 1519.54882812 248.716796875 c 4,42,43
 1501.94140625 -40.7705078125 1501.94140625 -40.7705078125 1348.68457031 -206.38671875 c 4,44,45
 1172.74902344 -398.028320312 1172.74902344 -398.028320312 793.3359375 -397.484375 c 4,46,47
 489.557617188 -396.974609375 489.557617188 -396.974609375 293.015625 -244.5 c 4,48,49
 90.9970703125 -88.0654296875 90.9970703125 -88.0654296875 91.041015625 199.970703125 c 4,50,51
 90.998046875 475.622070312 90.998046875 475.622070312 193.763671875 704.845703125 c 6,52,-1
 208.481445312 737.673828125 l 5,53,-1
 468.842773438 685.033203125 l 5,54,-1
 447.596679688 634.396484375 l 6,55,56
 353.083007812 409.139648438 353.083007812 409.139648438 354.545898438 249.010742188 c 4,57,58
 354.967773438 206.49609375 354.967773438 206.49609375 360.439453125 169.087890625 c 4,59,60
 383.987304688 13.3134765625 383.987304688 13.3134765625 484.076171875 -61.873046875 c 132,-1,61
 584.165039062 -137.059570312 584.165039062 -137.059570312 774.708984375 -137.111328125 c 4,62,63
 1038.39453125 -137.0078125 1038.39453125 -137.0078125 1164.1328125 -11.6630859375 c 4,64,65
 1243.83105469 66.849609375 1243.83105469 66.849609375 1253.40039062 224.564453125 c 5,24,25
EndSplineSet
Substitution2: "'init' Initial Forms in Arabic lookup 13 subtable" uni066F.init
Substitution2: "'medi' Medial Forms in Arabic lookup 11 subtable" uni066F.medi
Substitution2: "'fina' Terminal Forms in Arabic lookup 9 subtable" uni066F.fina
EndChar

StartChar: uni0670
Encoding: 1648 1648 77
Width: -27
VWidth: 2304
GlyphClass: 4
Flags: W
AnchorPoint: "Anchor-10" 569.519 1347.15 mark 0
AnchorPoint: "Anchor-9" 569.519 1347.15 mark 0
AnchorPoint: "Anchor-1" 569.519 2081.6 basemark 0
AnchorPoint: "Anchor-1" 569.519 1347.15 mark 0
LayerCount: 2
Fore
SplineSet
525.1015625 1402.16699219 m 1,0,-1
 525.1015625 2026.58496094 l 1,1,-1
 613.936523438 2026.58496094 l 1,2,-1
 613.936523438 1402.16699219 l 1,3,-1
 525.1015625 1402.16699219 l 1,0,-1
EndSplineSet
EndChar

StartChar: uni0674
Encoding: 1652 1652 78
Width: 647
VWidth: 2304
GlyphClass: 2
Flags: W
LayerCount: 2
Fore
SplineSet
214.928028301 1629.22991203 m 1,0,1
 128.837890625 1685.53449574 128.837890625 1685.53449574 128.837890625 1783.58403802 c 128,-1,2
 128.837890625 1881.63358029 128.837890625 1881.63358029 192.602615798 1937.58760934 c 0,3,4
 283.728990509 2017.551693 283.728990509 2017.551693 421.03216748 1985.52668286 c 0,5,6
 457.275756238 1977.07311811 457.275756238 1977.07311811 494.956054688 1955.53684011 c 1,7,-1
 494.956054688 1839.80954202 l 1,8,-1
 473.575566218 1849.85850884 l 2,9,10
 384.057784731 1891.93244074 384.057784731 1891.93244074 306.169189895 1868.37673797 c 0,11,12
 244.723770636 1849.79490148 244.723770636 1849.79490148 239.535170528 1790.96430531 c 0,13,14
 232.610769899 1710.80461534 232.610769899 1710.80461534 344.289475375 1676.97279413 c 0,15,16
 377.54899981 1666.89587093 377.54899981 1666.89587093 518.684570312 1698.96781873 c 1,17,-1
 518.684570312 1579.23153524 l 1,18,-1
 126.578125 1491.20151383 l 1,19,-1
 126.578125 1608.84316686 l 1,20,-1
 214.928028301 1629.22991203 l 1,0,1
EndSplineSet
EndChar

StartChar: uni06A1
Encoding: 1697 1697 82
Width: 1914
VWidth: 2304
GlyphClass: 2
Flags: W
AnchorPoint: "Anchor-10" 582.533 1340.18 basechar 0
AnchorPoint: "Anchor-7" 568.805 -216.537 basechar 0
LayerCount: 2
Fore
SplineSet
1563.65722656 620.853515625 m 1,0,1
 1564 629 1564 629 1563.83300781 644.080078125 c 0,2,3
 1564.09626901 841.014851762 1564.09626901 841.014851762 1494.54882812 881.728515625 c 0,4,5
 1482 889 1482 889 1468.74414062 889.471679688 c 0,6,7
 1418 889 1418 889 1375.60449219 808.120117188 c 0,8,9
 1352 764 1352 764 1352 706.5 c 128,-1,10
 1352 649 1352 649 1389 632 c 128,-1,11
 1426 615 1426 615 1472 615 c 128,-1,12
 1518 615 1518 615 1563.65722656 620.853515625 c 1,0,1
1477.625 361.3515625 m 1,13,14
 1454.9140625 358.977539062 1454.9140625 358.977539062 1450.33203125 358.836914062 c 0,15,16
 1289.30761719 359.064453125 1289.30761719 359.064453125 1196.53613281 452.442382812 c 0,17,18
 1047.828125 602.122070312 1047.828125 602.122070312 1134.57617188 859.822265625 c 0,19,20
 1235.97851562 1161.09765625 1235.97851562 1161.09765625 1476.87304688 1161.65917969 c 0,21,22
 1689.90820312 1161.16601562 1689.90820312 1161.16601562 1769.89550781 941.495117188 c 0,23,24
 1822.53125 795.932617188 1822.53125 795.932617188 1822.87207031 625.189453125 c 0,25,26
 1822.11035156 165.0234375 1822.11035156 165.0234375 1438.00878906 51.025390625 c 0,27,28
 1263.8203125 -1.046875 1263.8203125 -1.046875 918.221679688 -1.048828125 c 128,-1,29
 572.624023438 -1.0498046875 572.624023438 -1.0498046875 396.590820312 74.9638671875 c 0,30,31
 92.1142578125 206.4453125 92.1142578125 206.4453125 91.3857421875 576.493164062 c 0,32,33
 91.080078125 683.05078125 91.080078125 683.05078125 133.546875 800.428710938 c 2,34,-1
 146.677734375 836.721679688 l 1,35,-1
 395.278320312 787.822265625 l 1,36,-1
 384.163085938 742.114257812 l 2,37,38
 357.859375 633.940429688 357.859375 633.940429688 357.655273438 598.922851562 c 0,39,40
 357.893554688 325.168945312 357.893554688 325.168945312 642.452148438 288.336914062 c 0,41,42
 698.600585938 281.071289062 698.600585938 281.071289062 819.197265625 274.995117188 c 0,43,44
 1287.22949219 251.413085938 1287.22949219 251.413085938 1477.625 361.3515625 c 1,13,14
EndSplineSet
Substitution2: "'init' Initial Forms in Arabic lookup 13 subtable" uni06A1.init
Substitution2: "'medi' Medial Forms in Arabic lookup 11 subtable" uni06A1.medi
Substitution2: "'fina' Terminal Forms in Arabic lookup 9 subtable" uni06A1.fina
EndChar

StartChar: uni06A9
Encoding: 1705 1705 83
Width: 1824
VWidth: 2304
GlyphClass: 2
Flags: W
AnchorPoint: "Anchor-10" 446.672 1315.95 basechar 0
AnchorPoint: "Anchor-7" 555.44 -223.718 basechar 0
LayerCount: 2
Fore
SplineSet
861.416992188 0 m 5,0,1
 622.346679688 3.08203125 622.346679688 3.08203125 475.810546875 45.4091796875 c 4,2,3
 286.314453125 99.9287109375 286.314453125 99.9287109375 188.6875 235.966796875 c 132,-1,4
 91.0595703125 372.00390625 91.0595703125 372.00390625 91.126953125 579.30859375 c 4,5,6
 90.990234375 684.391601562 90.990234375 684.391601562 130.0234375 799.533203125 c 6,7,-1
 142.749023438 837.069335938 l 5,8,-1
 383.85546875 788.141601562 l 5,9,-1
 376.50390625 745.135742188 l 6,10,11
 355.916015625 624.689453125 355.916015625 624.689453125 355.180664062 584.123046875 c 132,-1,12
 354.4453125 543.556640625 354.4453125 543.556640625 363.196289062 503.561523438 c 4,13,14
 405.966796875 308.078125 405.966796875 308.078125 706.102539062 279.71484375 c 4,15,16
 772.526367188 273.436523438 772.526367188 273.436523438 862.22265625 271.002929688 c 5,17,-1
 1149.74707031 271.028320312 l 6,18,19
 1322.95117188 271.012695312 1322.95117188 271.012695312 1370.17773438 317.743164062 c 4,20,21
 1396.96191406 344.24609375 1396.96191406 344.24609375 1389.70605469 390.64453125 c 4,22,23
 1378.23828125 466.534179688 1378.23828125 466.534179688 1270.671875 567.952148438 c 132,-1,24
 1163.10449219 669.370117188 1163.10449219 669.370117188 959.049804688 784.494140625 c 4,25,26
 853.889648438 843.7734375 853.889648438 843.7734375 853.88671875 986.016601562 c 132,-1,27
 853.8828125 1128.25976562 853.8828125 1128.25976562 996.817382812 1197.71191406 c 6,28,-1
 1793.57519531 1584.86425781 l 5,29,-1
 1793.57519531 1307.01855469 l 5,30,-1
 1140.51171875 992.612304688 l 5,31,32
 1372.35253906 822.596679688 1372.35253906 822.596679688 1419.3125 778.91015625 c 132,-1,33
 1466.27148438 735.224609375 1466.27148438 735.224609375 1508.72851562 688.828125 c 132,-1,34
 1551.18457031 642.431640625 1551.18457031 642.431640625 1592.02050781 569.67578125 c 132,-1,35
 1632.85742188 496.918945312 1632.85742188 496.918945312 1638.23535156 445.04296875 c 4,36,37
 1654.92773438 284.0234375 1654.92773438 284.0234375 1591.00585938 182.904296875 c 4,38,39
 1474.71386719 0 1474.71386719 0 1193.37011719 0 c 6,40,-1
 861.416992188 0 l 5,0,1
EndSplineSet
Substitution2: "'init' Initial Forms in Arabic lookup 13 subtable" uniFB90
Substitution2: "'medi' Medial Forms in Arabic lookup 11 subtable" uniFB91
Substitution2: "'fina' Terminal Forms in Arabic lookup 9 subtable" uniFB8F
EndChar

StartChar: afii57514
Encoding: 1722 1722 85
Width: 1535
VWidth: 2304
GlyphClass: 2
Flags: W
AnchorPoint: "Anchor-10" 715.124 883.688 basechar 0
AnchorPoint: "Anchor-7" 738.853 -512.365 basechar 0
LayerCount: 2
Fore
SplineSet
1203.13476562 119.774414062 m 0,0,1
 1203.06640625 289.693359375 1203.06640625 289.693359375 1139.421875 535.587890625 c 2,2,-1
 1127.65917969 581.034179688 l 1,3,-1
 1373.74023438 633.740234375 l 1,4,-1
 1382.92285156 589.3671875 l 2,5,6
 1446.83886719 280.514648438 1446.83886719 280.514648438 1443.45703125 90.943359375 c 0,7,8
 1440.9296875 -45.255859375 1440.9296875 -45.255859375 1397.13085938 -149.296875 c 128,-1,9
 1353.33105469 -253.338867188 1353.33105469 -253.338867188 1270.8515625 -322.310546875 c 128,-1,10
 1188.37207031 -391.282226562 1188.37207031 -391.282226562 1068.64257812 -426.361328125 c 128,-1,11
 948.913085938 -461.440429688 948.913085938 -461.440429688 794.31640625 -461.4296875 c 0,12,13
 451.673828125 -461.451171875 451.673828125 -461.451171875 271.421875 -309.51953125 c 128,-1,14
 91.1689453125 -157.586914062 91.1689453125 -157.586914062 91.251953125 138.345703125 c 0,15,16
 91.08984375 305.368164062 91.08984375 305.368164062 168.728515625 529.5 c 2,17,-1
 181.764648438 567.130859375 l 1,18,-1
 434.348632812 512.87109375 l 1,19,-1
 417.83984375 464.891601562 l 2,20,21
 352.629882812 275.368164062 352.629882812 275.368164062 352.844726562 131.750976562 c 0,22,23
 352.741210938 -38.4052734375 352.741210938 -38.4052734375 454.22265625 -120.237304688 c 128,-1,24
 555.705078125 -202.068359375 555.705078125 -202.068359375 777.837890625 -202.068359375 c 0,25,26
 1000.33398438 -202.068359375 1000.33398438 -202.068359375 1101.71875 -122.946289062 c 128,-1,27
 1203.10253906 -43.82421875 1203.10253906 -43.82421875 1203.13476562 119.774414062 c 0,0,1
EndSplineSet
Substitution2: "'init' Initial Forms in Arabic lookup 13 subtable" uni06BA.init
Substitution2: "'medi' Medial Forms in Arabic lookup 11 subtable" uni06BA.medi
Substitution2: "'fina' Terminal Forms in Arabic lookup 9 subtable" uniFB9F
EndChar

StartChar: uni06F4
Encoding: 1780 1780 92
Width: 1215
VWidth: 2304
GlyphClass: 2
Flags: W
LayerCount: 2
Fore
SplineSet
409.442382812 1227.76757812 m 1,0,1
 524 1482 524 1482 857.833007812 1465.59570312 c 0,2,3
 954.624655975 1461.06438695 954.624655975 1461.06438695 1026.62695312 1434.49609375 c 2,4,-1
 1056.04882812 1423.63964844 l 1,5,-1
 1056.04882812 1191.32226562 l 1,6,-1
 997.8359375 1209.20214844 l 2,7,8
 913 1235 913 1235 810.620117188 1235.23242188 c 0,9,10
 708 1235 708 1235 654.384765625 1180.44628906 c 0,11,12
 601 1126 601 1126 592.579101562 1082.1484375 c 0,13,14
 578 1003 578 1003 661.802734375 957.07421875 c 0,15,16
 745.949093737 911.027856799 745.949093737 911.027856799 1065.29785156 957.81640625 c 2,17,-1
 1116.02148438 965.248046875 l 1,18,-1
 1119.69726562 727.915039062 l 1,19,-1
 1079.85351562 722.760742188 l 2,20,21
 848 693 848 693 805.237304688 694.58984375 c 0,22,23
 650 701 650 701 540.635742188 751.236328125 c 5,24,25
 570 648 570 648 576.938476562 532.322265625 c 0,26,27
 598.533042995 265.054459948 598.533042995 265.054459948 595.227539062 53.2734375 c 2,28,-1
 594.536132812 8.9755859375 l 1,29,-1
 337.188476562 8.9755859375 l 1,30,-1
 337.09765625 53.884765625 l 2,31,32
 336 535 336 535 258.157226562 852.979492188 c 0,33,34
 203.341984654 1074.66111957 203.341984654 1074.66111957 99.3408203125 1325.93847656 c 2,35,-1
 80.76953125 1370.80859375 l 1,36,-1
 331.513671875 1452.88574219 l 1,37,-1
 346.06640625 1411.23828125 l 2,38,39
 382 1307 382 1307 409.442382812 1227.76757812 c 1,0,1
EndSplineSet
EndChar

StartChar: uni06F5
Encoding: 1781 1781 93
Width: 1215
VWidth: 2304
GlyphClass: 2
Flags: W
LayerCount: 2
Fore
SplineSet
717.321289062 424.936523438 m 2,0,1
 728.023331184 355.970363091 728.023331184 355.970363091 765 309 c 0,2,3
 792 274 792 274 848 275.75 c 0,4,5
 896 277 896 277 919 296.5 c 128,-1,6
 942 316 942 316 943.5 379 c 0,7,8
 945 427 945 427 920.526367188 500.0234375 c 0,9,10
 839 742 839 742 585.931640625 981.270507812 c 1,11,12
 355 678 355 678 305.44026698 514.936352454 c 128,-1,13
 256 352 256 352 314.772460938 300.532226562 c 0,14,15
 340 278 340 278 402.422851562 278.030273438 c 0,16,17
 482.281172811 277.999893034 482.281172811 277.999893034 512.006835938 426.94140625 c 2,18,-1
 519.236328125 463.165039062 l 1,19,-1
 711.4140625 463.00390625 l 1,20,-1
 717.321289062 424.936523438 l 2,0,1
686.969726562 1253.99121094 m 0,21,22
 1034.98674202 925.250461065 1034.98674202 925.250461065 1165 570.5 c 0,23,24
 1200 475 1200 475 1202.5 369.5 c 128,-1,25
 1205 264 1205 264 1163.78515625 179.97265625 c 0,26,27
 1080 9 1080 9 843.23046875 9.291015625 c 0,28,29
 690 9 690 9 613.185546875 120.0859375 c 1,30,31
 532 9 532 9 359.5 9 c 128,-1,32
 187 9 187 9 98.7208626203 113.383441838 c 0,33,34
 11 218 11 218 17.5 353.5 c 0,35,36
 34.66494386 711.323060467 34.66494386 711.323060467 399.704101562 1159.625 c 1,37,-1
 355.482421875 1201.01855469 l 1,38,-1
 525.663085938 1408.9765625 l 1,39,40
 577 1357 577 1357 686.969726562 1253.99121094 c 0,21,22
EndSplineSet
EndChar

StartChar: uni06F6
Encoding: 1782 1782 94
Width: 1215
VWidth: 2304
GlyphClass: 2
Flags: W
LayerCount: 2
Fore
SplineSet
157.80859375 66.7060546875 m 2,0,1
 232.69457759 320.603727359 232.69457759 320.603727359 454.059570312 607.815429688 c 5,2,3
 253.982111707 644.63523642 253.982111707 644.63523642 183.459960938 846.000976562 c 4,4,5
 167 893 167 893 167 977.5 c 132,-1,6
 167 1062 167 1062 214.7265625 1156.89550781 c 4,7,8
 332 1392 332 1392 663.263671875 1390.2265625 c 4,9,10
 713.790183542 1390.00093693 713.790183542 1390.00093693 795.482421875 1376.16894531 c 6,11,-1
 839.247070312 1368.75878906 l 5,12,-1
 801 1129 l 5,13,-1
 734.982421875 1141.17480469 l 30,14,15
 714 1145 714 1145 644.5 1145 c 4,16,17
 497 1145 497 1145 431.154296875 1021.50488281 c 4,18,19
 414 990 414 990 414.052734375 937.31640625 c 4,20,21
 414 824 414 824 620.903320312 819.319335938 c 5,22,23
 645 827 645 827 817.294921875 889.83203125 c 4,24,25
 990 953 990 953 1011.40136719 960.703125 c 6,26,-1
 1069.33300781 982.111328125 l 5,27,-1
 1080.56933594 718.079101562 l 5,28,-1
 1043.56640625 710.028320312 l 6,29,30
 799.759974744 657.380054039 799.759974744 657.380054039 604.833984375 379.383789062 c 4,31,32
 469.53238914 186.757950446 469.53238914 186.757950446 425.55078125 40.978515625 c 2,33,-1
 415.895507812 8.9755859375 l 1,34,-1
 140.78125 8.9755859375 l 1,35,-1
 157.80859375 66.7060546875 l 2,0,1
EndSplineSet
EndChar

StartChar: uniFB8F
Encoding: 64399 64399 109
Width: 1871
VWidth: 2304
GlyphClass: 2
Flags: W
AnchorPoint: "Anchor-10" 495.248 1286.55 basechar 0
AnchorPoint: "Anchor-7" 576.56 -175.48 basechar 0
LayerCount: 2
Fore
SplineSet
1567.29785156 114.323242188 m 5,0,1
 1443.48632812 0.5283203125 1443.48632812 0.5283203125 1224.76367188 0.5283203125 c 6,2,-1
 863.32421875 0.5283203125 l 5,3,4
 622 3 622 3 475.84375 45.3994140625 c 4,5,6
 286 100 286 100 188.685546875 235.83203125 c 4,7,8
 91 372 91 372 91.126953125 579.306640625 c 4,9,10
 91 684.837890625 91 684.837890625 130.040039062 799.581054688 c 6,11,-1
 142.791992188 837.060546875 l 5,12,-1
 383.9609375 788.120117188 l 5,13,-1
 376.485351562 745.026367188 l 6,14,15
 356 625 356 625 355.198242188 592.247070312 c 4,16,17
 354 471 354 471 412.860351562 398.875976562 c 4,18,19
 472 327 472 327 602.048828125 295.216796875 c 4,20,21
 681 276 681 276 893.568359375 271.53125 c 5,22,-1
 1181.18164062 271.555664062 l 6,23,24
 1354 272 1354 272 1401.29394531 317.977539062 c 4,25,26
 1428 345 1428 345 1420.859375 392.123046875 c 4,27,28
 1413 440 1413 440 1365.96484375 499.094726562 c 4,29,30
 1262 629 1262 629 990.186523438 785.196289062 c 4,31,32
 886 845 886 845 886.149414062 987.092773438 c 4,33,34
 886 1129.11523438 886 1129.11523438 1028.23339844 1198.22753906 c 6,35,-1
 1825.01757812 1585.39257812 l 5,36,-1
 1825.01757812 1307.54589844 l 5,37,-1
 1171.88964844 993.109375 l 5,38,39
 1447 791 1447 791 1507.77636719 724.830078125 c 4,40,41
 1628 594 1628 594 1684.41699219 412.520507812 c 4,42,43
 1708 337 1708 337 1746.23925781 304.672851562 c 4,44,45
 1785.05566406 271.953125 1785.05566406 271.953125 1843.69628906 271.953125 c 6,46,-1
 1878.78027344 271.953125 l 5,47,-1
 1878.78027344 1.0556640625 l 5,48,-1
 1851.375 1.0556640625 l 6,49,50
 1660 1 1660 1 1567.29785156 114.323242188 c 5,0,1
EndSplineSet
EndChar

StartChar: uniFB9F
Encoding: 64415 64415 117
Width: 1582
VWidth: 2304
GlyphClass: 2
Flags: W
AnchorPoint: "Anchor-10" 647.318 770.696 basechar 0
AnchorPoint: "Anchor-7" 611.394 -580.456 basechar 0
LayerCount: 2
Fore
SplineSet
1139.43164062 535.559570312 m 6,0,-1
 1127.63085938 581.02734375 l 5,1,-1
 1374.79003906 633.963867188 l 5,2,-1
 1383.03710938 588.20703125 l 6,3,4
 1417 399 1417 399 1430.79882812 359.479492188 c 4,5,6
 1460.85546875 271.424804688 1460.85546875 271.424804688 1589.671875 271.424804688 c 6,7,-1
 1606 271.424804688 l 5,8,-1
 1606 0.5322265625 l 5,9,-1
 1575.84179688 0.525390625 l 6,10,11
 1500 1 1500 1 1438.20996094 25.9853515625 c 5,12,13
 1409 -215 1409 -215 1244.37988281 -338.383789062 c 4,14,15
 1080 -461 1080 -461 794.31640625 -461.4296875 c 4,16,17
 452 -461 452 -461 271.421875 -309.51953125 c 132,-1,18
 91 -158 91 -158 91.251953125 138.345703125 c 4,19,20
 91 305.124023438 91 305.124023438 168.728515625 529.5 c 6,21,-1
 181.764648438 567.130859375 l 5,22,-1
 434.348632812 512.87109375 l 5,23,-1
 417.83984375 464.891601562 l 6,24,25
 241 -49 241 -49 533.077148438 -164.53125 c 4,26,27
 627 -202 627 -202 774.90234375 -201.604492188 c 4,28,29
 999 -202 999 -202 1101.05957031 -122.532226562 c 132,-1,30
 1203 -43 1203 -43 1203.13476562 123.31640625 c 4,31,32
 1203 290 1203 290 1139.43164062 535.559570312 c 6,0,-1
EndSplineSet
EndChar

StartChar: uniFBE8
Encoding: 64488 64488 120
Width: 667
VWidth: 2304
GlyphClass: 2
Flags: W
AnchorPoint: "Anchor-10" 320.398 1149.27 basechar 0
AnchorPoint: "Anchor-7" 293.998 -327.016 basechar 0
LayerCount: 2
Fore
SplineSet
57.5810546875 271.002929688 m 2,0,1
 247.002203709 271.002929689 247.002203709 271.002929689 290.236743515 328.48046875 c 0,2,3
 333 386 333 386 333.0390625 484.616210937 c 128,-1,4
 332.999868351 583.331574217 332.999868351 583.331574217 272.025390625 693.046875 c 2,5,-1
 247.751953125 736.723632812 l 1,6,-1
 464.953125 829.25 l 1,7,-1
 486.12109375 800.987304688 l 2,8,9
 576 681 576 681 576.013671875 451.776367188 c 0,10,11
 576 223 576 223 448.982421875 111.292480469 c 0,12,13
 322 0 322 0 48.974609375 0 c 2,14,-1
 -15.54296875 0 l 1,15,-1
 -15.54296875 271.002929688 l 1,16,-1
 57.5810546875 271.002929688 l 2,0,1
EndSplineSet
EndChar

StartChar: uniFBE9
Encoding: 64489 64489 121
Width: 695
VWidth: 2304
GlyphClass: 2
Flags: W
AnchorPoint: "Anchor-10" 297.718 1064.79 basechar 0
AnchorPoint: "Anchor-7" 343.126 -80.9678 basechar 0
LayerCount: 2
Fore
SplineSet
402.118164062 97.0498046875 m 1,0,1
 288 0 288 0 94.9345703125 0 c 2,2,-1
 -17.54296875 0 l 1,3,-1
 -17.54296875 271.002929688 l 1,4,-1
 45.4560546875 271.002929688 l 2,5,6
 195.421139512 270.997113856 195.421139512 270.997113856 231.710379617 307.498368211 c 128,-1,7
 267.999619721 343.999622566 267.999619721 343.999622566 276.626953125 413.840820312 c 2,8,-1
 305.358398438 646.431640625 l 1,9,-1
 501.278320312 646.431640625 l 1,10,-1
 530.01953125 413.759765625 l 2,11,12
 539 338 539 338 576.341796875 304.083007812 c 0,13,14
 613.99666515 271.00292969 613.99666515 271.00292969 690.423828125 271.002929688 c 2,15,-1
 711.609375 271.002929688 l 1,16,-1
 711.609375 0 l 1,17,-1
 678.965820312 0 l 2,18,19
 514 0 514 0 402.118164062 97.0498046875 c 1,0,1
EndSplineSet
EndChar

StartChar: uniFE73
Encoding: 65139 65139 129
Width: 578
VWidth: 2304
GlyphClass: 2
Flags: W
AnchorPoint: "Anchor-10" 213.595 1392.15 basechar 0
AnchorPoint: "Anchor-7" 213.595 -76.7441 basechar 0
LayerCount: 2
Fore
SplineSet
344.819335938 411.381835938 m 2,0,1
 344.819335938 386.228515625 344.819335938 386.228515625 356.017578125 362.182617188 c 128,-1,2
 367.215820312 338.13671875 367.215820312 338.13671875 392.19921875 313.153320312 c 0,3,4
 433.924804688 271.424804688 433.924804688 271.424804688 534.491210938 271.424804688 c 2,5,-1
 646.5078125 271.424804688 l 1,6,-1
 646.5078125 8.9755859375 l 1,7,-1
 472.345703125 8.9755859375 l 2,8,9
 300.602539062 8.9755859375 300.602539062 8.9755859375 188.661132812 120.916992188 c 0,10,11
 135.6171875 173.959960938 135.6171875 173.959960938 108.993164062 244.03515625 c 128,-1,12
 82.369140625 314.111328125 82.369140625 314.111328125 82.369140625 397.822265625 c 2,13,-1
 82.369140625 473.680664062 l 1,14,-1
 344.819335938 473.680664062 l 1,15,-1
 344.819335938 411.381835938 l 2,0,1
EndSplineSet
EndChar

StartChar: uniFE8E
Encoding: 65166 65166 155
Width: 585
VWidth: 2304
GlyphClass: 2
Flags: W
AnchorPoint: "Anchor-10" 270.268 1561.4 basechar 0
AnchorPoint: "Anchor-7" 289.275 -211.912 basechar 0
LayerCount: 2
Fore
SplineSet
145.377929688 472.759765625 m 6,0,-1
 145.377929688 1470.43164062 l 5,1,-1
 403.603515625 1470.43164062 l 5,2,-1
 403.603515625 486.325195312 l 6,3,4
 404.004882812 334.995117188 404.004882812 334.995117188 485.786132812 290.26171875 c 4,5,6
 520.995117188 271.002929688 520.995117188 271.002929688 577.436523438 271.002929688 c 6,7,-1
 593.764648438 271.002929688 l 5,8,-1
 593.764648438 0 l 5,9,-1
 572.315429688 0 l 6,10,11
 324 0 324 0 209.716796875 195.369140625 c 4,12,13
 145 304 145 304 145.377929688 472.759765625 c 6,0,-1
EndSplineSet
EndChar

StartChar: uniFEA2
Encoding: 65186 65186 175
Width: 1343
VWidth: 2304
GlyphClass: 2
Flags: W
AnchorPoint: "Anchor-10" 711.18 1094.15 basechar 0
AnchorPoint: "Anchor-7" 515.303 -654.523 basechar 0
LayerCount: 2
Fore
SplineSet
705.170898438 675.037109375 m 5,0,1
 675 694 675 694 628.434570312 729.71875 c 4,2,3
 483.021484375 838.984375 483.021484375 838.984375 315.850585938 617.647460938 c 6,4,-1
 289.373046875 582.590820312 l 5,5,-1
 91.6865234375 724.5703125 l 5,6,-1
 121.852539062 761.642578125 l 6,7,8
 209 868 209 868 241.391601562 900.872070312 c 4,9,10
 356 1015 356 1015 531.2265625 1016.21875 c 4,11,12
 650 1017 650 1017 756.708007812 930.327148438 c 4,13,14
 995.346679688 737.720703125 995.346679688 737.720703125 1224.95898438 747.842773438 c 6,15,-1
 1274.38085938 750.021484375 l 5,16,-1
 1262.71582031 519.209960938 l 5,17,-1
 1216.09667969 523.411132812 l 6,18,19
 1168 528 1168 528 1126.75390625 526.163085938 c 5,20,21
 1132 315 1132 315 1257.85058594 280.043945312 c 4,22,23
 1287.53710938 271.424804688 1287.53710938 271.424804688 1328.72949219 271.424804688 c 6,24,-1
 1351.98535156 271.424804688 l 5,25,-1
 1351.98535156 0.5283203125 l 5,26,-1
 1338.60351562 0.5283203125 l 6,27,28
 1132 1 1132 1 1019.72753906 128.291992188 c 4,29,30
 908 256 908 256 898.78125 493.438476562 c 5,31,32
 634 445 634 445 497.962890625 315.008789062 c 132,-1,33
 362 185 362 185 362.01953125 33.3466796875 c 4,34,35
 362 -118 362 -118 470.736328125 -203.02734375 c 4,36,37
 579 -288 579 -288 796.900390625 -287.979492188 c 4,38,39
 1014.30566406 -288 1014.30566406 -288 1123.64453125 -249.51171875 c 6,40,-1
 1168.66210938 -233.665039062 l 5,41,-1
 1235.48535156 -466.30859375 l 5,42,-1
 1198.69628906 -481.821289062 l 6,43,44
 1063 -539 1063 -539 758.779296875 -535.962890625 c 4,45,46
 455 -533 455 -533 282.748046875 -379.384765625 c 4,47,48
 111 -226 111 -226 112.974609375 42.16015625 c 4,49,50
 115 310 115 310 333.450195312 491.266601562 c 4,51,52
 496 626 496 626 705.170898438 675.037109375 c 5,0,1
EndSplineSet
EndChar

StartChar: uniFEA3
Encoding: 65187 65187 176
Width: 1384
VWidth: 2304
GlyphClass: 2
Flags: W
AnchorPoint: "Anchor-10" 468.96 1204.43 basechar 0
AnchorPoint: "Anchor-7" 595.68 -219.304 basechar 0
LayerCount: 2
Fore
SplineSet
1241.28222656 308.805664062 m 2,0,1
 1142.2578125 316.528320312 1142.2578125 316.528320312 1002.60839844 235.27734375 c 0,2,3
 801.349609375 118.181640625 801.349609375 118.181640625 612.26953125 59.0908203125 c 128,-1,4
 423.189453125 0 423.189453125 0 76.3974609375 0 c 2,5,-1
 -15.982421875 0 l 1,6,-1
 -15.982421875 271.002929688 l 1,7,-1
 40.853515625 271.002929688 l 2,8,9
 296.946289062 271.024414062 296.946289062 271.024414062 463.967773438 295.83984375 c 128,-1,10
 630.989257812 320.655273438 630.989257812 320.655273438 813.908203125 412.889648438 c 1,11,12
 765.868164062 440.056640625 765.868164062 440.056640625 708.100585938 478.611328125 c 0,13,14
 528.09375 598.751953125 528.09375 598.751953125 472.127929688 598.751953125 c 0,15,16
 364.110351562 598.751953125 364.110351562 598.751953125 251.461914062 450.858398438 c 2,17,-1
 224.951171875 416.051757812 l 1,18,-1
 27.38671875 557.9453125 l 1,19,-1
 57.5810546875 595.01953125 l 2,20,21
 144.235351562 701.416992188 144.235351562 701.416992188 187.813476562 744.750976562 c 128,-1,22
 231.392578125 788.083984375 231.392578125 788.083984375 304.005859375 818.897460938 c 128,-1,23
 376.619140625 849.711914062 376.619140625 849.711914062 460.368164062 849.711914062 c 0,24,25
 628.940429688 849.711914062 628.940429688 849.711914062 776.3828125 733.127929688 c 0,26,27
 1036.59472656 526.16796875 1036.59472656 526.16796875 1260.890625 517.728515625 c 2,28,-1
 1309.74902344 515.890625 l 1,29,-1
 1284.27246094 305.452148438 l 1,30,-1
 1241.28222656 308.805664062 l 2,0,1
EndSplineSet
EndChar

StartChar: uniFEA4
Encoding: 65188 65188 177
Width: 1431
VWidth: 2304
GlyphClass: 2
Flags: W
AnchorPoint: "Anchor-10" 524.48 1179.04 basechar 0
AnchorPoint: "Anchor-7" 693.44 -195.016 basechar 0
LayerCount: 2
Fore
SplineSet
1366.02734375 0 m 2,0,1
 1031 0 1031 0 935.434570312 193.676757812 c 1,2,3
 829 137 829 137 716.291992188 91.689453125 c 0,4,5
 489 0 489 0 39.3974609375 0 c 2,6,-1
 -11.982421875 0 l 5,7,-1
 -11.982421875 271.002929688 l 5,8,-1
 3.853515625 271.002929688 l 2,9,10
 305 271 305 271 471.967773438 295.83984375 c 0,11,12
 639 321 639 321 821.908203125 412.889648438 c 1,13,14
 774 440 774 440 716.100585938 478.611328125 c 0,15,16
 536 599 536 599 480.127929688 598.751953125 c 0,17,18
 372.29457532 598.99932424 372.29457532 598.99932424 259.461914062 450.858398438 c 2,19,-1
 232.951171875 416.051757812 l 1,20,-1
 35.38671875 557.9453125 l 1,21,-1
 65.5810546875 595.01953125 l 2,22,23
 151 700 151 700 195.813476562 744.750976562 c 0,24,25
 239 788 239 788 312.005859375 818.897460938 c 0,26,27
 385 850 385 850 468.368164062 849.711914062 c 0,28,29
 637 850 637 850 784.3828125 733.127929688 c 0,30,31
 1044.80117735 526.158016144 1044.80117735 526.158016144 1268.890625 517.728515625 c 2,32,-1
 1317.74902344 515.890625 l 1,33,-1
 1292.30859375 305.752929688 l 1,34,-1
 1249.61914062 308.756835938 l 2,35,36
 1216 311 1216 311 1166.74414062 301.661132812 c 1,37,38
 1231.10154681 271.953125 1231.10154681 271.953125 1388.62597656 271.953125 c 2,39,-1
 1445.47265625 271.953125 l 1,40,-1
 1445.47265625 0 l 1,41,-1
 1366.02734375 0 l 2,0,1
EndSplineSet
EndChar

StartChar: uniFEAA
Encoding: 65194 65194 183
Width: 1131
VWidth: 2304
GlyphClass: 2
Flags: W
AnchorPoint: "Anchor-10" 453.109 1303.61 basechar 0
AnchorPoint: "Anchor-7" 414.576 -206.104 basechar 0
LayerCount: 2
Fore
SplineSet
641.48828125 506.940429688 m 6,0,-1
 467.670898438 907.807617188 l 5,1,-1
 711.008789062 1011.22949219 l 5,2,-1
 945.854492188 472.733398438 l 5,3,4
 991 366 991 366 1036.09472656 318.225585938 c 4,5,6
 1082.35644531 269.625976562 1082.35644531 269.625976562 1118.33496094 271.020507812 c 6,7,-1
 1143.59863281 272 l 5,8,-1
 1143.59863281 0.5283203125 l 5,9,-1
 1064.43066406 0.5283203125 l 6,10,11
 975 1 975 1 875.439453125 106.333984375 c 5,12,13
 734 -11 734 -11 392.651367188 0.0224609375 c 4,14,15
 208.17578125 5.9619140625 208.17578125 5.9619140625 125.856445312 26.7763671875 c 6,16,-1
 91.8876953125 35.365234375 l 5,17,-1
 91.8876953125 310.491210938 l 5,18,-1
 146.618164062 298.369140625 l 6,19,20
 419 238 419 238 658.447265625 286.512695312 c 4,21,22
 697 294 697 294 706.586914062 304.25 c 4,23,24
 716 314 716 314 703.805664062 352.974609375 c 4,25,26
 691 392 691 392 641.48828125 506.940429688 c 6,0,-1
EndSplineSet
EndChar

StartChar: uniFEAE
Encoding: 65198 65198 187
Width: 898
VWidth: 2304
GlyphClass: 2
Flags: W
AnchorPoint: "Anchor-10" 515.808 904.808 basechar 0
AnchorPoint: "Anchor-7" 354.161 -644.925 basechar 0
LayerCount: 2
Fore
SplineSet
748.236328125 27.8759765625 m 1,0,1
 653.060302562 -422.714510449 653.060302562 -422.714510449 87.5703125 -480.948242188 c 2,2,-1
 46.072265625 -485.221679688 l 1,3,-1
 0.310546875 -231.288085938 l 1,4,-1
 49.5078125 -227.067382812 l 2,5,6
 286 -207 286 -207 398 -100.5 c 128,-1,7
 510 6 510 6 511 202.5 c 128,-1,8
 512 399 512 399 436.220703125 561.154296875 c 1,9,-1
 678.736328125 660.076171875 l 1,10,11
 730 483 730 483 744.5 424.5 c 128,-1,12
 759 366 759 366 762.252929688 355.74609375 c 0,13,14
 791.998971637 271.002929691 791.998971637 271.002929691 890.518554688 271.002929688 c 2,15,-1
 905.2734375 271.002929688 l 1,16,-1
 905.2734375 0 l 1,17,-1
 870.61328125 0 l 2,18,19
 800 0 800 0 748.236328125 27.8759765625 c 1,0,1
EndSplineSet
PairPos2: "'kern' Horizontal Kerning lookup 15-2" uniFB90 dx=-190 dy=0 dh=-190 dv=0 dx=0 dy=0 dh=0 dv=0
PairPos2: "'kern' Horizontal Kerning lookup 15-2" uniFB8E dx=-190 dy=0 dh=-190 dv=0 dx=0 dy=0 dh=0 dv=0
PairPos2: "'kern' Horizontal Kerning lookup 15-2" uni06A9 dx=-190 dy=0 dh=-190 dv=0 dx=0 dy=0 dh=0 dv=0
PairPos2: "'kern' Horizontal Kerning lookup 15-2" uni064A dx=-50 dy=0 dh=-50 dv=0 dx=0 dy=0 dh=0 dv=0
PairPos2: "'kern' Horizontal Kerning lookup 15-2" afii57414 dx=-50 dy=0 dh=-50 dv=0 dx=0 dy=0 dh=0 dv=0
PairPos2: "'kern' Horizontal Kerning lookup 15-2" uni0649 dx=-50 dy=0 dh=-50 dv=0 dx=0 dy=0 dh=0 dv=0
PairPos2: "'kern' Horizontal Kerning lookup 15-2" uni0648 dx=-50 dy=0 dh=-50 dv=0 dx=0 dy=0 dh=0 dv=0
PairPos2: "'kern' Horizontal Kerning lookup 15-2" afii57412 dx=-50 dy=0 dh=-50 dv=0 dx=0 dy=0 dh=0 dv=0
PairPos2: "'kern' Horizontal Kerning lookup 15-2" uniFEEB dx=-150 dy=0 dh=-150 dv=0 dx=0 dy=0 dh=0 dv=0
PairPos2: "'kern' Horizontal Kerning lookup 15-2" uni0647 dx=-150 dy=0 dh=-150 dv=0 dx=0 dy=0 dh=0 dv=0
PairPos2: "'kern' Horizontal Kerning lookup 15-2" uni0646 dx=-50 dy=0 dh=-50 dv=0 dx=0 dy=0 dh=0 dv=0
PairPos2: "'kern' Horizontal Kerning lookup 15-2" uniFEE3 dx=-150 dy=0 dh=-150 dv=0 dx=0 dy=0 dh=0 dv=0
PairPos2: "'kern' Horizontal Kerning lookup 15-2" uni0645 dx=-150 dy=0 dh=-150 dv=0 dx=0 dy=0 dh=0 dv=0
PairPos2: "'kern' Horizontal Kerning lookup 15-2" uniFEFB dx=-150 dy=0 dh=-150 dv=0 dx=0 dy=0 dh=0 dv=0
PairPos2: "'kern' Horizontal Kerning lookup 15-2" uniFEDF dx=-150 dy=0 dh=-150 dv=0 dx=0 dy=0 dh=0 dv=0
PairPos2: "'kern' Horizontal Kerning lookup 15-2" uni0644 dx=-50 dy=0 dh=-50 dv=0 dx=0 dy=0 dh=0 dv=0
PairPos2: "'kern' Horizontal Kerning lookup 15-2" uniFEDB dx=-190 dy=0 dh=-190 dv=0 dx=0 dy=0 dh=0 dv=0
PairPos2: "'kern' Horizontal Kerning lookup 15-2" uni0643 dx=-150 dy=0 dh=-150 dv=0 dx=0 dy=0 dh=0 dv=0
PairPos2: "'kern' Horizontal Kerning lookup 15-2" uniFED7 dx=-150 dy=0 dh=-150 dv=0 dx=0 dy=0 dh=0 dv=0
PairPos2: "'kern' Horizontal Kerning lookup 15-2" uni0642 dx=-50 dy=0 dh=-50 dv=0 dx=0 dy=0 dh=0 dv=0
PairPos2: "'kern' Horizontal Kerning lookup 15-2" uniFED3 dx=-150 dy=0 dh=-150 dv=0 dx=0 dy=0 dh=0 dv=0
PairPos2: "'kern' Horizontal Kerning lookup 15-2" uni0641 dx=-150 dy=0 dh=-150 dv=0 dx=0 dy=0 dh=0 dv=0
PairPos2: "'kern' Horizontal Kerning lookup 15-2" uniFECF dx=-150 dy=0 dh=-150 dv=0 dx=0 dy=0 dh=0 dv=0
PairPos2: "'kern' Horizontal Kerning lookup 15-2" uniFECB dx=-150 dy=0 dh=-150 dv=0 dx=0 dy=0 dh=0 dv=0
PairPos2: "'kern' Horizontal Kerning lookup 15-2" uniFEC7 dx=-150 dy=0 dh=-150 dv=0 dx=0 dy=0 dh=0 dv=0
PairPos2: "'kern' Horizontal Kerning lookup 15-2" uni0638 dx=-150 dy=0 dh=-150 dv=0 dx=0 dy=0 dh=0 dv=0
PairPos2: "'kern' Horizontal Kerning lookup 15-2" uniFEC3 dx=-150 dy=0 dh=-150 dv=0 dx=0 dy=0 dh=0 dv=0
PairPos2: "'kern' Horizontal Kerning lookup 15-2" uni0637 dx=-150 dy=0 dh=-150 dv=0 dx=0 dy=0 dh=0 dv=0
PairPos2: "'kern' Horizontal Kerning lookup 15-2" uniFEBF dx=-150 dy=0 dh=-150 dv=0 dx=0 dy=0 dh=0 dv=0
PairPos2: "'kern' Horizontal Kerning lookup 15-2" uni0636 dx=-150 dy=0 dh=-150 dv=0 dx=0 dy=0 dh=0 dv=0
PairPos2: "'kern' Horizontal Kerning lookup 15-2" uniFEBB dx=-150 dy=0 dh=-150 dv=0 dx=0 dy=0 dh=0 dv=0
PairPos2: "'kern' Horizontal Kerning lookup 15-2" uni0635 dx=-150 dy=0 dh=-150 dv=0 dx=0 dy=0 dh=0 dv=0
PairPos2: "'kern' Horizontal Kerning lookup 15-2" uniFEB7 dx=-150 dy=0 dh=-150 dv=0 dx=0 dy=0 dh=0 dv=0
PairPos2: "'kern' Horizontal Kerning lookup 15-2" uni0634 dx=-150 dy=0 dh=-150 dv=0 dx=0 dy=0 dh=0 dv=0
PairPos2: "'kern' Horizontal Kerning lookup 15-2" uniFEB3 dx=-150 dy=0 dh=-150 dv=0 dx=0 dy=0 dh=0 dv=0
PairPos2: "'kern' Horizontal Kerning lookup 15-2" uni0633 dx=-150 dy=0 dh=-150 dv=0 dx=0 dy=0 dh=0 dv=0
PairPos2: "'kern' Horizontal Kerning lookup 15-2" uni0632 dx=-50 dy=0 dh=-50 dv=0 dx=0 dy=0 dh=0 dv=0
PairPos2: "'kern' Horizontal Kerning lookup 15-2" uni0631 dx=-50 dy=0 dh=-50 dv=0 dx=0 dy=0 dh=0 dv=0
PairPos2: "'kern' Horizontal Kerning lookup 15-2" uni0630 dx=-150 dy=0 dh=-150 dv=0 dx=0 dy=0 dh=0 dv=0
PairPos2: "'kern' Horizontal Kerning lookup 15-2" uni062F dx=-150 dy=0 dh=-150 dv=0 dx=0 dy=0 dh=0 dv=0
PairPos2: "'kern' Horizontal Kerning lookup 15-2" uniFEA7 dx=-150 dy=0 dh=-150 dv=0 dx=0 dy=0 dh=0 dv=0
PairPos2: "'kern' Horizontal Kerning lookup 15-2" uniFEA3 dx=-150 dy=0 dh=-150 dv=0 dx=0 dy=0 dh=0 dv=0
PairPos2: "'kern' Horizontal Kerning lookup 15-2" uniFE9F dx=-150 dy=0 dh=-150 dv=0 dx=0 dy=0 dh=0 dv=0
PairPos2: "'kern' Horizontal Kerning lookup 15-2" uniFE9B dx=-150 dy=0 dh=-150 dv=0 dx=0 dy=0 dh=0 dv=0
PairPos2: "'kern' Horizontal Kerning lookup 15-2" uni062B dx=-150 dy=0 dh=-150 dv=0 dx=0 dy=0 dh=0 dv=0
PairPos2: "'kern' Horizontal Kerning lookup 15-2" uniFE97 dx=-150 dy=0 dh=-150 dv=0 dx=0 dy=0 dh=0 dv=0
PairPos2: "'kern' Horizontal Kerning lookup 15-2" uni062A dx=-150 dy=0 dh=-150 dv=0 dx=0 dy=0 dh=0 dv=0
PairPos2: "'kern' Horizontal Kerning lookup 15-2" uni0629 dx=-150 dy=0 dh=-150 dv=0 dx=0 dy=0 dh=0 dv=0
PairPos2: "'kern' Horizontal Kerning lookup 15-2" uniFE91 dx=-50 dy=0 dh=-50 dv=0 dx=0 dy=0 dh=0 dv=0
PairPos2: "'kern' Horizontal Kerning lookup 15-2" uni0628 dx=-150 dy=0 dh=-150 dv=0 dx=0 dy=0 dh=0 dv=0
PairPos2: "'kern' Horizontal Kerning lookup 15-2" uni0627 dx=-190 dy=0 dh=-190 dv=0 dx=0 dy=0 dh=0 dv=0
PairPos2: "'kern' Horizontal Kerning lookup 15-2" uni0623 dx=-190 dy=0 dh=-190 dv=0 dx=0 dy=0 dh=0 dv=0
PairPos2: "'kern' Horizontal Kerning lookup 15-2" uni0622 dx=-190 dy=0 dh=-190 dv=0 dx=0 dy=0 dh=0 dv=0
PairPos2: "'kern' Horizontal Kerning lookup 15-2" uni0621 dx=-150 dy=0 dh=-150 dv=0 dx=0 dy=0 dh=0 dv=0
PairPos2: "'kern' Horizontal Kerning lookup 15-2" uniFB94 dx=-190 dy=0 dh=-190 dv=0 dx=0 dy=0 dh=0 dv=0
PairPos2: "'kern' Horizontal Kerning lookup 15-2" uniFB92 dx=-190 dy=0 dh=-190 dv=0 dx=0 dy=0 dh=0 dv=0
PairPos2: "'kern' Horizontal Kerning lookup 15-2" afii57509 dx=-190 dy=0 dh=-190 dv=0 dx=0 dy=0 dh=0 dv=0
PairPos2: "'kern' Horizontal Kerning lookup 15-2" afii57508 dx=-50 dy=0 dh=-50 dv=0 dx=0 dy=0 dh=0 dv=0
PairPos2: "'kern' Horizontal Kerning lookup 15-2" afii57506 dx=-150 dy=0 dh=-150 dv=0 dx=0 dy=0 dh=0 dv=0
PairPos2: "'kern' Horizontal Kerning lookup 15-2" afii57440 dx=-150 dy=0 dh=-150 dv=0 dx=0 dy=0 dh=0 dv=0
PairPos2: "'kern' Horizontal Kerning lookup 15-2" uniFE8B dx=-150 dy=0 dh=-150 dv=0 dx=0 dy=0 dh=0 dv=0
EndChar

StartChar: uniFEB2
Encoding: 65202 65202 191
Width: 2612
VWidth: 2304
GlyphClass: 2
Flags: W
AnchorPoint: "Anchor-10" 715.008 977.144 basechar 0
AnchorPoint: "Anchor-7" 491.136 -634.312 basechar 0
LayerCount: 2
Fore
SplineSet
1383.01660156 588.439453125 m 6,0,1
 1418.40722656 397.720703125 1418.40722656 397.720703125 1430.9921875 358.22265625 c 4,2,3
 1458 273 1458 273 1572.91601562 272.61328125 c 4,4,5
 1643 272 1643 272 1674.45898438 303.427734375 c 4,6,7
 1706.39453125 334.381835938 1706.39453125 334.381835938 1711.078125 409.967773438 c 6,8,-1
 1725.80664062 647.646484375 l 5,9,-1
 1931.32128906 647.646484375 l 5,10,-1
 1934.65722656 606.26171875 l 6,11,12
 1949 427 1949 427 1960.05273438 371.453125 c 4,13,14
 1982 259 1982 259 2083.02832031 262.029296875 c 4,15,16
 2160.03027344 265.000976562 2160.03027344 265.000976562 2173.0703125 414.602539062 c 6,17,-1
 2193.35644531 647.340820312 l 5,18,-1
 2391.1875 647.340820312 l 5,19,-1
 2427.01757812 420.220703125 l 6,20,21
 2443 320 2443 320 2476.82421875 295.592773438 c 4,22,23
 2509.42675781 271.424804688 2509.42675781 271.424804688 2604.59375 271.424804688 c 6,24,-1
 2622.71679688 271.424804688 l 5,25,-1
 2622.71679688 0.5283203125 l 5,26,-1
 2574.58789062 0.5283203125 l 6,27,28
 2395 1 2395 1 2305.48925781 97.1015625 c 5,29,30
 2220 -1 2220 -1 2065.02734375 -0.029296875 c 132,-1,31
 1910 1 1910 1 1825.53710938 100.50390625 c 5,32,33
 1746 -1 1746 -1 1595.18359375 -1.0556640625 c 4,34,35
 1493 -1 1493 -1 1437.18847656 17.837890625 c 5,36,37
 1387 -364 1387 -364 1000.7109375 -442.330078125 c 4,38,39
 907 -461 907 -461 794.31640625 -461.4296875 c 4,40,41
 452 -461 452 -461 271.421875 -309.51953125 c 132,-1,42
 91 -158 91 -158 91.251953125 138.345703125 c 4,43,44
 91 305.124023438 91 305.124023438 168.728515625 529.5 c 6,45,-1
 181.764648438 567.130859375 l 5,46,-1
 434.348632812 512.87109375 l 5,47,-1
 417.83984375 464.891601562 l 6,48,49
 353 275 353 275 352.685546875 118.431640625 c 4,50,51
 353 -39 353 -39 453.501953125 -120.1640625 c 4,52,53
 554 -202 554 -202 776.6171875 -201.82421875 c 4,54,55
 999 -202 999 -202 1101.03710938 -122.76171875 c 4,56,57
 1203 -44 1203 -44 1203.0859375 122.990234375 c 132,-1,58
 1203 289.947265625 1203 289.947265625 1139.421875 535.587890625 c 6,59,-1
 1127.65917969 581.034179688 l 5,60,-1
 1374.57714844 633.918945312 l 5,61,-1
 1383.01660156 588.439453125 l 6,0,1
EndSplineSet
EndChar

StartChar: uniFEB3
Encoding: 65203 65203 192
Width: 1589
VWidth: 2304
GlyphClass: 2
Flags: W
AnchorPoint: "Anchor-10" 725.448 1053.18 basechar 0
AnchorPoint: "Anchor-7" 738.12 -234.616 basechar 0
LayerCount: 2
Fore
SplineSet
1102.22705078 263.631835938 m 0,0,1
 1255 264 1255 264 1255.26855469 473.402832031 c 0,2,3
 1254.99917671 581.329853922 1254.99917671 581.329853922 1194.14550781 691.568359375 c 2,4,-1
 1170.06640625 735.188476562 l 1,5,-1
 1387.37304688 827.758789062 l 1,6,-1
 1408.49414062 799.143554688 l 2,7,8
 1498 678 1498 678 1497.71620104 447.07842178 c 0,9,10
 1498 216 1498 216 1354.07910156 87.443359375 c 0,11,12
 1253 -2 1253 -2 1097.38574219 -2.10546875 c 0,13,14
 942 -2 942 -2 867.434570312 93.154296875 c 1,15,16
 790 -2 790 -2 606.73828125 -1.03076171875 c 0,17,18
 424 -0 424 -0 336.095703125 96.0869140625 c 1,19,20
 247 0 247 0 32.923828125 0 c 2,21,-1
 -13.87109375 0 l 5,22,-1
 -13.87109375 271.002929688 l 5,23,-1
 5.6201171875 271.002929688 l 2,24,25
 184.776796732 271.000003645 184.776796732 271.000003645 213.091796875 442.678710938 c 2,26,-1
 246.622070312 645.978515625 l 1,27,-1
 427.837890625 645.978515625 l 1,28,-1
 449.080078125 440.010742188 l 2,29,30
 467 265 467 265 618.428710938 264.13671875 c 0,31,32
 667 264 667 264 691.60546875 273.99609375 c 0,33,34
 738.067391221 293.02760447 738.067391221 293.02760447 745.756835938 361.029296875 c 2,35,-1
 777.739257812 643.866210938 l 1,36,-1
 973.432617188 643.866210938 l 1,37,-1
 1002.38574219 384.286132812 l 2,38,39
 1010 316 1010 316 1034.44628906 289.96484375 c 128,-1,40
 1059 264 1059 264 1102.22705078 263.631835938 c 0,0,1
EndSplineSet
EndChar

StartChar: uniFEB4
Encoding: 65204 65204 193
Width: 1623
VWidth: 2299
GlyphClass: 2
Flags: W
AnchorPoint: "Anchor-10" 671.088 1047.9 basechar 0
AnchorPoint: "Anchor-7" 729.168 -207.16 basechar 0
LayerCount: 2
Fore
SplineSet
1349.95117188 90.880859375 m 1,0,1
 1281 1 1281 1 1117.6009182 1.0556640625 c 0,2,3
 954 1 954 1 872.126953125 99.7216796875 c 1,4,5
 796 1 796 1 614.623046875 1.0556640625 c 0,6,7
 433 1 433 1 345.041015625 103.295898438 c 1,8,9
 248 0 248 0 76.2509765625 0 c 2,10,-1
 -17.41015625 0 l 1,11,-1
 -17.41015625 271 l 1,12,-1
 38.484375 271.001953125 l 1,13,14
 153 272 153 272 193.064453125 330.962890625 c 0,15,16
 212.969766912 359.955964013 212.969766912 359.955964013 219.677734375 406.896484375 c 2,17,-1
 254.038085938 647.340820312 l 1,18,-1
 434.088867188 647.340820312 l 1,19,-1
 464.034179688 434.34765625 l 2,20,21
 477 344 477 344 514.176757812 305.162109375 c 0,22,23
 552 267 552 267 613.348632812 266.799804688 c 0,24,25
 675 267 675 267 704.858886719 295.078613281 c 0,26,27
 734.440508279 322.406954039 734.440508279 322.406954039 742.772460938 386.423828125 c 2,28,-1
 776.731445312 647.340820312 l 1,29,-1
 967.259765625 647.340820312 l 1,30,-1
 998.1953125 388.396484375 l 2,31,32
 1010 287 1010 287 1078.34863281 270.935546875 c 0,33,34
 1198.55810364 243.102316425 1198.55810364 243.102316425 1215.87304688 397.954101562 c 2,35,-1
 1243.83398438 648.015625 l 1,36,-1
 1438.31738281 648.015625 l 1,37,-1
 1466.6015625 394.607421875 l 2,38,39
 1474 329 1474 329 1509.31542969 300.7265625 c 0,40,41
 1545.05822883 271.953125 1545.05822883 271.953125 1622.49121094 271.953125 c 2,42,-1
 1631.36328125 271.953125 l 5,43,-1
 1631.36328125 0 l 5,44,-1
 1575.19335938 0 l 2,45,46
 1429 0 1429 0 1349.95117188 90.880859375 c 1,0,1
EndSplineSet
EndChar

StartChar: uniFEBA
Encoding: 65210 65210 199
Width: 2569
VWidth: 2304
GlyphClass: 2
Flags: W
AnchorPoint: "Anchor-10" 544.823 940.184 basechar 0
AnchorPoint: "Anchor-7" 441.504 -696.616 basechar 0
LayerCount: 2
Fore
SplineSet
1660.03417969 281.940429688 m 5,0,-1
 1765.48535156 281.940429688 l 6,1,2
 2009.74804688 282.291015625 2009.74804688 282.291015625 2067.62402344 289.404296875 c 4,3,4
 2190.74804688 305.291015625 2190.74804688 305.291015625 2190.859375 462.844726562 c 4,5,6
 2190.74804688 518.291015625 2190.74804688 518.291015625 2164.74804688 556.791015625 c 4,7,8
 2135.74804688 599.291015625 2135.74804688 599.291015625 2073.06933594 599.159179688 c 4,9,10
 1914.74804688 599.291015625 1914.74804688 599.291015625 1660.03417969 281.940429688 c 5,0,-1
1442.60839844 394.403320312 m 5,11,12
 1768 860 1768 860 2057.27148438 860.291992188 c 4,13,14
 2254 860 2254 860 2350.08984375 744.772460938 c 4,15,16
 2446 629 2446 629 2440.37695312 425.673828125 c 4,17,18
 2438 350 2438 350 2420.73535156 286.752929688 c 5,19,20
 2462.26855469 270.897460938 2462.26855469 270.897460938 2559.20605469 270.897460938 c 6,21,-1
 2577.68847656 270.897460938 l 5,22,-1
 2577.68847656 0 l 5,23,-1
 2536.60839844 0 l 6,24,25
 2346 0 2346 0 2257.12695312 83.1025390625 c 5,26,27
 2088.94140625 -3.5146484375 2088.94140625 -3.5146484375 1711.68164062 -0.70703125 c 6,28,-1
 1616.55566406 0.0009765625 l 6,29,30
 1499 1 1499 1 1435.16699219 44.7177734375 c 5,31,32
 1393 -461 1393 -461 769.111328125 -461.212890625 c 4,33,34
 452 -461 452 -461 271.87109375 -309.30078125 c 4,35,36
 92 -157 92 -157 91.251953125 138.290039062 c 4,37,38
 91.0009765625 305.592773438 91.0009765625 305.592773438 168.73828125 529.528320312 c 6,39,-1
 181.790039062 567.125976562 l 5,40,-1
 434.272460938 512.887695312 l 5,41,-1
 417.862304688 464.956054688 l 6,42,43
 353 275 353 275 352.953125 118.59375 c 132,-1,44
 353 -38 353 -38 454.673828125 -120.149414062 c 4,45,46
 556 -202 556 -202 779.130859375 -202 c 4,47,48
 1002 -202 1002 -202 1102.89746094 -122.954101562 c 4,49,50
 1204 -44 1204 -44 1203.00097656 126.084960938 c 132,-1,51
 1201.99902344 296.219726562 1201.99902344 296.219726562 1139.44921875 535.481445312 c 6,52,-1
 1127.546875 581.009765625 l 5,53,-1
 1376.63476562 634.359375 l 5,54,-1
 1383.16015625 586.231445312 l 6,55,56
 1404 436 1404 436 1442.60839844 394.403320312 c 5,11,12
EndSplineSet
EndChar

StartChar: uniFEBB
Encoding: 65211 65211 200
Width: 1547
VWidth: 2304
GlyphClass: 2
Flags: W
AnchorPoint: "Anchor-10" 546.772 1175.99 basechar 0
AnchorPoint: "Anchor-7" 546.772 -188.152 basechar 0
LayerCount: 2
Fore
SplineSet
675.125976562 282.649414062 m 1,0,-1
 780.577148438 282.649414062 l 2,1,2
 1024.83984375 283 1024.83984375 283 1082.71582031 290.11328125 c 0,3,4
 1205.83984375 306 1205.83984375 306 1205.95117188 463.553710938 c 0,5,6
 1205.83984375 519 1205.83984375 519 1179.83984375 557.5 c 0,7,8
 1150.83984375 600 1150.83984375 600 1088.16113281 599.868164062 c 0,9,10
 929.83984375 600 929.83984375 600 675.125976562 282.649414062 c 1,0,-1
471.510742188 414.623046875 m 1,11,12
 790 861 790 861 1082.37597656 861 c 0,13,14
 1272 861 1272 861 1365.61552892 746.259765625 c 0,15,16
 1460 631 1460 631 1455.48046875 426.685546875 c 0,17,18
 1450 180 1450 180 1281.34619141 88.3852539062 c 0,19,20
 1112 -3 1112 -3 750.147460938 -0.0869140625 c 0,21,22
 739 0 739 0 726.9453125 0 c 2,23,-1
 631.641601562 0.708984375 l 2,24,25
 442 2 442 2 332.716796875 134.3359375 c 1,26,27
 211 0 211 0 32.173828125 0 c 2,28,-1
 -15.982421875 0 l 1,29,-1
 -15.982421875 271.002929688 l 1,30,-1
 5.3720703125 271.002929688 l 6,31,32
 109 271 109 271 155.368164062 350.51171875 c 0,33,34
 179.617304657 393.083746065 179.617304657 393.083746065 189.359375 459.876953125 c 2,35,-1
 216.65234375 647.001953125 l 1,36,-1
 415.380859375 647.001953125 l 1,37,-1
 444.227539062 504.890625 l 2,38,39
 455 451 455 451 471.510742188 414.623046875 c 1,11,12
EndSplineSet
EndChar

StartChar: uniFEBC
Encoding: 65212 65212 201
Width: 1626
VWidth: 2304
GlyphClass: 2
Flags: W
AnchorPoint: "Anchor-10" 604.008 1244.31 basechar 0
AnchorPoint: "Anchor-7" 633.576 -221.944 basechar 0
LayerCount: 2
Fore
SplineSet
674.8828125 282.649414062 m 1,0,-1
 780.333984375 282.649414062 l 2,1,2
 1024.59667969 283 1024.59667969 283 1082.47265625 290.11328125 c 0,3,4
 1205.59667969 306 1205.59667969 306 1205.70800781 463.553710938 c 0,5,6
 1205.59667969 519 1205.59667969 519 1179.59667969 557.5 c 0,7,8
 1150.59667969 600 1150.59667969 600 1087.91796875 599.868164062 c 0,9,10
 929.596679688 600 929.596679688 600 674.8828125 282.649414062 c 1,0,-1
471.137695312 414.248046875 m 1,11,12
 789 861 789 861 1078.37597656 861 c 0,13,14
 1271 861 1271 861 1365.31774132 746.00390625 c 0,15,16
 1460 631 1460 631 1455.47851562 426.581054688 c 0,17,18
 1454 366 1454 366 1443.36816406 316.588867188 c 1,19,20
 1486 283 1486 283 1527.00320402 277.050905048 c 0,21,22
 1562.33242928 271.424804689 1562.33242928 271.424804689 1615.66601562 271.424804688 c 2,23,-1
 1634.1484375 271.424804688 l 5,24,-1
 1634.1484375 0.5283203125 l 5,25,-1
 1593.00683594 0.5283203125 l 2,26,27
 1396 1 1396 1 1299.74316406 99.2197265625 c 1,28,29
 1135 -3 1135 -3 750.161132812 -0.0869140625 c 0,30,31
 739 0 739 0 726.9453125 0 c 2,32,-1
 631.641601562 0.708984375 l 2,33,34
 440 2 440 2 332.56640625 133.399414062 c 1,35,36
 212 0 212 0 32.173828125 0 c 2,37,-1
 -15.982421875 0 l 1,38,-1
 -15.982421875 271.002929688 l 1,39,-1
 -4.6279296875 271.002929688 l 2,40,41
 109 271 109 271 155.368164062 350.51171875 c 0,42,43
 179.472335433 392.089813663 179.472335433 392.089813663 189.359375 459.876953125 c 2,44,-1
 216.65234375 647.001953125 l 1,45,-1
 415.380859375 647.001953125 l 1,46,-1
 444.227539062 504.890625 l 2,47,48
 456 449 456 449 471.137695312 414.248046875 c 1,11,12
EndSplineSet
EndChar

StartChar: uniFEC2
Encoding: 65218 65218 207
Width: 1513
VWidth: 2304
GlyphClass: 2
Flags: W
AnchorPoint: "Anchor-7" 594.713 -226.84 basechar 0
AnchorPoint: "Anchor-10" 396.804 1547.67 basechar 0
LayerCount: 2
Fore
SplineSet
572.286132812 282.649414062 m 5,0,-1
 677.737304688 282.649414062 l 6,1,2
 922 283 922 283 979.875976562 290.11328125 c 4,3,4
 1103 306 1103 306 1103.11132812 463.553710938 c 4,5,6
 1103 519 1103 519 1077 557.5 c 4,7,8
 1048 600 1048 600 985.3203125 599.868164062 c 4,9,10
 827 600 827 600 572.286132812 282.649414062 c 5,0,-1
1185.89550781 92.8994140625 m 5,11,12
 1025 0 1025 0 639 0 c 6,13,-1
 91.095703125 0 l 5,14,-1
 91.095703125 270.86328125 l 5,15,-1
 262.15234375 271.004882812 l 5,16,17
 282 303 282 303 303.521484375 333.99609375 c 5,18,-1
 303.521484375 1470.9765625 l 5,19,-1
 561.74609375 1470.9765625 l 5,20,-1
 561.74609375 644.528320312 l 5,21,22
 782 861 782 861 974.752929688 861 c 4,23,24
 1168 861 1168 861 1262.34863281 746 c 4,25,26
 1357 631 1357 631 1352.63769531 426.584960938 c 4,27,28
 1351 359 1351 359 1337.95800781 304.802734375 c 5,29,30
 1375.52148438 271.424804688 1375.52148438 271.424804688 1494.44140625 271.424804688 c 6,31,-1
 1521.91113281 271.424804688 l 5,32,-1
 1521.91113281 0.5283203125 l 5,33,-1
 1432.2109375 0.5283203125 l 6,34,35
 1286 1 1286 1 1185.89550781 92.8994140625 c 5,11,12
EndSplineSet
EndChar

StartChar: uniFEC3
Encoding: 65219 65219 208
Width: 1233
VWidth: 2304
GlyphClass: 2
Flags: W
AnchorPoint: "Anchor-10" 199.178 1544.5 basechar 0
AnchorPoint: "Anchor-7" 394.994 -221.944 basechar 0
LayerCount: 2
Fore
SplineSet
361.250976562 282.649414062 m 1,0,-1
 466.702148438 282.649414062 l 2,1,2
 710.96484375 283 710.96484375 283 768.840820312 290.11328125 c 0,3,4
 891.96484375 306 891.96484375 306 892.076171875 463.553710938 c 0,5,6
 891.96484375 519 891.96484375 519 865.96484375 557.5 c 0,7,8
 836.96484375 600 836.96484375 600 774.286132812 599.868164062 c 0,9,10
 615.96484375 600 615.96484375 600 361.250976562 282.649414062 c 1,0,-1
350.954101562 645.295898438 m 1,11,12
 569 861 569 861 763.400111372 861 c 128,-1,13
 958 861 958 861 1051.64864653 746.419921875 c 0,14,15
 1146 632 1146 632 1141.85058594 426.765625 c 0,16,17
 1138 180 1138 180 966.805664062 88.3818359375 c 0,18,19
 796 -3 796 -3 436.48828125 -0.0859375 c 0,20,21
 428 0 428 0 419.736328125 0 c 2,22,-1
 -26.1201171875 0 l 5,23,-1
 -26.1201171875 270.84765625 l 5,24,-1
 51.25 270.99609375 l 1,25,26
 71 303 71 303 92.7294921875 334.076171875 c 1,27,-1
 92.7294921875 1470.9765625 l 1,28,-1
 350.954101562 1470.9765625 l 1,29,-1
 350.954101562 645.295898438 l 1,11,12
EndSplineSet
EndChar

StartChar: uniFEC4
Encoding: 65220 65220 209
Width: 1301
VWidth: 2304
GlyphClass: 2
Flags: W
AnchorPoint: "Anchor-10" 170.877 1542.18 basechar 0
AnchorPoint: "Anchor-7" 428.307 -238.84 basechar 0
LayerCount: 2
Fore
SplineSet
316.494140625 282.649414062 m 1,0,-1
 421.9453125 282.649414062 l 2,1,2
 666.208007812 283 666.208007812 283 724.083984375 290.11328125 c 0,3,4
 847.208007812 306 847.208007812 306 847.319335938 463.553710938 c 0,5,6
 847.208007812 519 847.208007812 519 821.208007812 557.5 c 0,7,8
 792.208007812 600 792.208007812 600 729.529296875 599.868164062 c 0,9,10
 571.208007812 600 571.208007812 600 316.494140625 282.649414062 c 1,0,-1
305.954101562 644.58203125 m 1,11,12
 526 861 526 861 719.612304688 861 c 0,13,14
 913 861 913 861 1007.42285156 745.813476562 c 0,15,16
 1102 631 1102 631 1096.84375 426.471679688 c 0,17,18
 1095 360 1095 360 1082.046875 304.849609375 c 1,19,20
 1119.52369715 271.424804688 1119.52369715 271.424804688 1238.64941406 271.424804688 c 2,21,-1
 1311.11914062 271.424804688 l 1,22,-1
 1311.11914062 0.5283203125 l 1,23,-1
 1176.41894531 0.5283203125 l 2,24,25
 1031 1 1031 1 929.748046875 93.3955078125 c 1,26,27
 764 0 764 0 374.736328125 0 c 2,28,-1
 -60.5595703125 0 l 5,29,-1
 -60.5595703125 270.842773438 l 5,30,-1
 6.28125 270.993164062 l 1,31,32
 26 303 26 303 47.7294921875 334.060546875 c 1,33,-1
 47.7294921875 1470.9765625 l 1,34,-1
 305.954101562 1470.9765625 l 1,35,-1
 305.954101562 644.58203125 l 1,11,12
EndSplineSet
EndChar

StartChar: uniFECA
Encoding: 65226 65226 215
Width: 1218
VWidth: 2304
GlyphClass: 2
Flags: W
AnchorPoint: "Anchor-10" 631.808 1148.22 basechar 0
AnchorPoint: "Anchor-7" 454.072 -687.26 basechar 0
LayerCount: 2
Fore
SplineSet
712.137695312 724.381835938 m 5,0,1
 784.057617188 760.338867188 784.057617188 760.338867188 808.442382812 786.415039062 c 5,2,3
 783.291015625 794.120117188 783.291015625 794.120117188 728.599609375 794.77734375 c 132,-1,4
 673.907226562 795.43359375 673.907226562 795.43359375 650.470703125 784.678710938 c 5,5,6
 662.96484375 761.6875 662.96484375 761.6875 712.137695312 724.381835938 c 5,0,1
1209.06347656 0.5283203125 m 6,7,8
 811.9765625 1.4736328125 811.9765625 1.4736328125 606.654296875 405.3515625 c 5,9,10
 339.666015625 262.086914062 339.666015625 262.086914062 340.16796875 31.9033203125 c 4,11,12
 340 -118 340 -118 448.5 -203 c 132,-1,13
 557 -288 557 -288 774.680664062 -287.774414062 c 4,14,15
 923.896484375 -287.998046875 923.896484375 -287.998046875 1032.98242188 -249.526367188 c 6,16,-1
 1078.01757812 -233.643554688 l 5,17,-1
 1144.83789062 -466.280273438 l 5,18,-1
 1108.09179688 -481.811523438 l 6,19,20
 974 -539 974 -539 749.970703125 -536.120117188 c 4,21,22
 432 -533 432 -533 260.5 -379.5 c 132,-1,23
 89 -226 89 -226 91.5 41 c 132,-1,24
 94 308 94 308 326.041015625 497.2734375 c 4,25,26
 400 558 400 558 476.904296875 599.975585938 c 5,27,28
 460.46875 616.745117188 460.46875 616.745117188 396.756835938 680.111328125 c 132,-1,29
 333.044921875 743.477539062 333.044921875 743.477539062 321.022460938 798.23828125 c 132,-1,30
 309 853 309 853 380.645507812 922.017578125 c 4,31,32
 517 1056 517 1056 725 1056.5 c 132,-1,33
 933 1057 933 1057 1095.61132812 920.866210938 c 4,34,35
 1147 878 1147 878 1148.68847656 813.853515625 c 132,-1,36
 1150.37597656 749.708007812 1150.37597656 749.708007812 1070.94433594 681.583984375 c 132,-1,37
 991.51171875 613.459960938 991.51171875 613.459960938 818.735351562 520.182617188 c 5,38,39
 874 393 874 393 964.185546875 332.212890625 c 132,-1,40
 1054.37109375 271.424804688 1054.37109375 271.424804688 1190.93066406 271.424804688 c 6,41,-1
 1241.02734375 271.424804688 l 5,42,-1
 1241.02734375 0.5283203125 l 5,43,-1
 1209.06347656 0.5283203125 l 6,7,8
EndSplineSet
EndChar

StartChar: uniFECB
Encoding: 65227 65227 216
Width: 1092
VWidth: 2304
GlyphClass: 2
Flags: W
AnchorPoint: "Anchor-10" 448.528 1239.8 basechar 0
AnchorPoint: "Anchor-7" 416.146 -231.976 basechar 0
LayerCount: 2
Fore
SplineSet
182.62890625 271.025390625 m 1,0,1
 115.302215125 358.311730604 115.302215125 358.311730604 113.004882812 482.30859375 c 0,2,3
 109 712 109 712 297.41796875 840.721679688 c 0,4,5
 453.338058923 945.902631023 453.338058923 945.902631023 668.602539062 907.571289062 c 0,6,7
 820.056999346 881.164417063 820.056999346 881.164417063 910.559570312 776.239257812 c 2,8,-1
 929.20703125 754.620117188 l 1,9,-1
 837.182617188 547.987304688 l 1,10,-1
 791.100585938 590.217773438 l 2,11,12
 710.118228916 664.661815797 710.118228916 664.661815797 593.69302049 664.737554424 c 128,-1,13
 477.267812064 664.813293052 477.267812064 664.813293052 413.180664062 597.041015625 c 0,14,15
 375.052799573 557.287666082 375.052799573 557.287666082 373.026399786 492.143833041 c 0,16,17
 368.785520703 355.80986733 368.785520703 355.80986733 591.033203125 304.541015625 c 1,18,-1
 1000.3515625 392.045898438 l 1,19,-1
 1000.3515625 116.138671875 l 1,20,-1
 962.21875 110.250976562 l 2,21,22
 869 96 869 96 751.5 65.5 c 128,-1,23
 634 35 634 35 562.954108937 17.4886667448 c 128,-1,24
 491.908217874 -0.0226665104398 491.908217874 -0.0226665104398 367.311523438 -0.0166015625 c 2,25,-1
 -13.87109375 0.001953125 l 5,26,-1
 -13.87109375 270.998046875 l 5,27,-1
 182.62890625 271.025390625 l 1,0,1
EndSplineSet
EndChar

StartChar: uniFECC
Encoding: 65228 65228 217
Width: 984
VWidth: 2304
GlyphClass: 2
Flags: W
AnchorPoint: "Anchor-10" 490.597 1166.17 basechar 0
AnchorPoint: "Anchor-7" 474.757 -231.976 basechar 0
LayerCount: 2
Fore
SplineSet
567.87890625 567.985351562 m 1,0,1
 545.108677545 574.466796875 545.108677545 574.466796875 503.100625473 574.466796875 c 128,-1,2
 461.092573401 574.466796875 461.092573401 574.466796875 438.3203125 567.985351562 c 1,3,4
 458.916992188 547.834960938 458.916992188 547.834960938 503.099609375 516.450195312 c 1,5,6
 547.282226562 547.834960938 547.282226562 547.834960938 567.87890625 567.985351562 c 1,0,1
491.596679688 157.01171875 m 1,7,8
 306 0 306 0 43.1484375 0 c 2,9,-1
 -17.54296875 0 l 5,10,-1
 -17.54296875 271.002929688 l 5,11,-1
 18.2861328125 271.002929688 l 2,12,13
 223 271 223 271 327.802734375 357.7734375 c 1,14,15
 87 486 87 486 86.974609375 575.294921875 c 0,16,17
 87 700 87 700 266.557617188 784.592773438 c 0,18,19
 367 832 367 832 498.431640625 831.759765625 c 0,20,21
 630 832 630 832 730.002929688 784.590820312 c 0,22,23
 913 699 913 699 912.970703125 579.259765625 c 0,24,25
 913 539 913 539 843.0078125 476.112304688 c 0,26,27
 793 432 793 432 665.91796875 357.399414062 c 1,28,29
 765 270 765 270 962.596679688 271.001953125 c 1,30,-1
 999.791015625 271.8515625 l 1,31,-1
 999.791015625 0.5283203125 l 1,32,-1
 938.088867188 0.5283203125 l 2,33,34
 937 1 937 1 937.245117188 0.52734375 c 0,35,36
 937 1 937 1 936.358398438 0.5263671875 c 0,37,38
 670 1 670 1 491.596679688 157.01171875 c 1,7,8
EndSplineSet
EndChar

StartChar: uniFEDA
Encoding: 65242 65242 231
Width: 1934
VWidth: 2304
GlyphClass: 2
Flags: W
AnchorPoint: "Anchor-10" 612.984 1477.69 basechar 0
AnchorPoint: "Anchor-7" 825.24 -189.736 basechar 0
LayerCount: 2
Fore
SplineSet
1141.61328125 1342.69726562 m 1,0,-1
 1141.61328125 1195.5625 l 1,1,-1
 1099.84277344 1192.55664062 l 2,2,3
 976.508533415 1183.68197438 976.508533415 1183.68197438 930.7578125 1138.03417969 c 0,4,5
 926.416361178 1133.7024976 926.416361178 1133.7024976 925.182756306 1115.03706738 c 128,-1,6
 923.949151434 1096.37163715 923.949151434 1096.37163715 946.818325717 1088.41531076 c 128,-1,7
 969.6875 1080.45898438 969.6875 1080.45898438 1021.72167969 1072.80566406 c 0,8,9
 1151.41308594 1053.73032013 1151.41308594 1053.73032013 1151.41308594 928.387994527 c 128,-1,10
 1151.41308594 803.045668927 1151.41308594 803.045668927 1029.61084088 734.165333807 c 128,-1,11
 907.808595815 665.284998686 907.808595815 665.284998686 711.017578125 698.541015625 c 2,12,-1
 673.516601562 704.87890625 l 1,13,-1
 673.516601562 858.557617188 l 1,14,-1
 724.444335938 851.7890625 l 2,15,16
 786.497729857 843.54296875 786.497729857 843.54296875 842.593591491 843.54296875 c 128,-1,17
 898.689453125 843.54296875 898.689453125 843.54296875 949.942382812 863.434082031 c 128,-1,18
 1001.1953125 883.325195312 1001.1953125 883.325195312 1001.1953125 908.41156179 c 128,-1,19
 1001.1953125 933.497928268 1001.1953125 933.497928268 936.84765625 943.987304688 c 0,20,21
 770.670461294 969.306681331 770.670461294 969.306681331 774.086914062 1126.47949219 c 0,22,23
 776.755137926 1234.3525488 776.755137926 1234.3525488 873.326036098 1283.25073728 c 128,-1,24
 969.896934269 1332.14892577 969.896934269 1332.14892577 1093.85253906 1339.76171875 c 2,25,-1
 1141.61328125 1342.69726562 l 1,0,-1
1825.3984375 0.5283203125 m 6,26,27
 1664 1 1664 1 1571.79296875 106.708984375 c 1,28,29
 1359 -6 1359 -6 878 3.5 c 0,30,31
 603 9 603 9 471 45.5 c 0,32,33
 87.2079246428 151.665859807 87.2079246428 151.665859807 47.38671875 519.211914062 c 0,34,35
 33.0091021712 650.916620478 33.0091021712 650.916620478 86.388671875 800.262695312 c 2,36,-1
 99.4296875 836.749023438 l 1,37,-1
 346.16015625 788.216796875 l 1,38,-1
 337.71484375 744.224609375 l 2,39,40
 308 590 308 590 313.549804688 551.49609375 c 0,41,42
 328 451 328 451 395 388 c 0,43,44
 509 281 509 281 841.046875 271.868164062 c 0,45,46
 913 270 913 270 974.5 270 c 0,47,48
 1391.70448212 270 1391.70448212 270 1475.16796875 398.913085938 c 0,49,50
 1493.57078636 426.359852032 1493.57078636 426.359852032 1496.76660156 463.740234375 c 2,51,-1
 1500.66210938 509.3046875 l 1,52,-1
 1500.66210938 1471.4140625 l 1,53,-1
 1763.10058594 1471.4140625 l 1,54,-1
 1763.10058594 475.875976562 l 1,55,56
 1762 382 1762 382 1742.05664062 319.0625 c 1,57,58
 1789.57624835 271.424804689 1789.57624835 271.424804689 1887.54394531 271.424804688 c 2,59,-1
 1954.56054688 271.424804688 l 1,60,-1
 1954.56054688 0.5283203125 l 1,61,-1
 1825.3984375 0.5283203125 l 6,26,27
EndSplineSet
EndChar

StartChar: uniFEDB
Encoding: 65243 65243 232
Width: 988
VWidth: 2304
GlyphClass: 2
Flags: W
AnchorPoint: "Anchor-10" 269.288 1490.89 basechar 0
AnchorPoint: "Anchor-7" 369.08 -196.6 basechar 0
LayerCount: 2
Fore
SplineSet
747.026367188 173.9375 m 4,0,1
 636.751953125 0 636.751953125 0 357.147460938 0 c 6,2,-1
 -15.54296875 0 l 5,3,-1
 -15.54296875 270.999023438 l 5,4,-1
 313.5234375 271.028320312 l 6,5,6
 380.064453125 271.022460938 380.064453125 271.022460938 429.471679688 279.083984375 c 4,7,8
 470.762695312 285.8203125 470.762695312 285.8203125 497.42578125 296.1875 c 132,-1,9
 524.088867188 306.553710938 524.088867188 306.553710938 537 320.241210938 c 132,-1,10
 549.911132812 333.927734375 549.911132812 333.927734375 553.833007812 351.484375 c 132,-1,11
 557.75390625 369.041992188 557.75390625 369.041992188 553.561523438 390.16015625 c 4,12,13
 541.506835938 461.981445312 541.506835938 461.981445312 433.284179688 564.034179688 c 132,-1,14
 325.061523438 666.086914062 325.061523438 666.086914062 122.22265625 784.841796875 c 4,15,16
 19.552734375 846.16015625 19.552734375 846.16015625 18.9013671875 985.967773438 c 4,17,18
 18.9619140625 1056.08691406 18.9619140625 1056.08691406 55.8798828125 1110.42773438 c 132,-1,19
 92.7978515625 1164.76855469 92.7978515625 1164.76855469 160.594726562 1197.71191406 c 6,20,-1
 957.3515625 1584.86425781 l 5,21,-1
 957.3515625 1307.01855469 l 5,22,-1
 304.4140625 992.672851562 l 5,23,24
 579.7578125 791.420898438 579.7578125 791.420898438 641.686523438 722.513671875 c 4,25,26
 771.1328125 581.620117188 771.1328125 581.620117188 799.159179688 443.963867188 c 132,-1,27
 827.186523438 306.30859375 827.186523438 306.30859375 747.026367188 173.9375 c 4,0,1
EndSplineSet
EndChar

StartChar: uniFEDC
Encoding: 65244 65244 233
Width: 992
VWidth: 2304
GlyphClass: 2
Flags: W
AnchorPoint: "Anchor-10" 276.736 1461.32 basechar 0
AnchorPoint: "Anchor-7" 384.976 -266.296 basechar 0
LayerCount: 2
Fore
SplineSet
982.756835938 0.5283203125 m 2,0,1
 791.38671875 0.5283203125 791.38671875 0.5283203125 698.548828125 113.810546875 c 1,2,3
 575 0 575 0 356.147460938 0 c 2,4,-1
 -16.54296875 0 l 1,5,-1
 -16.54296875 270.999023438 l 1,6,-1
 312.520507812 271.028320312 l 2,7,8
 486 271 486 271 533.237304688 317.920898438 c 0,9,10
 560 344 560 344 552.51953125 390.416992188 c 0,11,12
 541 465 541 465 432.70703125 566.719726562 c 0,13,14
 334.637695312 658.9375 334.637695312 658.9375 121.327148438 784.779296875 c 0,15,16
 18 846 18 846 17.8994140625 987.170898438 c 0,17,18
 18 1128.90917969 18 1128.90917969 159.594726562 1197.71191406 c 2,19,-1
 956.3515625 1584.86425781 l 1,20,-1
 956.3515625 1307.01855469 l 1,21,-1
 303.323242188 992.62890625 l 1,22,23
 578 791 578 791 640.623046875 722.583007812 c 0,24,25
 759 593 759 593 815.874023438 411.665039062 c 0,26,27
 839 337 839 337 877.614257812 304.006835938 c 0,28,29
 915.505859375 271.424804688 915.505859375 271.424804688 975.010742188 271.424804688 c 2,30,-1
 1010.11523438 271.424804688 l 1,31,-1
 1010.11523438 0.5283203125 l 1,32,-1
 982.756835938 0.5283203125 l 2,0,1
EndSplineSet
EndChar

StartChar: uniFEDE
Encoding: 65246 65246 235
Width: 1429
VWidth: 2304
GlyphClass: 2
Flags: W
AnchorPoint: "Anchor-10" 468.84 976.088 basechar 0
AnchorPoint: "Anchor-7" 377.855 -691.125 basechar 0
LayerCount: 2
Fore
SplineSet
1405.88867188 0.5283203125 m 2,0,1
 1303.00873188 0.5283203125 1303.00873188 0.5283203125 1226.95703125 36.08984375 c 1,2,3
 1204 -194 1204 -194 1075.52734375 -333.72265625 c 0,4,5
 922 -500 922 -500 650.5 -499.5 c 128,-1,6
 379 -499 379 -499 212.5 -353.5 c 128,-1,7
 46 -208 46 -208 46.6884765625 69.04296875 c 0,8,9
 47.0005205943 212.238898936 47.0005205943 212.238898936 96.318359375 342.346679688 c 2,10,-1
 109.947265625 378.301757812 l 1,11,-1
 349.72265625 328.2734375 l 1,12,-1
 336.388671875 281.720703125 l 2,13,14
 246 -32 246 -32 384.327148438 -161.691894531 c 0,15,16
 468 -240 468 -240 645.5 -239.5 c 128,-1,17
 823 -239 823 -239 898.674129268 -162.824674981 c 128,-1,18
 974.348258645 -86.6494352033 974.348258645 -86.6494352033 974.140625 76.7001953125 c 2,19,-1
 973.686523438 433.951171875 l 1,20,-1
 973.686523438 1470.27636719 l 1,21,-1
 1230.85546875 1470.27636719 l 5,22,-1
 1230.85546875 469.034179688 l 2,23,24
 1231 361 1231 361 1268.82186952 316.212402344 c 128,-1,25
 1306.64128761 271.424804689 1306.64128761 271.424804689 1390.95996094 271.424804688 c 2,26,-1
 1434.74414062 271.424804688 l 1,27,-1
 1434.74414062 0.5283203125 l 1,28,-1
 1405.88867188 0.5283203125 l 2,0,1
EndSplineSet
EndChar

StartChar: uniFEDF
Encoding: 65247 65247 236
Width: 578
VWidth: 2304
GlyphClass: 2
Flags: W
AnchorPoint: "Anchor-10" 305.403 1546.67 basechar 0
AnchorPoint: "Anchor-7" 243.099 -214.024 basechar 0
LayerCount: 2
Fore
SplineSet
452.467773438 507.424804688 m 2,0,1
 452.467773438 256.507249643 452.467773438 256.507249643 333.733886719 128.253624821 c 128,-1,2
 215 0 215 0 56.1552734375 0 c 2,3,-1
 -60.982421875 0 l 1,4,-1
 -60.982421875 271.002929688 l 1,5,-1
 4.5712890625 271.002929688 l 2,6,7
 90 271 90 271 142.12109375 336.152484736 c 128,-1,8
 194.2421875 401.304969472 194.2421875 401.304969472 194.2421875 520.983398438 c 2,9,-1
 194.2421875 1470.48730469 l 5,10,-1
 452.467773438 1470.48730469 l 5,11,-1
 452.467773438 507.424804688 l 2,0,1
EndSplineSet
EndChar

StartChar: uniFEE0
Encoding: 65248 65248 237
Width: 686
VWidth: 2304
GlyphClass: 2
Flags: W
AnchorPoint: "Anchor-10" 334.467 1543.45 basechar 0
AnchorPoint: "Anchor-7" 257.379 -211.912 basechar 0
LayerCount: 2
Fore
SplineSet
602.72265625 0 m 2,0,1
 454 0 454 0 344.123046875 96.4990234375 c 1,2,3
 236 0 236 0 85.2197265625 0 c 2,4,-1
 -12.2626953125 0 l 1,5,-1
 -12.2626953125 271.002929688 l 1,6,-1
 23.0654296875 271.002929688 l 2,7,8
 125 271 125 271 170.02734375 317.025390625 c 128,-1,9
 214.858398438 362.855243674 214.858398438 362.855243674 214.858398438 469.0078125 c 2,10,-1
 214.858398438 1470.35742188 l 1,11,-1
 473.083984375 1470.35742188 l 1,12,-1
 473.083984375 468.98046875 l 2,13,14
 473 330 473 330 554.3515625 291.076171875 c 0,15,16
 595.993922299 271.002929689 595.993922299 271.002929689 664.868164062 271.002929688 c 2,17,-1
 700.204101562 271.002929688 l 1,18,-1
 700.204101562 0 l 1,19,-1
 602.72265625 0 l 2,0,1
EndSplineSet
EndChar

StartChar: uniFEE2
Encoding: 65250 65250 239
Width: 1147
VWidth: 2304
GlyphClass: 2
Flags: W
AnchorPoint: "Anchor-10" 596.208 1167.75 basechar 0
AnchorPoint: "Anchor-7" 221.719 -631.798 basechar 0
LayerCount: 2
Fore
SplineSet
646.06640625 522.7265625 m 4,0,1
 543.783203125 520.993164062 543.783203125 520.993164062 543.77734375 367.799804688 c 4,2,3
 543.775390625 333.21875 543.775390625 333.21875 543.760742188 312.146484375 c 5,4,5
 804.008789062 243.159179688 804.008789062 243.159179688 814.236328125 277.325195312 c 132,-1,6
 824.462890625 311.490234375 824.462890625 311.490234375 786.4765625 396.745117188 c 4,7,8
 726.786132812 524.309570312 726.786132812 524.309570312 646.06640625 522.7265625 c 4,0,1
1135.29589844 0 m 6,9,10
 1044 0 1044 0 964.45703125 58.9814453125 c 5,11,12
 869 0 869 0 700.895507812 23.625 c 4,13,14
 622 34 622 34 483.5 64.2109375 c 4,15,16
 445 73 445 73 420.676757812 59.69140625 c 4,17,18
 396 47 396 47 372.123046875 0.455078125 c 4,19,20
 348.391601562 -45.24609375 348.391601562 -45.24609375 348.391601562 -182.872070312 c 6,21,-1
 348.391601562 -539.616210938 l 5,22,-1
 91.095703125 -539.616210938 l 5,23,-1
 91.095703125 -168.087890625 l 6,24,25
 91 227 91 227 293.086914062 295.338867188 c 5,26,27
 286.048828125 568.095703125 286.048828125 568.095703125 439.5234375 706.223632812 c 4,28,29
 515 774 515 774 649.911132812 773.6484375 c 4,30,31
 785 774 785 774 893.063476562 660.338867188 c 4,32,33
 1001 547 1001 547 1049.75488281 328.212890625 c 4,34,35
 1063.33105469 269.967773438 1063.33105469 269.967773438 1119.45605469 269.967773438 c 6,36,-1
 1154.52832031 269.967773438 l 5,37,-1
 1154.52832031 0 l 5,38,-1
 1135.29589844 0 l 6,9,10
EndSplineSet
EndChar

StartChar: uniFEE3
Encoding: 65251 65251 240
Width: 910
VWidth: 2304
GlyphClass: 2
Flags: W
AnchorPoint: "Anchor-10" 356.049 1008.82 basechar 0
AnchorPoint: "Anchor-7" 362.385 -176.008 basechar 0
LayerCount: 2
Fore
SplineSet
217.629882812 80.0908203125 m 1,0,1
 138 0 138 0 -1.62890625 0 c 2,2,-1
 -13.87109375 0 l 1,3,-1
 -13.87109375 271.00390625 l 1,4,-1
 14.173828125 271.000976562 l 2,5,6
 48 271 48 271 63.822265625 297.931640625 c 1,7,8
 147 542 147 542 250.984375 669.302734375 c 0,9,10
 355 797 355 797 498.579589844 796.912109375 c 128,-1,11
 642 797 642 797 724.432617188 681.922851562 c 128,-1,12
 807 567 807 567 818.041015625 357.765625 c 0,13,14
 819 345 819 345 818.62890625 333.236328125 c 0,15,16
 819 134 819 134 675.279296875 45.30859375 c 0,17,18
 609 4 609 4 523.614257812 4.17578125 c 0,19,20
 333 4 333 4 217.629882812 80.0908203125 c 1,0,1
327.366210938 298.077148438 m 1,21,22
 434.276367188 249.598632812 434.276367188 249.598632812 508.958984375 248.290039062 c 0,23,24
 561.554316674 247.585512197 561.554316674 247.585512197 564.456872875 345.175336701 c 128,-1,25
 567.359429075 442.765161206 567.359429075 442.765161206 538.672851562 498.708007812 c 0,26,27
 521.09550432 532.987791443 521.09550432 532.987791443 489.32509591 532.990477753 c 128,-1,28
 457.5546875 532.993164062 457.5546875 532.993164062 413.134765625 476.764648438 c 128,-1,29
 368.715820312 420.53515625 368.715820312 420.53515625 327.366210938 298.077148438 c 1,21,22
EndSplineSet
EndChar

StartChar: uniFEE4
Encoding: 65252 65252 241
Width: 964
VWidth: 2304
GlyphClass: 2
Flags: W
AnchorPoint: "Anchor-10" 505.05 1095.42 basechar 0
AnchorPoint: "Anchor-7" 486.042 -196.072 basechar 0
LayerCount: 2
Fore
SplineSet
327.366210938 298.077148438 m 1,0,1
 434.276367188 249.598632812 434.276367188 249.598632812 508.956054688 248.290039062 c 0,2,3
 549.480192289 247.752094193 549.480192289 247.752094193 560.872573538 303.215720269 c 128,-1,4
 572.264954787 358.679346344 572.264954787 358.679346344 554.790680518 445.73322786 c 128,-1,5
 537.31640625 532.787109375 537.31640625 532.787109375 497.436035156 532.890136719 c 128,-1,6
 457.555664062 532.993164062 457.555664062 532.993164062 413.134765625 476.762695312 c 128,-1,7
 368.71484375 420.53125 368.71484375 420.53125 327.366210938 298.077148438 c 1,0,1
726.858398438 87.5703125 m 1,8,9
 644 4 644 4 523.614257812 4.17578125 c 0,10,11
 333 4 333 4 217.629882812 80.0908203125 c 1,12,13
 138 0 138 0 -1.62890625 0 c 2,14,-1
 -13.87109375 0 l 1,15,-1
 -13.87109375 271.00390625 l 1,16,-1
 14.1767578125 271.000976562 l 2,17,18
 52.8786203498 270.999921527 52.8786203498 270.999921527 62.3935546875 293.713867188 c 4,19,20
 142 539 142 539 248.719726562 667.915039062 c 0,21,22
 355 797 355 797 495.240234375 796.912109375 c 0,23,24
 766.929719405 797.000628723 766.929719405 797.000628723 811.002929688 436.861328125 c 0,25,26
 822 347 822 347 858.34765625 308.889648438 c 0,27,28
 893.88789438 271.119140625 893.88789438 271.119140625 961.759765625 271.119140625 c 2,29,-1
 971.381835938 271.119140625 l 1,30,-1
 971.381835938 1.0966796875 l 1,31,-1
 972.352539062 0.1474609375 l 2,32,33
 829 -3 829 -3 726.858398438 87.5703125 c 1,8,9
EndSplineSet
EndChar

StartChar: uniFEEA
Encoding: 65258 65258 247
Width: 1077
VWidth: 2304
GlyphClass: 2
Flags: W
AnchorPoint: "Anchor-10" 674.547 1221.18 basechar 0
AnchorPoint: "Anchor-7" 412.81 -196.6 basechar 0
LayerCount: 2
Fore
SplineSet
652.953125 406.009765625 m 1,0,-1
 642.596679688 602.0546875 l 1,1,2
 408 565 408 565 355.302734375 502.850585938 c 0,3,4
 331.911132812 475.737304688 331.911132812 475.737304688 349 444 c 0,5,6
 363 417 363 417 429.756835938 409.127929688 c 0,7,8
 540.338867188 393.99609375 540.338867188 393.99609375 652.953125 406.009765625 c 1,0,-1
1044.78320312 0 m 2,9,10
 797 0 797 0 709.50390625 174.021484375 c 1,11,12
 286 125 286 125 150.11328125 286.791015625 c 0,13,14
 93 354 93 354 91.58203125 455.680664062 c 0,15,16
 85 765 85 765 640.098632812 838.630859375 c 1,17,-1
 638.150390625 921.118164062 l 1,18,-1
 875.444335938 934.057617188 l 1,19,-1
 884.775390625 488.526367188 l 2,20,21
 887 371 887 371 930.189453125 321.133789062 c 0,22,23
 972.809570312 271.22265625 972.809570312 271.22265625 1064.8359375 271.024414062 c 2,24,-1
 1089.27441406 270.971679688 l 1,25,-1
 1089.27441406 0 l 1,26,-1
 1044.78320312 0 l 2,9,10
EndSplineSet
EndChar

StartChar: uniFEEB
Encoding: 65259 65259 248
Width: 1248
VWidth: 2304
GlyphClass: 2
Flags: W
AnchorPoint: "Anchor-10" 434.31 1367.58 basechar 0
AnchorPoint: "Anchor-7" 383.349 -200.767 basechar 0
LayerCount: 2
Fore
SplineSet
343.63671875 316.911132812 m 1,0,1
 431.7890625 352.270507812 431.7890625 352.270507812 476.622070312 393.065429688 c 0,2,3
 556.985351562 464.243164062 556.985351562 464.243164062 556.946289062 519.248046875 c 0,4,5
 556.980725358 545.760548632 556.980725358 545.760548632 530.634405648 579.763575097 c 0,6,7
 492.010999901 629.611626068 492.010999901 629.611626068 429.704068483 604.237987319 c 128,-1,8
 367.397137065 578.864348571 367.397137065 578.864348571 330.351888845 520.653853973 c 0,9,10
 248.803414929 392.513883843 248.803414929 392.513883843 343.63671875 316.911132812 c 1,0,1
646.451171875 252.59765625 m 1,11,12
 716.382381106 240.961914062 716.382381106 240.961914062 781.157010865 240.961914062 c 0,13,14
 906.173025316 240.961914062 906.173025316 240.961914062 920.78515625 318.543945312 c 0,15,16
 927.77875961 355.630526466 927.77875961 355.630526466 888.624023438 418.698242188 c 0,17,18
 855.295898438 472.380859375 855.295898438 472.380859375 786.931640625 538.4453125 c 1,19,20
 787.275390625 531.103515625 787.275390625 531.103515625 787.275390625 524.458984375 c 0,21,22
 787.275390625 372.680664062 787.275390625 372.680664062 646.451171875 252.59765625 c 1,11,12
97.60546875 271.461914062 m 1,23,24
 66 342 66 342 66.1455078125 425.670898438 c 0,25,26
 66 561 66 561 145.704101562 663.635253906 c 0,27,28
 225 766 225 766 346.24609375 810.16015625 c 0,29,30
 392 827 392 827 449.041015625 829.415039062 c 1,31,-1
 589.30078125 1011.79199219 l 1,32,-1
 624.307617188 988.395507812 l 2,33,34
 737 913 737 913 928.581054688 731.224609375 c 0,35,36
 1119 550 1119 550 1153.6368633 394.119003958 c 0,37,38
 1188 238 1188 238 1093.2578125 127.6796875 c 0,39,40
 972 -14 972 -14 718.190429688 4.1953125 c 0,41,42
 522 18 522 18 375.466796875 80.705078125 c 1,43,44
 190 0 190 0 -0.9423828125 -0 c 2,45,-1
 -15.982421875 0 l 1,46,-1
 -15.982421875 272.329101562 l 1,47,-1
 97.60546875 271.461914062 l 1,23,24
EndSplineSet
EndChar

StartChar: uniFEEC
Encoding: 65260 65260 249
Width: 1043
VWidth: 2304
GlyphClass: 2
Flags: W
AnchorPoint: "Anchor-7" 386.369 -590.488 basechar 0
AnchorPoint: "Anchor-10" 446.435 1098.24 basechar 0
LayerCount: 2
Fore
SplineSet
395.662109375 271.487304688 m 1,0,-1
 417.932617188 271.775390625 l 2,1,2
 463.838867188 272.58203125 463.838867188 272.58203125 509.454101563 339.772460938 c 128,-1,3
 555.069335938 406.962890625 555.069335938 406.962890625 555.577133261 509.525886896 c 128,-1,4
 556.084930585 612.088883168 556.084930585 612.088883168 511.790188292 637.398689292 c 128,-1,5
 467.495445999 662.708495415 467.495445999 662.708495415 422.892267789 577.767262888 c 0,6,7
 390.556315003 516.187442912 390.556315003 516.187442912 395.662109375 271.487304688 c 1,0,-1
155.109375 271.051757812 m 1,8,9
 150 538 150 538 191.475585937 654.66796875 c 0,10,11
 272 880 272 880 501.827148438 883.961914062 c 0,12,13
 628 886 628 886 708.900538659 788.821661167 c 0,14,15
 790 691 790 691 789.704101562 526.041992188 c 0,16,17
 789 239 789 239 615.079101562 86.7470703125 c 0,18,19
 538 19 538 19 414.44921875 3.595703125 c 1,20,21
 418 -96 418 -96 437.484375 -158.345703125 c 1,22,23
 580 78 580 78 814.83984375 216.4921875 c 0,24,25
 914.342314107 275.609251321 914.342314107 275.609251321 1020.73632812 272.052734375 c 2,26,-1
 1057.95507812 270.80859375 l 5,27,-1
 1057.95507812 1.46484375 l 5,28,-1
 1021.99511719 0.4482421875 l 2,29,30
 885 -3 885 -3 773.244628906 -109.688964844 c 0,31,32
 661.868281017 -216.125877371 661.868281017 -216.125877371 497.885742188 -512.412109375 c 2,33,-1
 479.717773438 -545.23828125 l 1,34,-1
 444.159179688 -533.270507812 l 2,35,36
 285 -480 285 -480 202.041015625 -240.685546875 c 0,37,38
 176 -165 176 -165 161.817382812 0 c 1,39,-1
 -14.939453125 0 l 1,40,-1
 -14.939453125 270.990234375 l 1,41,-1
 155.109375 271.051757812 l 1,8,9
EndSplineSet
EndChar

StartChar: uniFEEE
Encoding: 65262 65262 251
Width: 893
VWidth: 2304
GlyphClass: 2
Flags: W
AnchorPoint: "Anchor-10" 462.12 1164.58 basechar 0
AnchorPoint: "Anchor-7" 482.728 -661.491 basechar 0
LayerCount: 2
Fore
SplineSet
573.080078125 259.609375 m 1,0,1
 564.396484375 520.130859375 564.396484375 520.130859375 464.241210938 520.130859375 c 0,2,3
 427.8125 520.130859375 427.8125 520.130859375 389.9765625 467.739257812 c 128,-1,4
 352.140625 415.34765625 352.140625 415.34765625 352.18359375 358.2421875 c 128,-1,5
 352.225585938 301.137695312 352.225585938 301.137695312 379.71875 280.333984375 c 128,-1,6
 407.212890625 259.530273438 407.212890625 259.530273438 484.537109375 259.530273438 c 128,-1,7
 561.862304688 259.530273438 561.862304688 259.530273438 573.080078125 259.609375 c 1,0,1
826.825195312 270.84375 m 1,8,-1
 911.665039062 271.783203125 l 1,9,-1
 911.665039062 0.5283203125 l 1,10,-1
 814.27734375 0.5283203125 l 1,11,12
 764 -196 764 -196 622.859375 -319.434570312 c 0,13,14
 481.890415394 -443.096130406 481.890415394 -443.096130406 159.169921875 -480.916992188 c 2,15,-1
 117.213867188 -485.833984375 l 1,16,-1
 70.85546875 -230.84765625 l 1,17,-1
 119.305664062 -225.940429688 l 2,18,19
 428 -195 428 -195 535.8515625 0.0654296875 c 1,20,21
 502 1 502 1 446.110351562 3.578125 c 0,22,23
 243 15 243 15 173.604492188 111.461914062 c 0,24,25
 104 208 104 208 103.97265625 324.201171875 c 0,26,27
 104 441 104 441 153.096679688 547.920898438 c 0,28,29
 270 802 270 802 456.509765625 801.96484375 c 128,-1,30
 643 802 643 802 762.228515625 581.108398438 c 0,31,32
 818 478 818 478 826.825195312 270.84375 c 1,8,-1
EndSplineSet
EndChar

StartChar: uniFEF0
Encoding: 65264 65264 253
Width: 1514
VWidth: 2304
GlyphClass: 2
Flags: W
AnchorPoint: "Anchor-10" 640.747 627.413 basechar 0
AnchorPoint: "Anchor-7" 424.488 -663.226 basechar 0
LayerCount: 2
Fore
SplineSet
413.852539062 349.078125 m 6,0,1
 357.997070312 179.758789062 357.997070312 179.758789062 357.982421875 46.1064453125 c 4,2,3
 357.952148438 -230.978515625 357.952148438 -230.978515625 731.23828125 -230.797851562 c 4,4,5
 960.0390625 -230.990234375 960.0390625 -230.990234375 1090.12890625 -156.455078125 c 4,6,7
 1152.58398438 -120.670898438 1152.58398438 -120.670898438 1180.28027344 -89.708984375 c 132,-1,8
 1207.97753906 -58.7470703125 1207.97753906 -58.7470703125 1207.97949219 -39.74609375 c 132,-1,9
 1207.98144531 -20.744140625 1207.98144531 -20.744140625 1178.65332031 0.533203125 c 5,10,-1
 971.9609375 0.7314453125 l 5,11,12
 873.928710938 12.1748046875 873.928710938 12.1748046875 848.120117188 158.202148438 c 4,13,14
 831.301757812 253.364257812 831.301757812 253.364257812 907.341796875 271.000976562 c 5,15,-1
 1534.55566406 271.454101562 l 5,16,-1
 1534.55566406 0.515625 l 5,17,-1
 1437.77050781 0.5458984375 l 5,18,19
 1451.03808594 -32.2626953125 1451.03808594 -32.2626953125 1451.078125 -70.626953125 c 4,20,21
 1450.98632812 -267.444335938 1450.98632812 -267.444335938 1179.76757812 -396.33203125 c 4,22,23
 995.336914062 -483.907226562 995.336914062 -483.907226562 724.014648438 -486.395507812 c 4,24,25
 373.254882812 -489.668945312 373.254882812 -489.668945312 217.48046875 -321.595703125 c 4,26,27
 91.0869140625 -185.22265625 91.0869140625 -185.22265625 91.1865234375 53.9453125 c 4,28,29
 90.990234375 219.361328125 90.990234375 219.361328125 168.017578125 418.825195312 c 6,30,-1
 182.268554688 455.729492188 l 5,31,-1
 429.104492188 395.310546875 l 5,32,-1
 413.852539062 349.078125 l 6,0,1
EndSplineSet
EndChar

StartChar: uniFEFB
Encoding: 65275 65275 264
Width: 1255
VWidth: 2304
GlyphClass: 3
Flags: W
AnchorPoint: "Anchor-9" 1002.3 1531.01 baselig 0
AnchorPoint: "Anchor-6" 918.32 -136.656 baselig 0
AnchorPoint: "Anchor-6" 244.92 -193.152 baselig 1
AnchorPoint: "Anchor-9" 220.944 1386.48 baselig 1
LayerCount: 2
Fore
SplineSet
430.323242188 251.845703125 m 5,0,1
 417.9921875 712.288085938 417.9921875 712.288085938 118.694335938 1201.59570312 c 6,2,-1
 91.5810546875 1245.921875 l 5,3,-1
 321.094726562 1344.48730469 l 5,4,-1
 341.953125 1313.74511719 l 6,5,6
 642 872 642 872 674.959960938 296.646484375 c 5,7,8
 855 368 855 368 863.943359375 563.534179688 c 4,9,10
 872.21484375 763.1875 872.21484375 763.1875 872.31640625 924.28515625 c 6,11,-1
 872.657226562 1465.35742188 l 5,12,-1
 1129.80957031 1465.35742188 l 5,13,-1
 1129.6953125 883.59375 l 6,14,15
 1130 537 1130 537 1104.22363281 428.598632812 c 4,16,17
 1044 168 1044 168 845.176757812 64.5009765625 c 4,18,19
 689 -17 689 -17 343.268554688 -1.041015625 c 4,20,21
 192.842773438 6.0078125 192.842773438 6.0078125 126.587890625 25.9462890625 c 6,22,-1
 94.1572265625 35.7060546875 l 5,23,-1
 97.201171875 292.118164062 l 5,24,-1
 151.545898438 279.719726562 l 6,25,26
 313 243 313 243 430.323242188 251.845703125 c 5,0,1
EndSplineSet
LCarets2: 1 0
Ligature2: "'rlig' Required Ligatures in Arabic lookup 16 subtable" uniFEDF uniFE8E
EndChar

StartChar: uniFEFC
Encoding: 65276 65276 265
Width: 1384
VWidth: 2304
GlyphClass: 3
Flags: W
AnchorPoint: "Anchor-9" 1011.25 1523.66 baselig 0
AnchorPoint: "Anchor-6" 889.809 -160.944 baselig 0
AnchorPoint: "Anchor-6" 218.52 -217.44 baselig 1
AnchorPoint: "Anchor-9" 205.894 1391.15 baselig 1
LayerCount: 2
Fore
SplineSet
970.001953125 294.534179688 m 5,0,1
 885 158 885 158 785.8671875 93.466796875 c 4,2,3
 636 -4 636 -4 391.786132812 -4.4716796875 c 4,4,5
 213.541992188 -5.0009765625 213.541992188 -5.0009765625 159.956054688 5.6748046875 c 6,6,-1
 123.748046875 12.888671875 l 5,7,-1
 123.748046875 284.153320312 l 5,8,-1
 176.288085938 275.223632812 l 6,9,10
 329 249 329 249 428.270507812 265.658203125 c 5,11,12
 417.008789062 713.647460938 417.008789062 713.647460938 118.6875 1201.60351562 c 6,13,-1
 91.5908203125 1245.92480469 l 5,14,-1
 321.159179688 1344.515625 l 5,15,-1
 341.999023438 1313.66503906 l 6,16,17
 636 878 636 878 670.348632812 336.575195312 c 5,18,19
 790 398 790 398 840.65234375 551.5390625 c 4,20,21
 875.477539062 659.48046875 875.477539062 659.48046875 875.588867188 924.295898438 c 6,22,-1
 875.81640625 1465.51660156 l 5,23,-1
 1132.96875 1465.51660156 l 5,24,-1
 1132.96875 709.186523438 l 6,25,26
 1133 535 1133 535 1166 438.5 c 132,-1,27
 1199 342 1199 342 1240.76757812 304.212890625 c 132,-1,28
 1282.53027344 266.424804688 1282.53027344 266.424804688 1339.55859375 266.424804688 c 6,29,-1
 1407.73730469 266.424804688 l 5,30,-1
 1407.73730469 -4.4716796875 l 5,31,-1
 1340.984375 -4.4716796875 l 6,32,33
 1199 -4 1199 -4 1103.5 72.5 c 4,34,35
 1009 149 1009 149 970.001953125 294.534179688 c 5,0,1
EndSplineSet
LCarets2: 1 0
Ligature2: "'rlig' Required Ligatures in Arabic lookup 16 subtable" uniFEE0 uniFE8E
EndChar

StartChar: arabic_dot
Encoding: 65536 -1 266
Width: 158
VWidth: 2162
GlyphClass: 2
Flags: W
LayerCount: 2
Fore
SplineSet
138.807849124 177.671130374 m 2,0,-1
 169.431758925 147.047220572 l 2,1,2
 197.440376767 118.840462726 197.440376767 118.840462726 196.999153457 86.5793355945 c 128,-1,3
 196.557930148 54.3182084631 196.557930148 54.3182084631 168.167224124 25.9275024386 c 2,4,-1
 137.543084525 -4.69663715914 l 2,5,6
 110.37459713 -31.8645666679 110.37459713 -31.8645666679 79.6774605017 -32.6512851956 c 128,-1,7
 48.9803238731 -33.4380037233 48.9803238731 -33.4380037233 21.912854001 -6.80784912398 c 2,8,-1
 -9.76683349899 24.871838376 l 2,9,10
 -38.6877801221 53.7927849992 -38.6877801221 53.7927849992 -39.1265951508 86.5841379958 c 128,-1,11
 -39.5654101794 119.375490992 -39.5654101794 119.375490992 -11.032458499 148.102770999 c 2,12,-1
 18.5359158811 177.671145379 l 2,13,14
 47.8068565554 206.942023939 47.8068565554 206.942023939 78.6719458387 206.941990597 c 128,-1,15
 109.537022242 206.941957256 109.537022242 206.941957256 138.807849124 177.671130374 c 2,0,-1
EndSplineSet
EndChar

StartChar: arabic_2dots
Encoding: 65537 -1 267
Width: 422
VWidth: 2162
GlyphClass: 2
Flags: W
LayerCount: 2
Fore
SplineSet
402.807849124 177.671130374 m 2,0,-1
 433.431872562 147.047106937 l 2,1,2
 461.439963069 118.840379014 461.439963069 118.840379014 460.998747074 86.5793721314 c 128,-1,3
 460.557531079 54.3183652485 460.557531079 54.3183652485 432.167224124 25.9275024386 c 2,4,-1
 401.543084525 -4.69663715921 l 2,5,6
 392.595577189 -13.6439607644 392.595577189 -13.6439607644 383.472725647 -19.8718598907 c 128,-1,7
 374.349874104 -26.099759017 374.349874104 -26.099759017 364.267507554 -29.923057216 c 0,8,9
 352.726500569 -33.8277402091 352.726500569 -33.8277402091 342.710542368 -33.9702441358 c 128,-1,10
 332.694584168 -34.1127480624 332.694584168 -34.1127480624 322.671793285 -30.7654470741 c 0,11,12
 303.811645173 -24.7066402969 303.811645173 -24.7066402969 285.912854001 -6.80784912399 c 2,13,-1
 254.233166501 24.8718383759 l 2,14,15
 225.312219878 53.7927849991 225.312219878 53.7927849991 224.873404849 86.5841379958 c 128,-1,16
 224.434589821 119.375490992 224.434589821 119.375490992 252.967541501 148.102770999 c 2,17,-1
 282.535900876 177.671130374 l 2,18,19
 310.523177627 205.658407125 310.523177627 205.658407125 342.671620652 205.658538551 c 128,-1,20
 374.820063678 205.658669977 374.820063678 205.658669977 402.807849124 177.671130374 c 2,0,-1
138.791512763 177.687466723 m 2,21,-1
 169.444154468 147.034848715 l 2,22,23
 197.376418112 118.754877514 197.376418112 118.754877514 196.939191784 86.5088388099 c 128,-1,24
 196.501965456 54.2628001061 196.501965456 54.2628001061 168.167229875 25.92750819 c 2,25,-1
 137.53062711 -4.70911949504 l 2,26,27
 110.275092942 -31.8033849166 110.275092942 -31.8033849166 79.6073957109 -32.5930038073 c 128,-1,28
 48.9396984795 -33.3826226979 48.9396984795 -33.3826226979 21.91289046 -6.80788558295 c 2,29,-1
 -9.7346439476 24.8394856478 l 2,30,31
 -38.8599827618 53.525336827 -38.8599827618 53.525336827 -39.2902118804 86.3904159773 c 128,-1,32
 -39.7204409989 119.255495128 -39.7204409989 119.255495128 -11.0325010432 148.102728454 c 2,33,-1
 18.5021296489 177.637536847 l 2,34,35
 46.2501832721 205.769435108 46.2501832721 205.769435108 78.4170127305 205.751070885 c 128,-1,36
 110.583842189 205.732706662 110.583842189 205.732706662 138.791512763 177.687466723 c 2,21,-1
EndSplineSet
EndChar

StartChar: arabic_3dots
Encoding: 65538 -1 268
Width: 422
VWidth: 2162
GlyphClass: 2
Flags: W
LayerCount: 2
Fore
SplineSet
268.566581607 392.813765078 m 2,0,-1
 299.190775262 362.189571422 l 2,1,2
 306.171904217 355.208302224 306.171904217 355.208302224 311.437419769 347.773193956 c 128,-1,3
 316.70293532 340.338085688 316.70293532 340.338085688 320.113525748 332.75812172 c 128,-1,4
 323.524116176 325.178157751 323.524116176 325.178157751 325.199402156 317.344266099 c 128,-1,5
 326.874688136 309.510374447 326.874688136 309.510374447 326.762646676 301.721092822 c 128,-1,6
 326.650605216 293.931811197 326.650605216 293.931811197 324.777749016 286.089209653 c 128,-1,7
 322.904892817 278.246608109 322.904892817 278.246608109 319.312306861 270.638082321 c 128,-1,8
 315.719720906 263.029556533 315.719720906 263.029556533 310.340809919 255.568318589 c 128,-1,9
 304.961898931 248.107080646 304.961898931 248.107080646 297.925036624 241.070080563 c 2,10,-1
 267.300897025 210.445940966 l 2,11,12
 240.132510538 183.278112363 240.132510538 183.278112363 209.435464736 182.491372575 c 128,-1,13
 178.738418934 181.704632786 178.738418934 181.704632786 151.671817441 208.334554626 c 2,14,-1
 119.990979001 240.014416501 l 2,15,16
 105.669611043 254.335784459 105.669611043 254.335784459 98.248909966 270.121573482 c 128,-1,17
 90.8282088888 285.907362505 90.8282088888 285.907362505 90.5944303094 301.720025567 c 128,-1,18
 90.3606517299 317.532688628 90.3606517299 317.532688628 97.4520134002 333.297680552 c 128,-1,19
 104.54337507 349.062672476 104.54337507 349.062672476 118.726143731 363.245162289 c 2,20,-1
 148.293713376 392.813708499 l 2,21,22
 176.28102007 420.801015193 176.28102007 420.801015193 208.429711386 420.80111783 c 128,-1,23
 240.578402701 420.801220467 240.578402701 420.801220467 268.566581607 392.813765078 c 2,0,-1
403.169177249 161.831286624 m 2,24,-1
 433.793200687 131.207263187 l 2,25,26
 461.80132484 103.000357667 461.80132484 103.000357667 461.359772874 70.7393307883 c 128,-1,27
 460.918220908 38.4783039096 460.918220908 38.4783039096 432.527575687 10.0876586883 c 2,28,-1
 401.903552249 -20.5363647489 l 2,29,30
 374.735529222 -47.7043877757 374.735529222 -47.7043877757 344.03853444 -48.4911009508 c 128,-1,31
 313.341539657 -49.277814126 313.341539657 -49.277814126 286.274182126 -22.647692874 c 2,32,-1
 254.594494626 9.03199462594 l 2,33,34
 225.673548003 37.9529412491 225.673548003 37.9529412491 225.234732974 70.7442942458 c 128,-1,35
 224.795917946 103.535647242 224.795917946 103.535647242 253.328869626 132.262927249 c 2,36,-1
 282.897229001 161.831286624 l 2,37,38
 310.884505752 189.818563375 310.884505752 189.818563375 343.032948777 189.818694801 c 128,-1,39
 375.181391803 189.818826227 375.181391803 189.818826227 403.169177249 161.831286624 c 2,24,-1
139.152840888 161.847622973 m 2,40,-1
 169.805482593 131.195004965 l 2,41,42
 197.73777945 102.914856215 197.73777945 102.914856215 197.300217356 70.6687972396 c 128,-1,43
 196.862655262 38.4227382638 196.862655262 38.4227382638 168.527581359 10.0876643606 c 2,44,-1
 137.891065581 -20.5488759925 l 2,45,46
 110.636199795 -47.6435897274 110.636199795 -47.6435897274 79.9684683989 -48.433207431 c 128,-1,47
 49.3007370025 -49.2228251346 49.3007370025 -49.2228251346 22.2742186763 -22.6477294242 c 2,48,-1
 -9.37327561906 8.99960128592 l 2,49,50
 -38.4990538708 37.6853394278 -38.4990538708 37.6853394278 -38.9292786405 70.5505978275 c 128,-1,51
 -39.3595034102 103.415856227 -39.3595034102 103.415856227 -10.6711729182 132.262884704 c 2,52,-1
 18.8634577739 161.797693097 l 2,53,54
 46.6115113971 189.929591358 46.6115113971 189.929591358 78.7783408555 189.911227135 c 128,-1,55
 110.945170314 189.892862912 110.945170314 189.892862912 139.152840888 161.847622973 c 2,40,-1
EndSplineSet
EndChar

StartChar: arabic_3dots_a
Encoding: 65539 -1 269
Width: 422
VWidth: 2162
GlyphClass: 2
Flags: W
LayerCount: 2
Fore
SplineSet
268.566581612 -221.176069762 m 2,0,1
 259.302351169 -230.440114901 259.302351169 -230.440114901 249.291717125 -236.711483965 c 128,-1,2
 239.281083081 -242.982853029 239.281083081 -242.982853029 229.092154199 -246.066618827 c 128,-1,3
 218.903225316 -249.150384624 218.903225316 -249.150384624 208.430216979 -249.150426453 c 128,-1,4
 197.957208642 -249.150468281 197.957208642 -249.150468281 187.768276001 -246.066800465 c 128,-1,5
 177.57934336 -242.983132649 177.57934336 -242.983132649 167.56865232 -236.711696869 c 128,-1,6
 157.557961279 -230.440261089 157.557961279 -230.440261089 148.293713376 -221.176013187 c 2,7,-1
 118.726330563 -191.608630374 l 2,8,9
 104.543281307 -177.425581117 104.543281307 -177.425581117 97.4518406208 -161.660330806 c 128,-1,10
 90.3603999351 -145.895080495 90.3603999351 -145.895080495 90.5942568678 -130.08231269 c 128,-1,11
 90.8281138004 -114.269544885 90.8281138004 -114.269544885 98.248894958 -98.4837844806 c 128,-1,12
 105.669676116 -82.6980240765 105.669676116 -82.6980240765 119.991153378 -68.376546814 c 2,13,-1
 151.671521504 -36.6971552492 l 2,14,15
 157.565148599 -30.8034015046 157.565148599 -30.8034015046 163.81650496 -26.2085192551 c 128,-1,16
 170.067861321 -21.6136370056 170.067861321 -21.6136370056 176.461039276 -18.4506678551 c 128,-1,17
 182.854217231 -15.2876987046 182.854217231 -15.2876987046 189.438895344 -13.4055372488 c 128,-1,18
 196.023573456 -11.5233757929 196.023573456 -11.5233757929 202.654520579 -11.0464446455 c 128,-1,19
 209.285467703 -10.569513498 209.285467703 -10.569513498 215.936974107 -11.3559008443 c 128,-1,20
 222.58848051 -12.1422881905 222.58848051 -12.1422881905 229.190703343 -14.3072230545 c 128,-1,21
 235.792926175 -16.4721579186 235.792926175 -16.4721579186 242.244767411 -19.8829220753 c 128,-1,22
 248.696608647 -23.293686232 248.696608647 -23.293686232 255.003613729 -28.0563151159 c 128,-1,23
 261.310618811 -32.8189439999 261.310618811 -32.8189439999 267.301013187 -38.8093383761 c 2,24,-1
 297.925036624 -69.4333618134 l 2,25,26
 326.315123186 -97.8234483755 326.315123186 -97.8234483755 326.756839293 -130.083938833 c 128,-1,27
 327.1985554 -162.344429291 327.1985554 -162.344429291 299.190661624 -190.551989749 c 2,28,-1
 268.566581612 -221.176069762 l 2,0,1
403.169177249 9.80640868843 m 2,29,30
 375.181900498 -18.1808680622 375.181900498 -18.1808680622 343.033457473 -18.1809994883 c 128,-1,31
 310.885014447 -18.1811309144 310.885014447 -18.1811309144 282.897229001 9.80640868847 c 2,32,-1
 253.328869626 39.3747680634 l 2,33,34
 224.795787319 68.1024002761 224.795787319 68.1024002761 225.234716625 100.893626134 c 128,-1,35
 225.673645931 133.684851992 225.673645931 133.684851992 254.594494626 162.605700687 c 2,36,-1
 286.274182126 194.285388187 l 2,37,38
 313.112879197 220.828963773 313.112879197 220.828963773 343.89639036 220.113128514 c 128,-1,39
 374.679901524 219.397293254 374.679901524 219.397293254 401.903552249 192.173083499 c 2,40,-1
 432.527464932 161.549170815 l 2,41,42
 460.918069991 133.159121606 460.918069991 133.159121606 461.35978389 100.89844318 c 128,-1,43
 461.801497789 68.6377647541 461.801497789 68.6377647541 433.793200687 40.4304321259 c 2,44,-1
 403.169177249 9.80640868843 l 2,29,30
139.152899373 9.79013081251 m 2,45,46
 110.925454129 -18.2753284985 110.925454129 -18.2753284985 78.7575657376 -18.2800793368 c 128,-1,47
 46.5896773462 -18.2848301751 46.5896773462 -18.2848301751 18.8410573891 9.86258030029 c 2,48,-1
 -10.671130374 39.3747680635 l 2,49,50
 -39.3618042891 68.2275150175 -39.3618042891 68.2275150175 -38.9240930886 101.096257032 c 128,-1,51
 -38.4863818882 133.964999046 -38.4863818882 133.964999046 -9.35168377266 162.659522288 c 2,52,-1
 22.274182126 194.285388187 l 2,53,54
 49.0712706294 220.771565183 49.0712706294 220.771565183 79.8253830013 220.054134685 c 128,-1,55
 110.579495373 219.336704186 110.579495373 219.336704186 137.88271596 192.193919788 c 2,56,-1
 168.527575687 161.549060062 l 2,57,58
 196.861571767 133.215063981 196.861571767 133.215063981 197.302228846 100.972137934 c 128,-1,59
 197.742885925 68.7292118875 197.742885925 68.7292118875 169.813584502 40.4508159411 c 2,60,-1
 139.152899373 9.79013081251 l 2,45,46
EndSplineSet
EndChar

StartChar: uni066E.fina
Encoding: 65540 -1 270
Width: 1933
VWidth: 2304
GlyphClass: 2
Flags: W
AnchorPoint: "Anchor-10" 775.368 1166.17 basechar 0
AnchorPoint: "Anchor-7" 775.368 -142.744 basechar 0
LayerCount: 2
Fore
SplineSet
1895.75 0.5283203125 m 5,0,1
 1713.52539062 1.9912109375 1713.52539062 1.9912109375 1618.19238281 155.659179688 c 5,2,3
 1470.02148438 4.435546875 1470.02148438 4.435546875 1178 3.5 c 4,4,5
 1022 3 1022 3 968.5 2.5 c 132,-1,6
 915 2 915 2 907.2578125 2.234375 c 4,7,8
 642 2 642 2 495.862304688 43.8232421875 c 4,9,10
 294 102 294 102 190 235 c 4,11,12
 20.9931640625 451.133789062 20.9931640625 451.133789062 125.9609375 804.802734375 c 6,13,-1
 137.931640625 845.135742188 l 5,14,-1
 383.052734375 789.984375 l 5,15,-1
 374.81640625 747.157226562 l 6,16,17
 352.99609375 633.697265625 352.99609375 633.697265625 352.591796875 600.091796875 c 4,18,19
 353 474 353 474 412 402 c 132,-1,20
 471 330 471 330 597.5 301.5 c 132,-1,21
 724 273 724 273 969.5 273 c 132,-1,22
 1215 273 1215 273 1344.5 310 c 132,-1,23
 1474 347 1474 347 1498.30957031 403.298828125 c 4,24,25
 1531.29492188 482.709960938 1531.29492188 482.709960938 1535.20605469 616.784179688 c 6,26,-1
 1536.48046875 660.471679688 l 5,27,-1
 1739.35449219 660.471679688 l 5,28,-1
 1742.47167969 618.83203125 l 5,29,30
 1762.76269531 315.004882812 1762.76269531 315.004882812 1871.796875 278.752929688 c 4,31,32
 1891.83789062 271.424804688 1891.83789062 271.424804688 1923.07714844 271.424804688 c 6,33,-1
 1940.5390625 271.424804688 l 5,34,-1
 1940.5390625 0.5283203125 l 5,35,-1
 1895.75 0.5283203125 l 5,0,1
EndSplineSet
EndChar

StartChar: uni06A1.fina
Encoding: 65543 -1 273
Width: 2027
VWidth: 2304
GlyphClass: 2
Flags: W
AnchorPoint: "Anchor-10" 677.936 1279.16 basechar 0
AnchorPoint: "Anchor-7" 581.84 -183.4 basechar 0
LayerCount: 2
Fore
SplineSet
1432 552 m 128,-1,1
 1432 494 1432 494 1472 454 c 128,-1,2
 1512 414 1512 414 1570 414 c 128,-1,3
 1628 414 1628 414 1668 454 c 128,-1,4
 1708 494 1708 494 1708 552 c 128,-1,5
 1708 610 1708 610 1668 650 c 128,-1,6
 1628 690 1628 690 1570 690 c 128,-1,7
 1512 690 1512 690 1472 650 c 128,-1,0
 1432 610 1432 610 1432 552 c 128,-1,1
1841.08203125 273.751953125 m 1,8,9
 1885.83132846 271.424804688 1885.83132846 271.424804688 1973.53125 271.424804688 c 2,10,-1
 2038.92089844 271.424804688 l 5,11,-1
 2038.92089844 0.5283203125 l 5,12,-1
 1905.28125 0.5283203125 l 2,13,14
 1673 1 1673 1 1555.23144531 98.185546875 c 1,15,16
 1392 14 1392 14 1161.22753906 4.158203125 c 0,17,18
 1068 0 1068 0 859.737304688 0 c 0,19,20
 93.9439675264 1.77847320204e-13 93.9439675264 1.77847320204e-13 91.4306640625 575.462890625 c 0,21,22
 90.9995177093 683.120428314 90.9995177093 683.120428314 133.434570312 800.426757812 c 2,23,-1
 146.564453125 836.72265625 l 1,24,-1
 393.845703125 788.08203125 l 1,25,-1
 384.498046875 743.48828125 l 2,26,27
 359 621 359 621 359.173828125 590.131835938 c 0,28,29
 360 463 360 463 421.043945312 391.430664062 c 0,30,31
 521 275 521 275 864.005859375 270.482421875 c 0,32,33
 1126 267 1126 267 1282.69042969 286.220703125 c 1,34,35
 1142 435 1142 435 1182.8359375 629.02734375 c 0,36,37
 1224 823 1224 823 1403.57324219 896.19140625 c 0,38,39
 1478 927 1478 927 1584.88964844 926.298828125 c 0,40,41
 1692 926 1692 926 1775.85546875 878.223632812 c 0,42,43
 1860 831 1860 831 1910.18457031 744.013671875 c 0,44,45
 1961 657 1961 657 1960.41601562 545.455078125 c 0,46,47
 1961 388 1961 388 1841.08203125 273.751953125 c 1,8,9
EndSplineSet
EndChar

StartChar: uni06A1.init
Encoding: 65544 -1 274
Width: 855
VWidth: 2304
GlyphClass: 2
Flags: W
AnchorPoint: "Anchor-10" 419.239 1330.9 basechar 0
AnchorPoint: "Anchor-7" 392.84 -133.24 basechar 0
LayerCount: 2
Fore
SplineSet
-58.87109375 271.002929688 m 1,0,-1
 77.591796875 271.002929688 l 2,1,2
 348.701171875 271.133789062 348.701171875 271.133789062 425.811523438 298.359375 c 0,3,4
 459.571289062 310.512695312 459.571289062 310.512695312 484.598632812 324.735351562 c 1,5,6
 437.2578125 320.888671875 437.2578125 320.888671875 432.126953125 320.602539062 c 2,7,-1
 430.946289062 320.536132812 l 1,8,-1
 429.763671875 320.532226562 l 2,9,10
 241.225585938 319.926757812 241.225585938 319.926757812 147.532226562 447.923828125 c 0,11,12
 19.4970703125 624.66015625 19.4970703125 624.66015625 134.827148438 875.985351562 c 0,13,14
 191.435546875 999.0078125 191.435546875 999.0078125 272.1875 1064.921875 c 128,-1,15
 352.938476562 1130.8359375 352.938476562 1130.8359375 455.634765625 1130.60253906 c 0,16,17
 507.79296875 1130.72167969 507.79296875 1130.72167969 553.77734375 1113.06542969 c 128,-1,18
 599.762695312 1095.41015625 599.762695312 1095.41015625 637.614257812 1061.53710938 c 128,-1,19
 675.465820312 1027.66503906 675.465820312 1027.66503906 706.01953125 979.852539062 c 128,-1,20
 736.573242188 932.040039062 736.573242188 932.040039062 759.967773438 870.408203125 c 0,21,22
 807.991210938 743.237304688 807.991210938 743.237304688 808.168945312 582.09375 c 0,23,24
 808.080078125 431.28515625 808.080078125 431.28515625 767.396484375 318.939453125 c 128,-1,25
 726.713867188 206.59375 726.713867188 206.59375 643.108398438 136.165039062 c 0,26,27
 481.424804688 0 481.424804688 0 198.21875 0 c 2,28,-1
 -58.87109375 0 l 1,29,-1
 -58.87109375 271.002929688 l 1,0,-1
554.842773438 582.512695312 m 1,30,31
 547.665039062 848.083984375 547.665039062 848.083984375 446.624023438 847.708984375 c 0,32,33
 410.005859375 847.873046875 410.005859375 847.873046875 374.525390625 798.747070312 c 0,34,35
 353.970703125 770.287109375 353.970703125 770.287109375 343.939453125 739.405273438 c 128,-1,36
 333.909179688 708.5234375 333.909179688 708.5234375 333.830078125 673.53515625 c 0,37,38
 333.899414062 622.06640625 333.899414062 622.06640625 361.576171875 599.466796875 c 128,-1,39
 389.251953125 576.866210938 389.251953125 576.866210938 463.18359375 576.560546875 c 0,40,41
 505.702148438 576.3203125 505.702148438 576.3203125 554.842773438 582.512695312 c 1,30,31
EndSplineSet
EndChar

StartChar: uni06A1.medi
Encoding: 65545 -1 275
Width: 1043
VWidth: 2304
GlyphClass: 2
Flags: W
AnchorPoint: "Anchor-10" 521.39 1109.67 basechar 0
AnchorPoint: "Anchor-7" 521.39 -133.24 basechar 0
LayerCount: 2
Fore
SplineSet
386.83203125 549.069335938 m 128,-1,1
 386.83203125 494.983398438 386.83203125 494.983398438 426.521484375 456.186035156 c 128,-1,2
 466.2109375 417.388671875 466.2109375 417.388671875 523.029296875 417.388671875 c 128,-1,3
 579.844726562 417.388671875 579.844726562 417.388671875 619.534667969 456.186035156 c 128,-1,4
 659.224609375 494.983398438 659.224609375 494.983398438 659.224609375 549.069335938 c 128,-1,5
 659.224609375 603.147633404 659.224609375 603.147633404 619.53396938 641.947351858 c 128,-1,6
 579.843329386 680.747070312 579.843329386 680.747070312 523.029296875 680.747070312 c 128,-1,7
 466.211914062 680.747070312 466.211914062 680.747070312 426.521972656 641.950195312 c 128,-1,0
 386.83203125 603.153320312 386.83203125 603.153320312 386.83203125 549.069335938 c 128,-1,1
916.14453125 556.778320312 m 0,8,9
 916 394 916 394 796.32421875 275.684570312 c 1,10,11
 882.829379486 269.877187595 882.829379486 269.877187595 985.80078125 271.001953125 c 2,12,-1
 1048.47265625 271.686523438 l 1,13,-1
 1048.47265625 0.6318359375 l 1,14,-1
 842.185546875 0 l 2,15,16
 715 -0 715 -0 522.861328125 105.83203125 c 1,17,18
 351 0 351 0 202.255859375 -0 c 2,19,-1
 -5.1455078125 0 l 5,20,-1
 -5.1455078125 271.002929688 l 5,21,-1
 57.2626953125 271.002929688 l 2,22,23
 170 271 170 271 244.15234375 280.844726562 c 1,24,25
 128 399 128 399 128.469634542 532.302979146 c 0,26,27
 129 802 129 802 358.860351562 896.162109375 c 0,28,29
 467 941 467 941 605.583984375 921.689453125 c 0,30,31
 670 913 670 913 717.6875 885.920898438 c 0,32,33
 916 773 916 773 916.14453125 556.778320312 c 0,8,9
EndSplineSet
EndChar

